<svg version="1.1" id="base" xmlns="http://www.w3.org/2000/svg" x="0" y="0" viewBox="0 0 909 260" xml:space="preserve"><style>.st1{fill:#404041}.st3{fill:#1a6a94}.st4{fill:#1a5067}.st8{fill:#fff}.st9{fill:#464647}</style><g id="text"><path class="st1" d="M652.2 198.8v4h-3v1.6h3v9.5c0 2.5 1.3 4.1 3.8 4.1 2 0 3.5-1.1 4.4-4l-1.2-.5c-.6 1.8-1.4 2.7-2.5 2.7-1.3 0-1.9-.8-1.9-2.3v-9.4h4.9v-1.6h-4.9v-4.3l-2.6.2zM641.5 218c3.2 0 5.6-1.8 6.5-5.2h-1.4c-.8 2.2-2.3 3.4-4.4 3.4-3 0-4.8-2.3-4.8-6.1 0-3.9 1.9-6.3 4.7-6.3 1.7 0 2.8.7 3.3 1.5-.7.3-1.3 1-1.3 1.8 0 1 .7 1.8 1.8 1.8 1.2 0 1.9-1 1.9-2.3 0-1.9-2.4-4.2-5.7-4.2-4.5 0-7.5 3.3-7.5 8-.1 4.4 2.7 7.6 6.9 7.6m-17.1-.3h8.2V216h-2.8v-13.2h-5.4v1.7h2.8V216h-2.8v1.7zm4-18.4c1 0 1.8-.8 1.8-1.9 0-1.1-.8-1.9-1.8-1.9-1.1 0-1.9.8-1.9 1.9 0 1.2.8 1.9 1.9 1.9m-17.5 18.4h8V216H616v-8.1c.4-1.6 1.8-3.7 3.4-3.5-.1.2-.1.4-.1.6 0 1.1.8 1.7 1.8 1.7s1.8-.9 1.8-1.9c0-1.3-.9-2.3-2.4-2.3-1.7 0-3.6 1.2-4.5 3.7v-3.5h-5v1.7h2.5v11.5H611l-.1 1.8zm-9.5-18.9v4h-3v1.6h3v9.5c0 2.5 1.3 4.1 3.8 4.1 2 0 3.5-1.1 4.4-4l-1.2-.5c-.6 1.8-1.4 2.7-2.5 2.7-1.3 0-1.9-.8-1.9-2.3v-9.4h4.9v-1.6H604v-4.3l-2.6.2zM585.2 218h1.5l.4-2.1c1 1.3 2.6 2.1 4.7 2.1 3.2 0 5.2-2.3 5.2-4.6 0-2.5-1.5-3.5-5.2-4.5-2.7-.8-3.9-1.5-3.9-2.9s1.3-2.2 2.7-2.2c2.2 0 3.3 1.3 4.3 3.8h1.5v-5.1h-1.5l-.4 1.8c-.8-1.2-2.2-1.8-3.9-1.8-3 0-5 2-5 4.3s1.4 3.5 5.1 4.5c3 .8 4.1 1.5 4.1 3 0 1.4-1.1 2.3-2.9 2.3-2.4 0-4.2-1.7-5-4.3h-1.5v5.7h-.2zm-10.2-.3h8.2V216h-2.8v-13.2H575v1.7h2.8V216H575v1.7zm3.9-18.4c1 0 1.8-.8 1.8-1.9 0-1.1-.8-1.9-1.8-1.9-1.1 0-1.9.8-1.9 1.9 0 1.2.8 1.9 1.9 1.9m-21 16.6v-18.3h2.5c6.1 0 8.7 3.1 8.7 8.8 0 6.5-2.6 9.4-8.4 9.4h-2.8v.1zm-6.5 1.8h9.2c8.1 0 11.7-5 11.7-11.2 0-6.3-3.9-10.5-11.9-10.5h-9v1.7h3.7V216h-3.7v1.7zm-15.8 0h8.2V216H541v-21.1h-5.4v1.8h2.8V216h-2.8v1.7zm-9-1.2c-2.5 0-4.6-2-4.6-6.3s1.8-6.3 4.3-6.3 4.5 1.9 4.5 6.3c.1 4.3-1.7 6.3-4.2 6.3m-.1 1.5c4.1 0 7.2-3.2 7.2-7.9 0-4.6-3-7.6-7.2-7.6-4.1 0-7.2 3.2-7.2 7.9-.1 4.5 2.9 7.6 7.2 7.6m-16.9-1.5c-2.5 0-4.6-2-4.6-6.3s1.8-6.3 4.3-6.3 4.5 1.9 4.5 6.3c0 4.3-1.8 6.3-4.2 6.3m-.2 1.5c4.1 0 7.2-3.2 7.2-7.9 0-4.6-3-7.6-7.2-7.6-4.1 0-7.2 3.2-7.2 7.9 0 4.5 3 7.6 7.2 7.6m-26.2-.3h7.3V216h-2.3v-6.5c0-2.4 2.1-4.9 4.3-4.9.8 0 1.4.2 1.9.7.6.6.9 1.7.9 3.1v7.6H493v1.7h7.3V216h-2.5v-8.7c0-3.1-1.5-4.7-4.1-4.7-1.9 0-3.9 1-5.6 4v-11.7H483v1.8h2.5V216H483v1.7h.2zm-8.2.3c3.2 0 5.6-1.8 6.5-5.2H480c-.8 2.2-2.3 3.4-4.4 3.4-3 0-4.8-2.3-4.8-6.1 0-3.9 1.9-6.3 4.7-6.3 1.7 0 2.8.7 3.3 1.5-.7.3-1.3 1-1.3 1.8 0 1 .7 1.8 1.8 1.8 1.2 0 1.9-1 1.9-2.3 0-1.9-2.4-4.2-5.7-4.2-4.5 0-7.5 3.3-7.5 8 0 4.4 2.8 7.6 7 7.6m-25.5.1h1.6l.7-2.6c1.6 1.7 3.8 2.7 6.5 2.7 4.1 0 7-2.8 7-6.6 0-4.3-3.4-5.2-7.2-6.2-3.1-.8-5.7-1.5-5.7-4.6 0-2.4 1.7-3.8 3.9-3.8 2.5 0 4.8 1.5 6.5 5.7h1.5v-7.1h-1.6l-.7 2.3c-1.3-1.5-3.4-2.4-5.6-2.4-4.1 0-6.6 2.8-6.6 6.2 0 4.3 3.5 5.4 7 6.3 3.5.9 5.9 1.7 5.9 4.6 0 2.6-1.8 4-4.3 4-3.2 0-5.3-1.8-7.4-6.1h-1.5v7.6zm-16.1-19.3v4h-3v1.6h3v9.5c0 2.5 1.3 4.1 3.8 4.1 2 0 3.5-1.1 4.4-4l-1.2-.5c-.6 1.8-1.4 2.7-2.5 2.7-1.3 0-1.9-.8-1.9-2.3v-9.4h4.9v-1.6H436v-4.3l-2.6.2zm-20.9 18.9h7.3V216h-2.3v-6.5c0-2.4 2.1-4.9 4.3-4.9.8 0 1.4.2 1.9.7.6.6.9 1.7.9 3.1v7.6h-2.3v1.7h7.3V216h-2.5v-8.7c0-3.1-1.5-4.7-4.1-4.7-1.9 0-3.9 1-5.7 4.1v-3.9h-5v1.7h2.5V216h-2.5v1.7h.2zm-8.7-13.8c2.3 0 3.5 1.9 3.7 5h-7.8c.3-3.3 1.9-5 4.1-5m6.4 6.4c.1-4-1.8-7.9-6.2-7.9-4 0-7.1 3.4-7.1 7.9s2.7 7.6 7 7.6c3.1 0 5.3-1.6 6.2-4.7h-1.4c-.9 2.2-2.4 2.9-4.3 2.9-2.8 0-4.7-2-4.8-5.9l10.6.1zm-24.3 5.9c-2.2 0-3.9-2.2-3.9-6s1.5-6.1 4-6.1c2.4 0 4.1 2.3 4.1 5.8 0 3.8-1.9 6.3-4.2 6.3m-.9 1.7c2 0 3.9-1.2 5-3.5v3.3h4.9V216h-2.4v-21.1h-5.1v1.8h2.5v8.7c-.9-1.8-2.6-2.9-4.7-2.9-1.6 0-2.9.6-3.9 1.6-1.4 1.4-2.3 3.8-2.3 6.4 0 2.5.7 4.7 2.2 6.1 1 .8 2.3 1.3 3.8 1.3m-25-.2h7.3V216H365v-6.5c0-2.4 2.1-4.9 4.3-4.9.8 0 1.4.2 1.9.7.6.6.9 1.7.9 3.1v7.6h-2.3v1.7h7.3V216h-2.5v-8.7c0-3.1-1.5-4.7-4.1-4.7-1.9 0-3.9 1-5.7 4.1v-3.9h-5v1.7h2.5V216H360v1.7zm-8.7-13.8c2.3 0 3.5 1.9 3.7 5h-7.8c.3-3.3 1.9-5 4.1-5m6.4 6.4c.1-4-1.8-7.9-6.2-7.9-4 0-7.1 3.4-7.1 7.9s2.7 7.6 7 7.6c3.1 0 5.3-1.6 6.2-4.7h-1.4c-.9 2.2-2.4 2.9-4.3 2.9-2.8 0-4.7-2-4.8-5.9l10.6.1zm-31.8 12.4h8.3V221h-3.3v-6.3c.9 1.7 2.5 3.1 4.7 3.1 1.5 0 2.8-.6 3.8-1.6 1.4-1.4 2.2-3.7 2.2-6.2s-.7-4.6-2-6c-1-1-2.1-1.5-3.7-1.5-2.1 0-4 1.1-5.1 3.8v-3.5h-5v1.7h2.5V221h-2.5v1.7h.1zm9.1-6.8c-2.5 0-4.1-2.4-4.1-5.6 0-3.5 2-6.2 4.3-6.2 2 0 3.7 1.6 3.7 5.7-.1 4.1-1.6 6.1-3.9 6.1m-17.5-12c2.3 0 3.5 1.9 3.7 5h-7.8c.3-3.3 1.9-5 4.1-5m6.4 6.4c.1-4-1.8-7.9-6.2-7.9-4 0-7.1 3.4-7.1 7.9s2.7 7.6 7 7.6c3.1 0 5.3-1.6 6.2-4.7h-1.4c-.9 2.2-2.4 2.9-4.3 2.9-2.8 0-4.7-2-4.8-5.9l10.6.1zm-24.3 5.9c-2.2 0-3.9-2.2-3.9-6s1.5-6.1 4-6.1 4.1 2.3 4.1 5.8c0 3.8-1.9 6.3-4.2 6.3m-.9 1.7c2 0 3.9-1.2 5-3.5v3.3h4.9V216h-2.4v-21.1h-5.1v1.8h2.5v8.7c-.9-1.8-2.6-2.9-4.7-2.9-1.6 0-2.9.6-3.9 1.6-1.4 1.4-2.3 3.8-2.3 6.4 0 2.5.7 4.7 2.2 6.1 1.1.8 2.3 1.3 3.8 1.3m-25-.2h7.3V216h-2.3v-6.5c0-2.4 2.1-4.9 4.3-4.9.8 0 1.4.2 1.9.7.6.6.9 1.7.9 3.1v7.6h-2.3v1.7h7.3V216h-2.5v-8.7c0-3.1-1.5-4.7-4.1-4.7-1.9 0-3.9 1-5.7 4.1v-3.9h-5v1.7h2.5V216h-2.5v1.7h.2zm-12.6 0h10.2V216h-3.7v-18.3h3.7V196h-10.2v1.7h3.7V216h-3.7v1.7zm-16 .3h5.5v-19.3h2.9v-2.9h-8.8v2.9h3v12.4h-.3l-9.3-15.3h-9.3v2.9h2.9v16.1h-2.9v2.9h8.8v-2.9h-3V201h.3l10.2 17zm-30.1-.3h11.5v-2.9h-3.1v-16.1h3.1v-2.9H215v2.9h3.1v16.1H215v2.9zm-19.1 0h12.3v-2.9h-3.4v-16.5h.8c2.7 0 3.3.9 4.5 6.3h2.6v-8.8h-21.3v8.8h2.6c1.2-5.4 1.8-6.3 4.5-6.3h.8v16.5h-3.4v2.9zm-24 .4h2.9l.8-2.6c1.2 1.5 3.6 2.7 6.4 2.7 4.8 0 8-3 8-7.1 0-4.8-3.9-5.9-7.5-6.8-3.3-.8-5.7-1.3-5.7-3.5 0-1.5 1.2-2.8 3.4-2.8 2.8 0 4.5 1.5 5.9 5.1h2.9v-7.8h-2.9l-.7 2.4c-1.1-1.5-3.2-2.4-5.6-2.4-4.3 0-7.7 2.9-7.7 6.9 0 4.9 4.1 6.1 7.6 7 3.3.8 5.6 1.3 5.6 3.4 0 1.7-1.3 2.9-3.7 2.9-3.5 0-5.4-1.7-6.8-5.4h-2.9v8zm-13.6.1c6.2 0 8.9-3.8 8.9-8.2v-11.3h2.7v-2.9h-8.7v2.9h2.9v10c0 2.4-.4 3.9-1.4 4.9-.9.9-2 1.3-3.5 1.3-3.3 0-5.1-1.4-5.1-5.5v-10.7h3.1v-2.9h-11.3v2.9h2.8v11.5c.1 4.9 3.2 8 9.6 8m-25.4-18.3h.1l2.8 8.2H130l2.9-8.2zm5.1 14.9h-3v2.9h11.5v-2.9h-2.6l-7-19.1h-5.5l-7 19.1H122v2.9h8.4v-2.9h-2.8l1.4-4.1h7.5l1.5 4.1z"/><path class="st3" d="M143.1 42.7v28.9h27.5V42.7h16.6V118h-16.6V86.5h-27.5V118h-16.8V42.7h16.8zm74.8 56-5.3 19.3h-17.3l22.6-75.3h21.9l22.9 75.3h-18L239 98.7h-21.1zM236.6 86 232 70c-1.3-4.5-2.6-10.1-3.7-14.5h-.2c-1.1 4.5-2.2 10.2-3.4 14.5l-4.4 16h16.3zm34.8-42.3c5.4-.9 13.4-1.6 22.2-1.6 11 0 18.6 1.7 23.9 5.9 4.4 3.6 6.8 8.8 6.8 15.8 0 9.6-6.7 16.2-13 18.5v.3c5.1 2.1 8 7.2 9.9 14.1 2.3 8.5 4.6 18.3 6 21.2h-17.1c-1.2-2.1-3-8.3-5.1-17.5-2-9.4-5.1-12-11.9-12.1h-5V118h-16.5V43.7h-.2zM288 76.1h6.6c8.3 0 13.3-4.2 13.3-10.8 0-6.9-4.6-10.4-12.3-10.5-4.1 0-6.4.3-7.6.6v20.7zM349.5 57h-19.8V42.7h56.7V57h-20.2v61h-16.8l.1-61z"/><path class="st1" d="M141.2 158h-14.1v13.4h15.8v4h-20.5v-37.1H142v4h-15V154h14.1l.1 4zm7.6-19.7h4.7v33.1h15.6v4h-20.2v-37.1h-.1zM193 158h-14.1v13.4h15.8v4h-20.5v-37.1h19.7v4h-15V154H193v4zm38.3 1.1c-.3-5.2-.6-11.4-.5-16h-.2c-1.2 4.4-2.8 9-4.6 14.1l-6.4 18H216l-5.9-17.7c-1.7-5.2-3.2-10-4.2-14.4h-.1c-.1 4.6-.4 10.9-.7 16.4l-1 15.9h-4.5l2.5-37.1h6l6.2 18c1.5 4.6 2.8 8.7 3.7 12.5h.2c.9-3.7 2.2-7.8 3.8-12.5l6.5-18h6l2.3 37.1h-4.6l-.9-16.3zm31.5-1.1h-14.1v13.4h15.8v4H244v-37.1h19.7v4h-15V154h14.1v4zm7.6 17.4v-37.1h5.1l11.7 18.8c2.7 4.4 4.8 8.3 6.5 12.1l.1-.1c-.4-5-.5-9.5-.5-15.3v-15.5h4.4v37.1H293l-11.6-18.8c-2.5-4.1-5-8.4-6.8-12.4l-.2.1c.3 4.7.4 9.1.4 15.3v15.9h-4.4v-.1zm42.4-33h-11.1v-4.1h26.9v4.1h-11.1v33.1h-4.8v-33.1h.1zm25.7 21.3-3.8 11.7h-4.9l12.4-37.1h5.7l12.4 37.1h-5l-3.9-11.7h-12.9zm11.9-3.7-3.6-10.7c-.8-2.4-1.3-4.6-1.9-6.8h-.1c-.5 2.2-1.1 4.5-1.8 6.7l-3.6 10.7h11v.1zm15.1-21.2c2.4-.5 5.8-.8 9-.8 5 0 8.3.9 10.5 3 1.8 1.7 2.9 4.2 2.9 7.1 0 4.9-3 8.2-6.9 9.5v.2c2.8 1 4.5 3.6 5.3 7.5 1.2 5.2 2.1 8.8 2.8 10.2h-4.9c-.6-1-1.4-4.2-2.4-8.9-1.1-5.1-3-7.1-7.3-7.2h-4.4v16.1h-4.7v-36.7h.1zm4.7 16.9h4.8c5 0 8.2-2.8 8.2-7.1 0-4.8-3.4-6.9-8.4-6.9-2.3 0-3.9.2-4.6.4v13.6zm32.4 19.7v-15.8l-11.5-21.4h5.3l5.1 10.2c1.4 2.8 2.5 5.1 3.6 7.7h.1c1-2.4 2.3-4.8 3.7-7.7l5.2-10.2h5.3l-12.2 21.3v15.8l-4.6.1zm31.7-5.8c2.1 1.3 5.2 2.4 8.4 2.4 4.8 0 7.6-2.6 7.6-6.3 0-3.5-1.9-5.5-6.9-7.4-5.9-2.1-9.6-5.3-9.6-10.5 0-5.8 4.7-10.1 11.8-10.1 3.7 0 6.4.9 8 1.8l-1.3 3.9c-1.2-.7-3.6-1.8-6.9-1.8-5 0-6.9 3-6.9 5.6 0 3.5 2.2 5.2 7.2 7.2 6.2 2.4 9.3 5.5 9.3 10.9 0 5.7-4.2 10.7-12.7 10.7-3.5 0-7.3-1-9.3-2.4l1.3-4zm52.6 4.6c-1.7.9-5.2 1.8-9.6 1.8-10.3 0-18-6.6-18-18.8 0-11.6 7.7-19.5 19-19.5 4.5 0 7.4 1 8.6 1.7l-1.1 3.9c-1.8-.9-4.3-1.5-7.3-1.5-8.5 0-14.2 5.6-14.2 15.3 0 9.1 5.1 14.9 14 14.9 2.9 0 5.8-.6 7.7-1.5l.9 3.7zm10.4-35.9v15.5h17.6v-15.5h4.8v37.1h-4.8V158h-17.6v17.4h-4.7v-37.1h4.7zm61.5 18.2c0 12.8-7.6 19.6-16.9 19.6-9.6 0-16.4-7.6-16.4-18.8 0-11.8 7.2-19.5 16.9-19.5 10-.1 16.4 7.6 16.4 18.7zm-28.2.6c0 7.9 4.2 15 11.6 15 7.5 0 11.7-7 11.7-15.4 0-7.4-3.8-15.1-11.6-15.1s-11.7 7.3-11.7 15.5zm65.3-.6c0 12.8-7.6 19.6-16.9 19.6-9.6 0-16.4-7.6-16.4-18.8 0-11.8 7.2-19.5 16.9-19.5 10-.1 16.4 7.6 16.4 18.7zm-28.2.6c0 7.9 4.2 15 11.6 15 7.5 0 11.7-7 11.7-15.4 0-7.4-3.8-15.1-11.6-15.1s-11.7 7.3-11.7 15.5zm34.2-18.8h4.7v33.1h15.6v4H602l-.1-37.1z"/></g><g id="Mascot"><path class="st4" d="M51.6 96.5c-21.4 0-38.7-5.8-38.7-12.9 0-21.4 8.5-41.7 21.2-58.6 5-6.8 10.9-13.4 17.5-18.8C68.5 20.5 82.5 41.6 87.8 63c1.7 6.8 2.4 13.6 2.6 20.6-.1 7.1-17.4 12.9-38.8 12.9z"/><path d="M38.6 215.9c-3.5-4.2-5.4-9.8-7.1-14.9-1.7-5.1-2.9-9.5-4.3-14.8-3.2-12.5-5.8-25.1-8-37.8-2.4-13.7-4.2-27.5-5.4-41.3-.7-7.4-.8-11.7-1-19.1v-3.5h.2c.1.7 0 .4.3 1.1 2.1 4.7 10.6 7.3 15.1 8.4 8.6 2.1 18.3 2.9 27.1 2.5 7.4-.4 14.9-1.1 22.1-3.3 4-1.2 10.4-3.5 12.3-7.6.3-.6.4-1.2.4-1.8h.1c0 .3 0 .1-.1.6 0 8.4.1 4.1-.3 13-.6 10.1-1.6 20.3-2.9 30.3-2.2 16.8-5.1 33.4-9 50-1.8 7.9-3.9 15.7-6.5 23.4-1.5 4.6-3.7 11.2-7.1 14.9-6.5 6.4-19.4 6.4-25.9-.1z" fill="gray"/><path class="st3" d="M51.6 96.5c-6.6.1-13.2-.7-19.7-1.8l-.1-.1c-.3-.9-.6-1.8-.8-2.7-.1-.4-.1-1-.1-1.5 0-1.5 0-2.9.1-4.3.2-6.5.4-10.5 1.2-17 1.7-14.5 5.1-28.7 10.1-42.4C45 19.2 48.1 12 51.6 6.1c2.4 4.1 6.2 6.9 10 9.7C71 26.1 78.8 37.9 84 51c2.2 5.7 2.5 7.1 3.8 12 1.7 6.8 2.4 13.6 2.6 20.6-.4 4.8-6.2 7.3-10.1 8.7-5.4 2-11.4 3.1-17.1 3.7-2.5.2-5 .4-7.6.5h-4z"/><path d="M50.3 220.7c-2.1-1.3-4.2-2.6-5.5-4.8-1.8-4.2-2.9-9.8-3.7-14.9-.9-5.1-1.5-9.5-2.3-14.8-1.8-12.5-3.1-25.1-4.3-37.8-1.2-13.7-2.3-27.5-2.9-41.3-.2-3.9-.3-7.9-.4-11.8v-.1c3 .9 1.5.5 4.6 1.2 5.2 1 10.6 1.2 15.9 1.2h2.2c5-.1 10-.4 14.9-1.3 2.3-.4 1.1-.2 3.5-.8 3-.9 6-2.4 8.9-3.5 3.1-1.2 6.2-2.6 9.3-3.9.1 3.1-.2 6.2-.4 9.3-.6 10.1-1.6 20.3-2.9 30.3-2.2 16.8-5.1 33.4-9 50-1.8 7.9-3.9 15.7-6.5 23.4-1.5 4.6-3.7 11.2-7.1 14.9-2.1 2.1-4.7 3.4-7.6 4.2-1.2.3-2.4.4-3.5.6l-3.2-.1z" fill="#dcdbdc"/><path d="M78.5 92.9c-.7-19-5-37.8-12.3-55.5-3.8-9.3-8.4-18.1-13.9-26.6-.7-1.2-1.5-2.2-2.4-3.3l1.6-1.4C65.5 18.3 77 33.6 83.8 51c2.2 5.7 2.5 7.1 3.8 12 1.7 6.8 2.4 13.6 2.6 20.6-.4 4.9-6.1 7.1-10.1 8.7l-1.6.6z" fill="#6ac4ec"/><path class="st8" d="M63.1 217.2c2.4-10.7 1.2-5.5 3.2-15.6 3.8-20.6 6.8-41.6 9-62.6 1.3-12.6 2.4-25.3 2.9-38.1.1-2.6.2-5.3.3-7.9v-.1c4.3-1.4 9.1-3.2 11.3-7.3.3-.6.4-1.2.4-1.8h.1c0 .3 0 .1-.1.6 0 8.4.1 4.1-.3 13-.6 10.1-1.6 20.3-2.9 30.3-2.2 16.8-5.1 33.5-9 50-1.8 7.9-3.9 15.7-6.5 23.4-1.5 4.6-3.7 11.2-7.1 14.9l-1.2 1.1-.1.1z"/><path class="st9" d="m36.9 217.7-.1-.1c-3.2-3.8-4.9-7.8-7.5-15.8-1.6-5-2.9-9.3-4.3-14.9-3.1-11.8-5.7-24.3-8-38.1-2.5-14.5-4.3-28.2-5.4-41.5-.6-7.1-.8-11.3-1-19.2l-.1-6.3 4.9.1c.4 0 .2 2 .5 2.6 2 4 9.6 5.9 13.4 6.9 8.1 2.1 17.6 2.9 26.4 2.4 8.9-.4 15.4-1.3 21.5-3.2 5.7-1.8 9.5-3.7 10.7-6.2.1-.1 0-.1.1-.1 0-.1.1-.1.1-.7l.1-2.9 5.1.8.1 2.4c0 .1 0 .3-.1.5-.1 2.1 0 4.2-.1 6.3 0 .7-.2 5.1-.3 6.8-.5 9.6-1.5 19.6-2.9 30.6-2.3 17.3-5.3 34-9 50.2-2.1 8.7-4.1 16.4-6.5 23.6-2.6 8.1-4.6 12.5-7.6 15.8l-.1.1c-8 7.4-22.5 7.4-29.9-.1zm13.1.4h3.2c3.5-.4 7-1.4 9.5-4 3.2-3.2 5-9.6 6.5-13.9 2.4-7.1 4.3-14.5 6.4-23.1 3.7-16 6.8-32.5 9-49.7 1.4-10.8 2.4-20.7 2.9-30.1.1-1.8.1-3.7.3-5.6-2.8 1.9-6 2.9-9.3 4-6.5 2-13.4 2.9-22.7 3.4-9.3.4-19.2-.4-27.9-2.6-3.2-.8-6.2-1.8-8.9-3-2.1-1-1-.4-3.3-1.8.1 5.1.5 10.2 1 15.3 1.1 13.1 2.9 26.7 5.4 41.1 2.4 13.6 4.9 25.9 7.9 37.6 1.4 5.5 2.6 9.7 4.3 14.6 1.6 4.5 3.2 10.4 6.5 14 1.8 1.8 4 2.6 6.4 3.5l2.8.3z"/><path class="st9" d="M51.6 99.1c-22.8 0-41.3-6.2-41.3-15.5 0-20.7 7.9-41.6 21.7-60.1 5.7-7.6 11.7-14.2 18-19.3l1.7-1.4 1.6 1.4c17.7 15 31.7 36.7 37 58.2 1.7 6.8 2.5 13.8 2.6 21.2 0 9.3-18.5 15.5-41.3 15.5zm0-5.1c10.1 0 19.6-1.3 26.6-3.7 6.2-2.1 9.6-4.7 9.6-6.6-.1-7-.9-13.6-2.5-20-5.5-20.9-17.6-39.8-33.8-54.1-5.9 5-10.8 10.9-15.4 17-13.2 17.7-20.6 37.5-20.6 57 0 2 3.3 4.6 9.6 6.7C32 92.6 41.4 94 51.6 94z"/><path d="M55.7 144.9c-8.5 0-15.4-7.1-15.4-16 0-8.8 6.9-16 15.4-16s15.4 7.1 15.4 16-6.9 16-15.4 16z" fill="#548eca"/><path class="st4" d="M53.3 148.5c-10.8 0-19.4-8.9-19.4-19.6s8.5-19.6 19.4-19.6c10.8 0 19.4 8.9 19.4 19.6 0 10.7-8.6 19.6-19.4 19.6zm0-7.2c6.2 0 11.5-5.4 11.5-12.4 0-6.9-5.3-12.4-11.5-12.4s-11.5 5.4-11.5 12.4c.1 7 5.4 12.4 11.5 12.4z"/><path class="st3" d="M55.7 148.5c-10.8 0-19.4-8.9-19.4-19.6s8.5-19.6 19.4-19.6c10.8 0 19.4 8.9 19.4 19.6 0 10.7-8.5 19.6-19.4 19.6zm0-7.2c6.2 0 11.5-5.4 11.5-12.4 0-6.9-5.3-12.4-11.5-12.4s-11.5 5.4-11.5 12.4 5.3 12.4 11.5 12.4z"/><path class="st8" d="M54.3 138.2c1.1-.1 1.5 0 2.6-.4 2.9-1 5.1-3.4 5.9-6.1 1.2-4-.3-8.7-4.3-10.9-1.2-.7-2.8-1.1-4.3-1.1-.7 0-.7 0-1 .1 1.5.3 1.9.3 3.3 1 5.7 3.2 6.2 11.2 1.5 15.4-.9.7-1.9 1.3-3 1.7-.5.1-1.1.2-1.7.4h.1l.9-.1z"/><path class="st9" d="M55.7 114.7c-1 0-1.9-.8-1.9-1.8s.9-1.8 1.9-1.8 1.9.8 1.9 1.8c0 1.1-.8 1.8-1.9 1.8zm0 31.9c-1 0-1.9-.8-1.9-1.8s.9-1.8 1.9-1.8 1.9.8 1.9 1.8c0 .9-.8 1.8-1.9 1.8zm15.1-15.9c-1 0-1.9-.8-1.9-1.8s.9-1.8 1.9-1.8 1.9.8 1.9 1.8-.9 1.8-1.9 1.8zm-30.5 0c-1 0-1.9-.8-1.9-1.8s.9-1.8 1.9-1.8 1.9.8 1.9 1.8-.9 1.8-1.9 1.8zM67 120.5c-1 0-1.9-.8-1.9-1.8s.9-1.8 1.9-1.8 1.9.8 1.9 1.8-.8 1.8-1.9 1.8zm-22.6 0c-1 0-1.9-.8-1.9-1.8s.9-1.8 1.9-1.8 1.9.8 1.9 1.8-.8 1.8-1.9 1.8zM67 141.3c-1 0-1.9-.8-1.9-1.8s.9-1.8 1.9-1.8 1.9.8 1.9 1.8c0 1.1-.8 1.8-1.9 1.8zm-22.6 0c-1 0-1.9-.8-1.9-1.8s.9-1.8 1.9-1.8 1.9.8 1.9 1.8c0 1.1-.8 1.8-1.9 1.8zm6.1 87.3c-2.3-.2-3.9-.8-5.8-2.1-.3-.2-.5-.4-.7-.7-2.1-2.5-3.2-5.8-4.2-8.8v-.1l.2.2c1 .6 1.9 1.3 2.9 1.8 2.1 1 4.6 1.6 6.9 1.8 1.2.1 2.4 0 3.6 0 3-.5 4.1-.5 6.9-1.8 1-.5 2-1.2 2.9-1.8l.2-.2v.1c-.9 2.7-2.2 6.7-4.2 8.8-1.2 1.2-2.8 2.1-4.5 2.5-.7.1-1.4.2-2.1.4l-2.1-.1zm-25.9 18.8c-3.5.3-8.3-4.6-13.2-11.9-4.9-7.3-8.2-15-8.5-20.8-.3-6 3.2-13.4 9-20.5 5.2-6.5 10.7-11.2 14-10.7 3.4.4 6.2 5.9 9 14 2.8 8.2 3.7 14.3 1.4 17-1.5 1.6-2.9 2.3-5.4 2.9-2.1.5-2.8.8-3.7 1.6-.4.4-.9.9-1.3 1.5-.7 1-.6 4.3.4 9.7.1.8.4 1.6.6 2.6 1.2 5.7 1.3 6 1.5 7.7.1 1.3.1 2.4-.1 3.4-.5 1.9-1.7 3.3-3.7 3.5zm-3.1-8.8.2.2c-.3-1.5-.7-3-1-4.5-.2-1.1-.4-1.9-.6-2.8-1.5-7.2-1.6-11.5.5-14.5.7-1 1.5-1.8 2.3-2.6 1.8-1.6 3.2-2.2 6.2-2.9.7-.2 1.6-.4 2.2-.9v-.3c0-.7-.1-1.5-.2-2.7-.4-2.3-1.2-5.1-2.1-8.2-1-2.9-2.1-5.7-3.2-7.7-.6-1-.2-.4-1-1.8l-.1.1c-1.3 1-.7.5-1.8 1.3-2 1.7-4.2 4-6.2 6.5-4.8 6-7.8 12.2-7.6 16.4.2 4.5 3.2 11.2 7.5 17.7 2.1 3 1 1.4 3.6 4.8l1.3 1.9z"/><path class="st3" d="M25.3 186.6c-3.3-.4-20 16.7-19.4 28 .5 11.3 14.7 30.1 18.4 29.8s-5-20.1-1.2-25.6c3.9-5.4 8-3.2 10.7-6.3 2.8-3.1-5.1-25.5-8.5-25.9z"/><path class="st8" d="M22.2 239.3c-2.2-1.5-4.3-4-5.8-6.2-1.8-2.5-3.3-4.9-4.7-7.6-1.8-3.7-3.2-9.7-2.4-14 1-5.1 4.6-10 7.9-13.9 1-1.1 2.3-2.4 3.4-3.5 1-1 2.3-2.1 3.6-2.5-3.9 4.3-7.4 9.1-9.8 14.5-1.2 2.7-2.1 5.7-1.9 8.7.1 3 .7 7.7 1.8 10.5 1.5 3.7 2.6 5.8 4.8 9.4.7 1.2 1.6 2.5 2.4 3.7l.7.9z"/><path class="st9" d="M77.5 247.4c-2-.1-3.2-1.6-3.6-3.4-.2-1-.2-2.1 0-3.4.2-1.7.2-2 1.5-7.7.2-1 .4-1.9.6-2.6 1.1-5.4 1.2-8.7.4-9.7-.4-.6-.9-1.1-1.3-1.5-1-.8-1.6-1.1-3.7-1.6-2.6-.7-4-1.3-5.4-2.9-2.4-2.7-1.4-8.8 1.4-17 2.8-8.1 5.7-13.5 9-14 3.3-.4 8.8 4.2 14 10.7 5.7 7.1 9.3 14.5 9 20.5-.3 5.8-3.6 13.5-8.5 20.8-5.1 7.2-9.9 12.1-13.4 11.8zm3.1-9.4-.1.7c2-2.1 3.6-4.3 5.2-6.7 4.3-6.5 7.3-13.2 7.5-17.7.2-4.2-2.8-10.3-7.6-16.4-2.1-2.6-4.3-4.9-6.2-6.5-1-.8-.4-.4-1.8-1.3l-.1-.1c-.8 1.3-.4.7-1 1.8-1.1 2.1-2.2 4.8-3.2 7.7-1 3-1.8 5.9-2.1 8.2-.2 1.1-.3 2.1-.2 2.7v.3c.6.5 1.4.7 2.2.9 3 .8 4.3 1.3 6.2 2.9.8.7 1.6 1.5 2.3 2.6 2.1 3 2 7.3.5 14.5-.1.8-.4 1.7-.6 2.8-.3 1.5-.1.7-.5 2.6l-.5 1z"/><path class="st3" d="M76.8 186.6c3.3-.4 20 16.7 19.4 28s-14.7 30.1-18.4 29.8c-3.7-.3 5-20.1 1.2-25.6-3.9-5.4-8-3.2-10.7-6.3-2.8-3.1 5.2-25.5 8.5-25.9z"/><path class="st8" d="M80.5 239.3c2.2-1.5 4.3-4 5.8-6.2 1.8-2.5 3.3-4.9 4.7-7.6 1.8-3.7 3.2-9.7 2.4-14-1-5.1-4.6-10-7.9-13.9-1-1.1-2.3-2.4-3.4-3.5-1-1-2.3-2.1-3.6-2.5 3.9 4.3 7.4 9.1 9.8 14.5 1.2 2.7 2.1 5.7 1.9 8.7-.1 3-.7 7.7-1.8 10.5-1.5 3.7-2.6 5.8-4.8 9.4-.7 1.2-1.6 2.5-2.4 3.7l-.7.9z"/><path class="st9" d="M60.3 255.8c-1.6.1-2.6-.8-3.2-1.9-.2-.4-.4-.9-.5-1.5-.2-.8-.4-1.8-.6-3.2-.3-2.2-.5-5.1-.8-8.9-.1-1.8-.7-11.6-.8-12.2-.3-2.4-.6-3.1-1.2-4-.1-.1-.6-.8-.8-1-1.4-2-1.8-4.6-2.1-6.9-.4-2.9-.4-5.9-.4-8.8.1-3.2.4-6.3.8-8.6.3-1.3.6-2.5 1-3.4.7-1.5 1.8-2.6 3.5-2.8.8-.1 1-.1 2 .1 3.3 1 5.8 5.4 7.1 8.3 3 6.9 4 13.1 4.4 20.6.1 1 0 2.1 0 3-.1 5.9-.9 13-1.9 18.7-.5 3-1.2 5.6-1.8 7.5-.4 1.1-.8 2.1-1.2 2.7-.9 1.4-1.9 2.2-3.5 2.3zm1-17.5v.2c.7-4.6 1-9.3 1.2-14 .2-7.1-1.1-14.1-3.3-19.6-.7-1.6-1.4-3.2-2.5-4.7-.4 2.4-.6 4.9-.7 7.3-.1 2.9.1 5.8.4 8.1.1 1.2.3 2.1.5 2.9.1.6.1.3.3.8l-.1-.1c.4.4.7.9 1 1.3 1.3 1.8 1.9 3.5 2.4 6.8.2 2.7.4 5.5.6 8.2l.2 2.8z"/><path class="st3" d="M55.7 195.6c3.3-.4 10.4 12.4 9.9 28.9-.3 11.4-2.9 28-5.4 28.1-1.5.1-2.3-22.5-2.6-25-.6-4.1-1.4-4.8-2.6-6.5-2.8-2.9-2.6-25 .7-25.5z"/><path class="st8" d="M57.6 200.7c7.6 6.5 7.3 30.4 4.6 42.8 1.1-17.4.2-33.3-4.6-42.8z"/></g></svg>