<svg version="1.1" id="base" xmlns="http://www.w3.org/2000/svg" x="0" y="0" viewBox="0 0 1109.6 260" xml:space="preserve"><style>.st1{fill:#404041}.st6{fill:#fff}.st8{fill:#351955}.st9{opacity:.95}.st10,.st13{fill-rule:evenodd;clip-rule:evenodd;fill:#fff}.st13{fill:#351955}</style><g id="text"><path class="st1" d="M779.2 198.8v4h-3v1.6h3v9.5c0 2.5 1.3 4.1 3.8 4.1 2 0 3.5-1.1 4.4-4l-1.2-.5c-.6 1.8-1.4 2.7-2.5 2.7-1.3 0-1.9-.8-1.9-2.3v-9.4h4.9v-1.6h-4.9v-4.3l-2.6.2zM768.5 218c3.2 0 5.6-1.8 6.5-5.2h-1.4c-.8 2.2-2.3 3.4-4.4 3.4-3 0-4.8-2.3-4.8-6.1 0-3.9 1.9-6.3 4.7-6.3 1.7 0 2.8.7 3.3 1.5-.7.3-1.3 1-1.3 1.8 0 1 .7 1.8 1.8 1.8 1.2 0 1.9-1 1.9-2.3 0-1.9-2.4-4.2-5.7-4.2-4.5 0-7.5 3.3-7.5 8-.1 4.4 2.7 7.6 6.9 7.6m-17.1-.3h8.2V216h-2.8v-13.2h-5.4v1.7h2.8V216h-2.8v1.7zm4-18.4c1 0 1.8-.8 1.8-1.9 0-1.1-.8-1.9-1.8-1.9-1.1 0-1.9.8-1.9 1.9 0 1.2.8 1.9 1.9 1.9m-17.5 18.4h8V216H743v-8.1c.4-1.6 1.8-3.7 3.4-3.5-.1.2-.1.4-.1.6 0 1.1.8 1.7 1.8 1.7s1.8-.9 1.8-1.9c0-1.3-.9-2.3-2.4-2.3-1.7 0-3.6 1.2-4.5 3.7v-3.5h-5v1.7h2.5v11.5H738l-.1 1.8zm-9.5-18.9v4h-3v1.6h3v9.5c0 2.5 1.3 4.1 3.8 4.1 2 0 3.5-1.1 4.4-4l-1.2-.5c-.6 1.8-1.4 2.7-2.5 2.7-1.3 0-1.9-.8-1.9-2.3v-9.4h4.9v-1.6H731v-4.3l-2.6.2zM712.2 218h1.5l.4-2.1c1 1.3 2.6 2.1 4.7 2.1 3.2 0 5.2-2.3 5.2-4.6 0-2.5-1.5-3.5-5.2-4.5-2.7-.8-3.9-1.5-3.9-2.9s1.3-2.2 2.7-2.2c2.2 0 3.3 1.3 4.3 3.8h1.5v-5.1h-1.5l-.4 1.8c-.8-1.2-2.2-1.8-3.9-1.8-3 0-5 2-5 4.3s1.4 3.5 5.1 4.5c3 .8 4.1 1.5 4.1 3 0 1.4-1.1 2.3-2.9 2.3-2.4 0-4.2-1.7-5-4.3h-1.5v5.7h-.2zm-10.2-.3h8.2V216h-2.8v-13.2H702v1.7h2.8V216H702v1.7zm3.9-18.4c1 0 1.8-.8 1.8-1.9 0-1.1-.8-1.9-1.8-1.9-1.1 0-1.9.8-1.9 1.9 0 1.2.8 1.9 1.9 1.9m-21 16.6v-18.3h2.5c6.1 0 8.7 3.1 8.7 8.8 0 6.5-2.6 9.4-8.4 9.4h-2.8v.1zm-6.5 1.8h9.2c8.1 0 11.7-5 11.7-11.2 0-6.3-3.9-10.5-11.9-10.5h-9v1.7h3.7V216h-3.7v1.7zm-15.8 0h8.2V216H668v-21.1h-5.4v1.8h2.8V216h-2.8v1.7zm-9-1.2c-2.5 0-4.6-2-4.6-6.3s1.8-6.3 4.3-6.3 4.5 1.9 4.5 6.3c.1 4.3-1.7 6.3-4.2 6.3m-.1 1.5c4.1 0 7.2-3.2 7.2-7.9 0-4.6-3-7.6-7.2-7.6-4.1 0-7.2 3.2-7.2 7.9-.1 4.5 2.9 7.6 7.2 7.6m-16.9-1.5c-2.5 0-4.6-2-4.6-6.3s1.8-6.3 4.3-6.3 4.5 1.9 4.5 6.3c0 4.3-1.8 6.3-4.2 6.3m-.2 1.5c4.1 0 7.2-3.2 7.2-7.9 0-4.6-3-7.6-7.2-7.6-4.1 0-7.2 3.2-7.2 7.9 0 4.5 3 7.6 7.2 7.6m-26.2-.3h7.3V216h-2.3v-6.5c0-2.4 2.1-4.9 4.3-4.9.8 0 1.4.2 1.9.7.6.6.9 1.7.9 3.1v7.6H620v1.7h7.3V216h-2.5v-8.7c0-3.1-1.5-4.7-4.1-4.7-1.9 0-3.9 1-5.6 4v-11.7H610v1.8h2.5V216H610v1.7h.2zm-8.2.3c3.2 0 5.6-1.8 6.5-5.2H607c-.8 2.2-2.3 3.4-4.4 3.4-3 0-4.8-2.3-4.8-6.1 0-3.9 1.9-6.3 4.7-6.3 1.7 0 2.8.7 3.3 1.5-.7.3-1.3 1-1.3 1.8 0 1 .7 1.8 1.8 1.8 1.2 0 1.9-1 1.9-2.3 0-1.9-2.4-4.2-5.7-4.2-4.5 0-7.5 3.3-7.5 8 0 4.4 2.8 7.6 7 7.6m-25.5.1h1.6l.7-2.6c1.6 1.7 3.8 2.7 6.5 2.7 4.1 0 7-2.8 7-6.6 0-4.3-3.4-5.2-7.2-6.2-3.1-.8-5.7-1.5-5.7-4.6 0-2.4 1.7-3.8 3.9-3.8 2.5 0 4.8 1.5 6.5 5.7h1.5v-7.1h-1.6l-.7 2.3c-1.3-1.5-3.4-2.4-5.6-2.4-4.1 0-6.6 2.8-6.6 6.2 0 4.3 3.5 5.4 7 6.3 3.5.9 5.9 1.7 5.9 4.6 0 2.6-1.8 4-4.3 4-3.2 0-5.3-1.8-7.4-6.1h-1.5v7.6zm-16.1-19.3v4h-3v1.6h3v9.5c0 2.5 1.3 4.1 3.8 4.1 2 0 3.5-1.1 4.4-4l-1.2-.5c-.6 1.8-1.4 2.7-2.5 2.7-1.3 0-1.9-.8-1.9-2.3v-9.4h4.9v-1.6H563v-4.3l-2.6.2zm-20.9 18.9h7.3V216h-2.3v-6.5c0-2.4 2.1-4.9 4.3-4.9.8 0 1.4.2 1.9.7.6.6.9 1.7.9 3.1v7.6h-2.3v1.7h7.3V216h-2.5v-8.7c0-3.1-1.5-4.7-4.1-4.7-1.9 0-3.9 1-5.7 4.1v-3.9h-5v1.7h2.5V216h-2.5v1.7h.2zm-8.7-13.8c2.3 0 3.5 1.9 3.7 5h-7.8c.3-3.3 1.9-5 4.1-5m6.4 6.4c.1-4-1.8-7.9-6.2-7.9-4 0-7.1 3.4-7.1 7.9s2.7 7.6 7 7.6c3.1 0 5.3-1.6 6.2-4.7h-1.4c-.9 2.2-2.4 2.9-4.3 2.9-2.8 0-4.7-2-4.8-5.9l10.6.1zm-24.3 5.9c-2.2 0-3.9-2.2-3.9-6s1.5-6.1 4-6.1c2.4 0 4.1 2.3 4.1 5.8 0 3.8-1.9 6.3-4.2 6.3m-.9 1.7c2 0 3.9-1.2 5-3.5v3.3h4.9V216h-2.4v-21.1h-5.1v1.8h2.5v8.7c-.9-1.8-2.6-2.9-4.7-2.9-1.6 0-2.9.6-3.9 1.6-1.4 1.4-2.3 3.8-2.3 6.4 0 2.5.7 4.7 2.2 6.1 1 .8 2.3 1.3 3.8 1.3m-25-.2h7.3V216H492v-6.5c0-2.4 2.1-4.9 4.3-4.9.8 0 1.4.2 1.9.7.6.6.9 1.7.9 3.1v7.6h-2.3v1.7h7.3V216h-2.5v-8.7c0-3.1-1.5-4.7-4.1-4.7-1.9 0-3.9 1-5.7 4.1v-3.9h-5v1.7h2.5V216H487v1.7zm-8.7-13.8c2.3 0 3.5 1.9 3.7 5h-7.8c.3-3.3 1.9-5 4.1-5m6.4 6.4c.1-4-1.8-7.9-6.2-7.9-4 0-7.1 3.4-7.1 7.9s2.7 7.6 7 7.6c3.1 0 5.3-1.6 6.2-4.7h-1.4c-.9 2.2-2.4 2.9-4.3 2.9-2.8 0-4.7-2-4.8-5.9l10.6.1zm-31.8 12.4h8.3V221h-3.3v-6.3c.9 1.7 2.5 3.1 4.7 3.1 1.5 0 2.8-.6 3.8-1.6 1.4-1.4 2.2-3.7 2.2-6.2s-.7-4.6-2-6c-1-1-2.1-1.5-3.7-1.5-2.1 0-4 1.1-5.1 3.8v-3.5h-5v1.7h2.5V221h-2.5v1.7h.1zm9.1-6.8c-2.5 0-4.1-2.4-4.1-5.6 0-3.5 2-6.2 4.3-6.2 2 0 3.7 1.6 3.7 5.7-.1 4.1-1.6 6.1-3.9 6.1m-17.5-12c2.3 0 3.5 1.9 3.7 5h-7.8c.3-3.3 1.9-5 4.1-5m6.4 6.4c.1-4-1.8-7.9-6.2-7.9-4 0-7.1 3.4-7.1 7.9s2.7 7.6 7 7.6c3.1 0 5.3-1.6 6.2-4.7h-1.4c-.9 2.2-2.4 2.9-4.3 2.9-2.8 0-4.7-2-4.8-5.9l10.6.1zm-24.3 5.9c-2.2 0-3.9-2.2-3.9-6s1.5-6.1 4-6.1 4.1 2.3 4.1 5.8c0 3.8-1.9 6.3-4.2 6.3m-.9 1.7c2 0 3.9-1.2 5-3.5v3.3h4.9V216h-2.4v-21.1h-5.1v1.8h2.5v8.7c-.9-1.8-2.6-2.9-4.7-2.9-1.6 0-2.9.6-3.9 1.6-1.4 1.4-2.3 3.8-2.3 6.4 0 2.5.7 4.7 2.2 6.1 1.1.8 2.3 1.3 3.8 1.3m-25-.2h7.3V216h-2.3v-6.5c0-2.4 2.1-4.9 4.3-4.9.8 0 1.4.2 1.9.7.6.6.9 1.7.9 3.1v7.6h-2.3v1.7h7.3V216h-2.5v-8.7c0-3.1-1.5-4.7-4.1-4.7-1.9 0-3.9 1-5.7 4.1v-3.9h-5v1.7h2.5V216h-2.5v1.7h.2zm-12.6 0h10.2V216h-3.7v-18.3h3.7V196h-10.2v1.7h3.7V216h-3.7v1.7zm-16 .3h5.5v-19.3h2.9v-2.9h-8.8v2.9h3v12.4h-.3l-9.3-15.3h-9.3v2.9h2.9v16.1h-2.9v2.9h8.8v-2.9h-3V201h.3l10.2 17zm-30.1-.3h11.5v-2.9h-3.1v-16.1h3.1v-2.9H342v2.9h3.1v16.1H342v2.9zm-19.1 0h12.3v-2.9h-3.4v-16.5h.8c2.7 0 3.3.9 4.5 6.3h2.6v-8.8h-21.3v8.8h2.6c1.2-5.4 1.8-6.3 4.5-6.3h.8v16.5h-3.4v2.9zm-24 .4h2.9l.8-2.6c1.2 1.5 3.6 2.7 6.4 2.7 4.8 0 8-3 8-7.1 0-4.8-3.9-5.9-7.5-6.8-3.3-.8-5.7-1.3-5.7-3.5 0-1.5 1.2-2.8 3.4-2.8 2.8 0 4.5 1.5 5.9 5.1h2.9v-7.8h-2.9l-.7 2.4c-1.1-1.5-3.2-2.4-5.6-2.4-4.3 0-7.7 2.9-7.7 6.9 0 4.9 4.1 6.1 7.6 7 3.3.8 5.6 1.3 5.6 3.4 0 1.7-1.3 2.9-3.7 2.9-3.5 0-5.4-1.7-6.8-5.4h-2.9v8zm-13.6.1c6.2 0 8.9-3.8 8.9-8.2v-11.3h2.7v-2.9h-8.7v2.9h2.9v10c0 2.4-.4 3.9-1.4 4.9-.9.9-2 1.3-3.5 1.3-3.3 0-5.1-1.4-5.1-5.5v-10.7h3.1v-2.9h-11.3v2.9h2.8v11.5c.1 4.9 3.2 8 9.6 8m-25.4-18.3h.1l2.8 8.2H257l2.9-8.2zm5.1 14.9h-3v2.9h11.5v-2.9h-2.6l-7-19.1h-5.5l-7 19.1H249v2.9h8.4v-2.9h-2.8l1.4-4.1h7.5l1.5 4.1z"/><path d="M315 114.6c-5.1 1.8-14.9 4.2-24.6 4.2-13.5 0-23.2-3.5-30-10.2-6.8-6.5-10.5-16.3-10.4-27.4.1-25 18-39.3 42.2-39.3 9.5 0 16.9 1.9 20.5 3.7l-3.5 13.6C305 57.5 300 56 291.9 56c-13.9 0-24.4 8-24.4 24.4 0 15.5 9.5 24.7 23.2 24.7 3.8 0 6.9-.4 8.2-1.1V88.2h-11.4V74.9H315v39.7zm28.6-71.9v43.4c0 13 4.8 19.6 13.4 19.6 8.8 0 13.6-6.3 13.6-19.6V42.7h16.6v42.2c0 23.2-11.5 34.3-30.8 34.3-18.6 0-29.6-10.5-29.6-34.5v-42h16.8zm57.4 57.8c4.5 2.3 11.4 4.7 18.5 4.7 7.7 0 11.7-3.2 11.7-8.2 0-4.7-3.5-7.4-12.4-10.6-12.3-4.4-20.3-11.3-20.3-22.2 0-12.9 10.5-22.7 27.9-22.7 8.3 0 14.5 1.8 18.8 3.8L441.7 59c-3-1.5-8.2-3.6-15.4-3.6-7.2 0-10.7 3.4-10.7 7.3 0 4.8 4.2 6.9 13.7 10.6 13 4.9 19.2 11.8 19.2 22.5 0 12.6-9.5 23.4-29.8 23.4-8.4 0-16.8-2.2-20.9-4.6l3.2-14.1zm140.2 14.1c-5.1 1.8-14.9 4.2-24.6 4.2-13.5 0-23.2-3.5-30-10.2-6.8-6.5-10.5-16.3-10.4-27.4.1-25 18-39.3 42.2-39.3 9.5 0 16.9 1.9 20.5 3.7l-3.5 13.6c-4.1-1.8-9.1-3.2-17.2-3.2-13.9 0-24.4 8-24.4 24.4 0 15.5 9.5 24.7 23.2 24.7 3.8 0 6.9-.4 8.2-1.1V88.2h-11.4V74.9h27.5l-.1 39.7zm29.1-15.9L565 118h-17.3l22.6-75.3h21.9l22.9 75.3h-18l-5.7-19.3h-21.1zM589.1 86l-4.6-16c-1.3-4.5-2.6-10.1-3.7-14.5h-.2c-1.1 4.5-2.2 10.2-3.4 14.5l-4.4 16h16.3zm34.8-42.3c5.4-.9 13.4-1.6 22.2-1.6 11 0 18.6 1.7 23.9 5.9 4.4 3.6 6.8 8.8 6.8 15.8 0 9.6-6.7 16.2-13 18.5v.3c5.1 2.1 8 7.2 9.9 14.1 2.3 8.5 4.6 18.3 6 21.2h-17.1c-1.2-2.1-3-8.3-5.1-17.5-2-9.4-5.1-12-11.9-12.1h-5V118h-16.5V43.7h-.2zm16.5 32.4h6.6c8.3 0 13.3-4.2 13.3-10.8 0-6.9-4.6-10.4-12.3-10.5-4.1 0-6.4.3-7.6.6v20.7zm101.5 39.8c-3.1 1.6-10 3.2-18.9 3.2-25.5 0-38.7-16.2-38.7-37.7 0-25.7 18-40 40.3-40 8.7 0 15.2 1.8 18.2 3.4l-3.4 13.5c-3.4-1.5-8.1-2.8-14-2.8-13.3 0-23.5 8.2-23.5 24.9 0 15.1 8.8 24.6 23.7 24.6 5 0 10.6-1.1 13.9-2.5l2.4 13.4zm26.6-73.2V118h-16.8V42.7h16.8zm30.6 56-5.3 19.3h-17.3l22.6-75.3H821l22.9 75.3h-18l-5.7-19.3h-21.1zM817.8 86l-4.6-16c-1.3-4.5-2.6-10.1-3.7-14.5h-.2c-1.1 4.5-2.2 10.2-3.4 14.5l-4.4 16h16.3z" fill="#3a2a5c"/><path class="st1" d="M257.5 175.4v-15.8L246 138.3h5.3l5.1 10.2c1.4 2.8 2.5 5.1 3.6 7.7h.1c1-2.4 2.3-4.8 3.7-7.7l5.2-10.2h5.3l-12.2 21.3v15.8h-4.6zm52.1-18.9c0 12.8-7.6 19.6-16.9 19.6-9.6 0-16.4-7.6-16.4-18.8 0-11.8 7.2-19.5 16.9-19.5 9.9-.1 16.4 7.6 16.4 18.7zm-28.3.6c0 7.9 4.2 15 11.6 15 7.5 0 11.7-7 11.7-15.4 0-7.4-3.8-15.1-11.6-15.1s-11.7 7.3-11.7 15.5zm39-18.8v22c0 8.3 3.6 11.8 8.5 11.8 5.4 0 8.9-3.6 8.9-11.8v-22h4.8V160c0 11.4-5.9 16.1-13.8 16.1-7.5 0-13.1-4.4-13.1-15.9v-21.9h4.7zm30.1 37.1v-37.1h5.1l11.7 18.8c2.7 4.4 4.8 8.3 6.5 12.1l.1-.1c-.4-5-.5-9.5-.5-15.3v-15.5h4.4v37.1H373l-11.6-18.8c-2.5-4.1-5-8.4-6.8-12.4l-.2.1c.3 4.7.4 9.1.4 15.3v15.9h-4.4v-.1zm63.1-1.6c-2.1.8-6.3 2-11.2 2-5.5 0-10-1.4-13.6-4.9-3.1-3.1-5.1-8-5.1-13.8.1-11.1 7.5-19.2 19.7-19.2 4.2 0 7.5.9 9.1 1.7l-1.1 3.9c-1.9-.9-4.4-1.6-8-1.6-8.9 0-14.6 5.6-14.6 14.9 0 9.4 5.6 15 14 15 3.1 0 5.2-.4 6.3-1v-11.1h-7.4v-3.9h12l-.1 18zm49.1-14.7c-.3-5.2-.6-11.4-.5-16h-.2c-1.2 4.4-2.8 9-4.6 14.1l-6.4 18h-3.6l-5.9-17.7c-1.7-5.2-3.2-10-4.2-14.4h-.1c-.1 4.6-.4 10.9-.7 16.4l-1 15.9H431l2.5-37.1h6l6.2 18c1.5 4.6 2.8 8.7 3.7 12.5h.2c.9-3.7 2.2-7.8 3.8-12.5l6.5-18h6l2.3 37.1h-4.6l-1-16.3zm31.5-1.1H480v13.4h15.8v4h-20.5v-37.1H495v4h-15V154h14.1v4zm7.6 17.4v-37.1h5.1l11.7 18.8c2.7 4.4 4.8 8.3 6.5 12.1l.1-.1c-.4-5-.5-9.5-.5-15.3v-15.5h4.4v37.1h-4.8l-11.6-18.8c-2.5-4.1-5-8.4-6.8-12.4l-.2.1c.3 4.7.4 9.1.4 15.3v15.9h-4.3v-.1zm41.3-37.7c-1.2 4.6-3.6 10.5-5.1 13.1l-3 .4c1.2-3.3 2.6-9 3.2-12.9l4.9-.6zm4.5 31.9c2.1 1.3 5.2 2.4 8.4 2.4 4.8 0 7.6-2.6 7.6-6.3 0-3.5-1.9-5.5-6.9-7.4-5.9-2.1-9.6-5.3-9.6-10.5 0-5.8 4.7-10.1 11.8-10.1 3.7 0 6.4.9 8 1.8l-1.3 3.9c-1.2-.7-3.6-1.8-6.9-1.8-5 0-6.9 3-6.9 5.6 0 3.5 2.2 5.2 7.2 7.2 6.2 2.4 9.3 5.5 9.3 10.9 0 5.7-4.2 10.7-12.7 10.7-3.5 0-7.3-1-9.3-2.4l1.3-4zm38.5-31.3h4.7v33.1h15.6v4H586v-37.1zm44.3 19.7h-14.1v13.4H632v4h-20.5v-37.1h19.7v4h-15V154h14.1v4zm13.5 5.7-3.8 11.7h-4.9l12.4-37.1h5.7l12.4 37.1h-5l-3.9-11.7h-12.9zm11.9-3.7-3.6-10.7c-.8-2.4-1.3-4.6-1.9-6.8h-.1c-.5 2.2-1.1 4.5-1.8 6.7l-3.6 10.7h11v.1zm15.1-21.2c2.9-.4 6.3-.8 10-.8 6.8 0 11.6 1.6 14.7 4.6 3.2 3 5.1 7.3 5.1 13.3 0 6.1-1.8 11-5.2 14.4-3.4 3.5-9 5.3-16.1 5.3-3.3 0-6.2-.2-8.5-.4v-36.4zm4.7 32.8c1.2.2 2.9.3 4.8.3 10 0 15.5-5.7 15.5-15.8.1-8.8-4.8-14.3-14.7-14.3-2.4 0-4.3.2-5.5.5l-.1 29.3zm50-13.6h-14.1v13.4h15.8v4h-20.5v-37.1h19.7v4h-15V154h14.1v4zm7.6-19.2c2.4-.5 5.8-.8 9-.8 5 0 8.3.9 10.5 3 1.8 1.7 2.9 4.2 2.9 7.1 0 4.9-3 8.2-6.9 9.5v.2c2.8 1 4.5 3.6 5.3 7.5 1.2 5.2 2.1 8.8 2.8 10.2H752c-.6-1-1.4-4.2-2.4-8.9-1.1-5.1-3-7.1-7.3-7.2h-4.4v16.1h-4.7l-.1-36.7zm4.7 16.9h4.8c5 0 8.2-2.8 8.2-7.1 0-4.8-3.4-6.9-8.4-6.9-2.3 0-3.9.2-4.6.4v13.6zm23.6 13.9c2.1 1.3 5.2 2.4 8.4 2.4 4.8 0 7.6-2.6 7.6-6.3 0-3.5-1.9-5.5-6.9-7.4-5.9-2.1-9.6-5.3-9.6-10.5 0-5.8 4.7-10.1 11.8-10.1 3.7 0 6.4.9 8 1.8l-1.3 3.9c-1.2-.7-3.6-1.8-6.9-1.8-5 0-6.9 3-6.9 5.6 0 3.5 2.2 5.2 7.2 7.2 6.2 2.4 9.3 5.5 9.3 10.9 0 5.7-4.2 10.7-12.7 10.7-3.5 0-7.3-1-9.3-2.4l1.3-4zm31.9-31.3v15.5h17.6v-15.5h4.8v37.1h-4.8V158h-17.6v17.4h-4.7v-37.1h4.7zm35.1 0v37.1h-4.7v-37.1h4.7zm8.1.4c2.3-.4 5.2-.7 9-.7 4.6 0 8 1.1 10.2 3.1 2 1.8 3.2 4.5 3.2 7.8 0 3.4-1 6-2.8 7.9-2.5 2.7-6.5 4.1-11.1 4.1-1.4 0-2.7-.1-3.8-.3v14.9h-4.7v-36.8zm4.7 17.9c1 .3 2.3.4 3.9.4 5.7 0 9.1-2.8 9.1-7.9 0-4.9-3.4-7.3-8.6-7.3-2.1 0-3.6.2-4.4.4v14.4zm41.1 7.1-3.8 11.7h-4.9l12.4-37.1h5.7l12.4 37.1h-5l-3.9-11.7h-12.9zm12-3.7-3.6-10.7c-.8-2.4-1.3-4.6-1.9-6.8h-.1c-.5 2.2-1.1 4.5-1.8 6.7l-3.6 10.7h11v.1zm40.5 14.2c-1.7.9-5.2 1.8-9.6 1.8-10.3 0-18-6.6-18-18.8 0-11.6 7.7-19.5 19-19.5 4.5 0 7.4 1 8.6 1.7l-1.1 3.9c-1.8-.9-4.3-1.5-7.3-1.5-8.5 0-14.2 5.6-14.2 15.3 0 9.1 5.1 14.9 14 14.9 2.9 0 5.8-.6 7.7-1.5l.9 3.7zm11.7-10.5-3.8 11.7h-4.9l12.4-37.1h5.7l12.4 37.1h-5l-3.9-11.7h-12.9zm11.9-3.7-3.6-10.7c-.8-2.4-1.3-4.6-1.9-6.8h-.1c-.5 2.2-1.1 4.5-1.8 6.7l-3.6 10.7h11v.1zm15.1-21.2c2.9-.4 6.3-.8 10-.8 6.8 0 11.6 1.6 14.7 4.6 3.2 3 5.1 7.3 5.1 13.3 0 6.1-1.8 11-5.2 14.4-3.4 3.5-9 5.3-16.1 5.3-3.3 0-6.2-.2-8.5-.4v-36.4zm4.7 32.8c1.2.2 2.9.3 4.8.3 10 0 15.5-5.7 15.5-15.8.1-8.8-4.8-14.3-14.7-14.3-2.4 0-4.3.2-5.5.5l-.1 29.3zm50-13.6h-14.1v13.4h15.8v4h-20.5v-37.1h19.7v4h-15V154h14.1v4zm38.3 1.1c-.3-5.2-.6-11.4-.5-16h-.2c-1.2 4.4-2.8 9-4.6 14.1l-6.4 18h-3.6l-5.9-17.7c-1.7-5.2-3.2-10-4.2-14.4h-.1c-.1 4.6-.4 10.9-.7 16.4l-1 15.9h-4.5l2.5-37.1h6l6.2 18c1.5 4.6 2.8 8.7 3.7 12.5h.2c.9-3.7 2.2-7.8 3.8-12.5l6.5-18h6l2.3 37.1h-4.6l-.9-16.3zm20.8 16.3v-15.8l-11.5-21.4h5.3l5.1 10.2c1.4 2.8 2.5 5.1 3.6 7.7h.1c1-2.4 2.3-4.8 3.7-7.7l5.2-10.2h5.3l-12.2 21.3v15.8l-4.6.1z"/></g><path d="M65.9 18.7c-.5.3-1.6.9-3 1.2-1.5.3-2.8.3-4-.3-1-.6-1.9-1.7-2.2-3.1-.7-2.7 1-5.3 4.5-6.1 1.2-.3 2.2-.3 2.7-.1-.1.4-.1.6-.1 1-.6-.1-1.4-.2-2.4.1-2.5.5-3.9 2.3-3.3 4.7.5 2.3 2.4 3.3 4.7 2.9.9-.2 1.4-.4 1.7-.6-.3-1.1-.3-1.6-.6-2.7-.9.2-1.2.3-2.1.4-.1-.4-.1-.6-.2-.9 1.4-.3 2.1-.4 3.3-.7.5 1.4.6 2.4 1 4.2zm6-10.4c.3 2.2.6 3.3.9 5.6.3 2.1 1.5 2.8 2.9 2.6 1.5-.3 2.3-1.3 2-3.4-.3-2.2-.5-3.3-.9-5.6.5-.1.9-.1 1.4-.2.3 2.2.5 3.3.8 5.5.4 2.9-1 4.3-3.3 4.7-2.1.3-3.9-.5-4.4-3.4-.4-2.2-.6-3.3-.9-5.6.6-.1.9-.1 1.5-.2zm13.8 6.1c.6.3 1.5.4 2.4.3 1.4-.2 2.1-.9 2-1.9-.1-.9-.7-1.4-2.1-1.7-1.7-.3-2.9-1-3.1-2.4-.2-1.5 1-2.7 3.1-3 1.1-.1 1.9 0 2.4.3-.1.4-.2.6-.3 1-.3-.2-1.1-.3-2.1-.3-1.5.2-1.9 1-1.8 1.6.1.9.8 1.3 2.3 1.6 1.8.4 2.7 1.1 2.9 2.5.2 1.5-.9 2.8-3.3 3.1-.9.1-2.1 0-2.7-.3.2-.2.2-.4.3-.8zm27.3-.8c-.6.2-1.7.5-3.1.6-1.5 0-2.8-.3-3.9-1.1-.9-.8-1.5-2-1.5-3.5-.1-2.8 2-5.1 5.5-5.1 1.2 0 2.2.2 2.7.4-.1.4-.2.6-.3 1-.6-.3-1.3-.4-2.3-.3-2.6.1-4.2 1.5-4.1 3.9.1 2.4 1.7 3.8 4.1 3.7.9 0 1.5-.2 1.7-.3 0-1.1 0-1.7-.1-2.8h-2.1v-1c1.4 0 2.1-.1 3.4-.1-.1 1.9-.1 2.8 0 4.6zm7.9-2.5c-.4 1.2-.7 1.8-1.1 3h-1.4c1.5-3.8 2.1-5.7 3.7-9.4.7 0 1 0 1.6.1 1.3 3.9 2 5.8 3.2 9.7-.6 0-.9 0-1.4-.1-.4-1.2-.6-1.8-.9-3-1.5-.3-2.2-.3-3.7-.3zm3.4-.8c-.3-1.1-.5-1.6-.9-2.7-.2-.6-.3-1.2-.5-1.7-.2.6-.3 1.1-.6 1.7-.4 1.1-.7 1.6-1.1 2.7 1.3-.1 1.9-.1 3.1 0zm9-5c.7-.1 1.7-.1 2.7 0 1.5.1 2.4.4 3 1 .5.5.7 1.1.7 1.9-.1 1.3-1 2-2.1 2.2.8.3 1.2 1 1.4 2.1.2 1.4.3 2.3.5 2.7-.5-.1-.8-.1-1.4-.1-.2-.3-.3-1.1-.5-2.3-.2-1.4-.7-1.9-1.9-2.1-.5 0-.8-.1-1.3-.1-.1 1.6-.2 2.5-.3 4.1-.5 0-.8-.1-1.3-.1.2-3.7.2-5.6.5-9.3zm1.1 4.4c.5 0 .9.1 1.4.1 1.5.1 2.4-.5 2.5-1.6.1-1.2-.9-1.9-2.2-2-.7-.1-1.1 0-1.4 0-.2 1.4-.2 2.1-.3 3.5zm17.8 6.7c-.5.2-1.5.3-2.7.1-2.8-.4-4.8-2.3-4.5-5.4.3-3 2.8-4.7 6.1-4.3 1.3.2 2.1.6 2.4.8-.2.3-.3.6-.5.9-.5-.3-1.2-.6-2.1-.7-2.5-.3-4.3.9-4.5 3.3-.3 2.3.9 3.9 3.4 4.3.8.1 1.6.1 2.2-.1.1.5.2.8.2 1.1zm8.8-7.9c-.7 3.8-1 5.7-1.7 9.4-.5-.1-.8-.2-1.3-.3.7-3.8.9-5.7 1.6-9.4.5.2.8.2 1.4.3zm7 8.1c-.7 1.1-1 1.6-1.6 2.7-.5-.1-.8-.2-1.4-.3 2.1-3.4 3.2-5.1 5.4-8.6.7.2.9.2 1.6.3.6 4 .9 6.1 1.3 10.1-.5-.2-.9-.2-1.4-.3-.2-1.3-.3-1.9-.4-3.2-1.3-.3-2.1-.4-3.5-.7zm3.6-.3c-.2-1.2-.3-1.7-.4-2.9-.1-.7-.1-1.3-.2-1.8l-.9 1.5c-.6 1-.9 1.5-1.6 2.5 1.2.4 1.8.5 3.1.7zm55.2 134.3H3.8L9.3 139l-5.5-11.5h223l-5.6 11.5z" fill="#350457"/><path d="M227.9 151.3H2.7L8.6 139l-5.9-12.3H228l-5.9 12.3 5.8 12.3zm-223-1.4h220.9l-5.2-10.8 5.2-10.8H4.9l5.2 10.8-5.2 10.8z" fill="#f1f1f2"/><path class="st6" d="M34.1 142.4V140l-1.8-3.3h.9l.8 1.5c.3.4.3.8.6 1.2.2-.3.3-.8.6-1.2l.8-1.5h.9L35 140v2.4h-.9zm8.9-3c0 2-1.2 3-2.7 3-1.5 0-2.6-1.1-2.6-2.8 0-1.8 1.1-3 2.7-3 1.5 0 2.6 1.1 2.6 2.8zm-4.4.1c0 1.2.7 2.3 1.8 2.3s1.8-1 1.8-2.3c0-1.1-.6-2.3-1.8-2.3s-1.8 1.1-1.8 2.3zm7.1-2.8v3.3c0 1.3.6 1.8 1.3 1.8.9 0 1.4-.5 1.4-1.8v-3.3h.8v3.3c0 1.7-.9 2.5-2.1 2.5-1.1 0-2.1-.7-2.1-2.4v-3.3h.7zm5.8 5.7v-5.7h.8l1.8 2.8c.4.7.8 1.3 1 1.8-.1-.8-.1-1.5-.1-2.3v-2.4h.7v5.7h-.8l-1.8-2.8c-.4-.6-.8-1.3-1-1.9 0 .7.1 1.4.1 2.3v2.4l-.7.1zm10.8-.3c-.3.1-.9.3-1.7.3-.9 0-1.5-.3-2.1-.8-.5-.4-.8-1.2-.8-2.1 0-1.7 1.2-2.9 3.1-2.9.7 0 1.2.2 1.4.3l-.2.6c-.3-.2-.7-.3-1.3-.3-1.4 0-2.2.9-2.2 2.2 0 1.5.9 2.3 2.1 2.3.5 0 .8-.1.9-.2v-1.7h-1.1v-.6h1.9v2.9zm9.7-2.2c0-.8-.1-1.7-.1-2.4-.2.7-.4 1.4-.7 2.1l-1 2.7h-.5l-.9-2.7c-.3-.8-.5-1.5-.7-2.2 0 .7-.1 1.6-.1 2.5l-.2 2.4h-.7l.4-5.7h.9l.9 2.7c.3.7.4 1.3.6 1.9.2-.6.3-1.2.6-1.9l1-2.7h.9l.3 5.7h-.8l.1-2.4zm6.1-.2h-2.2v2.1h2.5v.6h-3.2v-5.7h3.1v.6H76v1.8h2.2l-.1.6zm2.2 2.7v-5.7h.8l1.8 2.8c.4.7.8 1.3 1 1.8-.1-.8-.1-1.5-.1-2.3v-2.4h.7v5.7h-.8l-1.8-2.8c-.4-.6-.8-1.3-1-1.9 0 .7.1 1.4.1 2.3v2.4l-.7.1zm7.4-5.8c-.2.7-.5 1.6-.8 2l-.4.1c.2-.5.4-1.4.5-2l.7-.1zm1.8 4.8c.3.2.8.3 1.3.3.8 0 1.2-.4 1.2-.9s-.3-.9-1-1.1c-.9-.3-1.5-.8-1.5-1.6s.8-1.5 1.8-1.5c.6 0 1 .2 1.3.3l-.2.6c-.2-.1-.6-.3-1.1-.3-.8 0-1 .4-1 .9s.3.8 1.1 1.1c.9.3 1.5.9 1.5 1.6 0 .9-.7 1.6-2 1.6-.5 0-1.1-.2-1.5-.3l.1-.7zm8-4.7h.8v5.1h2.4v.6h-3.2v-5.7zm8 3h-2.2v2.1h2.5v.6h-3.2v-5.7h3.1v.6h-2.3v1.8h2.2l-.1.6zm3.2.9-.6 1.8h-.8l1.9-5.7h.9l1.9 5.7h-.8l-.6-1.8h-1.9zm1.8-.6-.5-1.6c-.1-.3-.2-.7-.3-1-.1.3-.2.7-.3 1l-.5 1.6h1.6zm3.4-3.2c.4-.1.9-.1 1.5-.1 1 0 1.8.3 2.3.7.5.4.8 1.1.8 2.1 0 .9-.3 1.7-.8 2.2-.5.5-1.4.8-2.5.8-.5 0-.9 0-1.3-.1v-5.6zm.7 5h.8c1.5 0 2.4-.9 2.4-2.4 0-1.4-.8-2.1-2.3-2.1-.3 0-.7 0-.9.1v4.4zm8.8-2.1h-2.2v2.1h2.5v.6h-3.2v-5.7h3.1v.6h-2.3v1.8h2.2l-.1.6zm2.3-2.9c.3-.1.9-.1 1.4-.1.8 0 1.3.2 1.6.4.3.3.4.6.4 1.1 0 .8-.4 1.2-1 1.5.4.2.7.5.9 1.1.2.8.3 1.4.4 1.5h-.8c-.1-.2-.3-.7-.3-1.4-.2-.8-.4-1.1-1.1-1.1h-.7v2.5h-.8v-5.5zm.7 2.6h.8c.8 0 1.3-.4 1.3-1.1 0-.8-.5-1-1.3-1-.3 0-.6 0-.7.1l-.1 2zm4.8 2c.3.2.8.3 1.3.3.8 0 1.2-.4 1.2-.9s-.3-.9-1-1.1c-.9-.3-1.5-.8-1.5-1.6s.8-1.5 1.8-1.5c.6 0 1 .2 1.3.3l-.2.6c-.2-.1-.6-.3-1.1-.3-.8 0-1 .4-1 .9s.3.8 1.1 1.1c.9.3 1.5.9 1.5 1.6 0 .9-.7 1.6-2 1.6-.5 0-1.1-.2-1.5-.3l.1-.7zm6-4.7v2.4h2.7v-2.4h.8v5.7h-.7v-2.7h-2.7v2.7h-.8v-5.7h.7zm6.6 0v5.7h-.8v-5.7h.8zm2.3.1c.3-.1.8-.1 1.4-.1.7 0 1.3.2 1.5.4.3.3.5.7.5 1.2s-.2.9-.4 1.2c-.3.4-1 .6-1.7.6-.3 0-.4 0-.6-.1v2.2h-.8l.1-5.4zm.7 2.6c.2 0 .3.1.6.1.9 0 1.5-.4 1.5-1.2s-.5-1.1-1.4-1.1c-.3 0-.6 0-.7.1v2.1zm8.5 1.2-.6 1.8h-.7l1.9-5.7h.9l1.9 5.7h-.8l-.6-1.8h-2zm1.8-.6-.5-1.6c-.1-.3-.2-.7-.3-1-.1.3-.2.7-.3 1l-.5 1.6h1.6zm7.3 2.1c-.3.2-.8.3-1.5.3-1.6 0-2.8-1-2.8-2.8 0-1.8 1.2-3 2.9-3 .7 0 1.1.2 1.4.3l-.2.6c-.3-.2-.7-.3-1.1-.3-1.3 0-2.2.9-2.2 2.3s.8 2.2 2.1 2.2c.4 0 .9-.1 1.2-.3l.2.7zm3-1.5-.6 1.8h-.8l1.9-5.7h.9l1.9 5.7h-.8l-.6-1.8h-1.9zm1.8-.6-.5-1.6c-.1-.3-.2-.7-.3-1-.1.3-.2.7-.3 1l-.5 1.6h1.6zm3.4-3.2c.4-.1.9-.1 1.5-.1 1 0 1.8.3 2.3.7.5.4.8 1.1.8 2.1 0 .9-.3 1.7-.8 2.2s-1.4.8-2.5.8c-.5 0-.9 0-1.3-.1v-5.6zm.7 5h.8c1.5 0 2.4-.9 2.4-2.4 0-1.4-.8-2.1-2.3-2.1-.3 0-.7 0-.9.1v4.4zm8.8-2.1h-2.2v2.1h2.5v.6h-3.2v-5.7h3.1v.6H180v1.8h2.2l-.1.6zm7 .2c0-.8-.1-1.7-.1-2.4-.2.7-.4 1.4-.7 2.1l-1 2.7h-.5l-.9-2.7c-.3-.8-.5-1.5-.7-2.2 0 .7-.1 1.6-.1 2.5l-.2 2.4h-.7l.4-5.7h.9l.9 2.7c.3.7.4 1.3.6 1.9.2-.6.3-1.2.6-1.9l1-2.7h.9l.3 5.7h-.7v-2.4zm4.3 2.5V140l-1.8-3.3h.9l.8 1.5c.3.4.3.8.6 1.2.2-.3.3-.8.6-1.2l.8-1.5h.9l-1.9 3.3v2.4h-.9z"/><path class="st8" d="m114.2 252.6-1.1-.6c-.3-.2-28.1-15.7-30.1-16.7-14.5-7.7-26.9-14.4-36.3-28.7-14.8-22.6-17.6-50.6-19.1-75-1.8-28.4-2.8-84-2.8-84.6v-1.5l1.4-.6c.4-.2 39.6-16.6 91.5-16.6 30.5 0 59.4 5.6 85.8 16.6l1.5.6-.1 1.5c0 .5-2.1 55.1-4.3 84.6-2.1 27.8-6 56.4-20.6 77.4-8.3 11.9-19.8 18.2-31.9 24.9-1.5.8-2.9 1.6-4.4 2.4-17.3 9.6-28.4 15.8-28.4 15.8l-1.1.5zM29.3 48.4c.2 9.3 1.2 57.1 2.7 82.8 1.5 23.8 4.3 51.1 18.4 72.8 8.7 13.4 20.8 19.8 34.7 27.3 1.8.9 23.8 13.2 29.1 16.1 3.2-1.8 13.1-7.3 27.3-15.2 1.5-.9 2.9-1.6 4.4-2.4 11.7-6.3 22.7-12.4 30.4-23.5 14-20.1 17.8-48 19.8-75.1 2-26.6 3.9-73.7 4.2-82.9-25.5-10.4-53.3-15.7-82.6-15.7-45.5.1-81.1 12.9-88.4 15.8z"/><g class="st9"><path class="st8" d="M114.7 36.7C67.8 36.1 33.4 51 33.4 51s.9 57.1 2.7 85.4c0 .1 78.6 0 78.6 0V36.7zm0 206.1c3.9-2.1 24.6-13.6 26.2-14.4 14.9-8.1 23.6-12.1 32.1-23.6 13.9-18.8 16.6-46.1 18.4-68.3h-76.7v106.3z"/></g><path class="st10" d="M74.7 119.2h.4-.1.1c.5-1 1.1-2.1 1.6-3.2H73"/><path class="st10" d="M72.6 116.2h4.8c-1.5-6.6-1.5-13-.1-19.3h-4.8c1.4 6.3 1.4 12.7.1 19.3zM69.9 81c-3-3.9-3-7.5-.3-11.2 2.1-2.9 4.8-5.5 6.3-8.9 2.8 3.2 3.1 7.2.7 10.6-2.3 3.1-5.2 5.7-6.7 9.5zm10.2-11.6c3.2 3.9 3.3 7.6.8 11.2-2.1 3-4.9 5.7-6.4 9.1-2.7-2.8-3.2-7-.9-10.2 1.6-2.2 3.3-4.4 5.1-6.5.6-1.1 1.3-2 1.4-3.6zm-8.7 25.8h6.9c.2-.2.3-.3.3-.5.3-.8.4-2 .7-2.5h-8.8c.3.5.4 1.7.7 2.5 0 .1.2.3.2.5z"/><path d="M72.6 198.6c.8.8 1.3 1.7 1.3 2.5 0 .3 0 .5-.1.8-.1.2-.2.3-.3.4-.2.2-.3.3-.6.4-.6.3-1.4.3-2.2-.1-.9-.3-1.7-.8-2.3-1.5-.5-.5-.8-1-.8-1.5 0-.2 0-.3.1-.4 0-.1.1-.2.2-.3l.3-.3c.7-.3 2 .1 2.8.9.4.4.6.9.4 1.1 0 .1-.1.1-.1.2-.1.1-.1.1-.2.1-.2.1-.5.1-.8 0-.3-.1-.6-.3-.9-.5-.3-.3-.3-.4-.3-.6 0 0 0-.1.1-.1l.1-.1c.2-.1.7 0 .9.3.1.1.2.1.2 0l.1-.1h.1l.1-.1c0-.1 0-.1-.1-.2-.4-.4-1.2-.7-1.6-.5-.1 0-.2.1-.3.2s-.1.2-.2.3c-.2.3 0 .8.4 1.2.7.7 1.7 1 2.3.8.2-.1.3-.2.3-.3.1-.1.2-.2.2-.3.1-.2.1-.3.1-.4 0-.4-.3-.9-.6-1.3-1-1-2.5-1.5-3.4-1.1-.2.1-.3.2-.5.3-.1.1-.3.3-.3.4-.2.3-.2.8 0 1.3l-1.5 2.5c-1.7-1.7-2.4-3.7-1.8-5.1.1-.3.3-.5.5-.8.3-.3.6-.4.9-.6.9-.4 2.2-.3 3.6.1 1.6.5 2.9 1.4 3.9 2.4zm15.1-19.1 4.8 5-.1-1.1.9-.3-5.1-4.3c-.2.4-.4.5-.5.7zm-3.6 0c.5.5 1.2.8 2 .8-4.1 6.9-7.4 14.2-11.5 21.2v-.3c0-.9-.5-1.9-1.5-2.8-1.1-1.1-2.5-2-4-2.5s-2.9-.5-3.9-.1c-.3.2-.6.3-.9.5 3.9-6.4 8.8-12.4 12.8-18.9 2.3-1.2 5.1-.2 6.4.6-.1.5.1 1.1.6 1.5zm11.3-18.9c.9.9 1.4 1.8 1.4 2.7 0 .3 0 .6-.2.9 0 .1-.1.2-.1.2-2.5 4.2-5.6 8.2-8.3 12.4-.1-.3-.3-.5-.5-.8-.9-.9-2.5-1-3.5-.2-3.5-1.9-5.6-1.4-5.6-1.4 2.7-4.7 4.6-9.4 7.5-15 .3-.5.8-.9 1.5-1.2 1-.4 2.4-.3 3.9.1s2.9 1.2 3.9 2.3zm-7 17.6 3.5 1.1-.6.3.4.8-3.5-1.7c.1-.1.1-.3.2-.5zm-1.1 1c-.8.8-2.1.8-2.9-.1-.8-.8-.8-2.1.1-2.9.8-.8 2.1-.8 2.9.1.7.8.7 2.1-.1 2.9z" opacity=".95" fill="#351955"/><path d="M151.1 176.8c-2.6 0-4.6 2.1-4.6 4.6 0 2.6 2.1 4.6 4.6 4.6s4.6-2.1 4.6-4.6c0-2.5-2.1-4.6-4.6-4.6zm-1.6 4c-.6 0-1.1-.5-1.1-1.1s.5-1.1 1.1-1.1c.6 0 1.1.5 1.1 1.1.1.6-.4 1.1-1.1 1.1zm11.1-1c-.5-.9-1-1.9-1.5-2.8.4.9 1 1.8 1.5 2.8 2.7 5.5 5.9 15.6 2.5 19.8-3.4 4.2-12.3-2.7-18.9-14.1-5.1-8.8-8-19.1-4.5-22.5 3.9-3.9 12.3 3.9 15.8 8.6.8 1 1.5 2.1 2.2 3.2.4.6.8 1.3 1.2 1.9-.3-.7-.8-1.3-1.2-1.9-.7-1-1.5-2.2-2.2-3.3-3.8-5.1-11.8-13.6-16.7-9.4-5.3 4.5-.6 17.8 3.3 24.6 7.2 12.5 17.9 19.1 21.9 13.6 3.4-4.9-.8-15.3-3.4-20.5zm-3.3 10.5c1.6-.2 3.9-.5 5.8-.9 0-.1 0-.2-.1-.3-2.1.6-4.5 1-5.7 1.2 0-.1 0 0 0 0zm1.7-4.3c.7-1.2 1.4-2.5 1.9-3.5-.6 1.2-1.3 2.4-1.9 3.5zm-6.7 9 .2.2c1.8-2 3.4-4.2 4.9-6.3.6-.9 1.1-1.8 1.7-2.7-.5.9-1.1 1.9-1.7 2.7-1.5 1.9-3.2 4.1-5.1 6.1zm3.7-21.3c-.7-.9-1.4-1.9-1.9-2.5-1.5-.1-3.1-.1-4.7-.1-.7.9-1.4 1.8-1.9 2.5 3-.1 5.9-.1 8.5.1zm-.9 16.8h-.8c-1.1.1-2.1.1-3.3.1 1.1 0 2.1 0 3.3-.1.3.1.5 0 .8 0zm-4-4.4c2.6 0 4.6-2.1 4.6-4.6s-2.1-4.6-4.6-4.6-4.6 2.1-4.6 4.6 2.1 4.6 4.6 4.6zm-1.6-7.5c.6 0 1.1.5 1.1 1.1s-.5 1.1-1.1 1.1c-.6 0-1.1-.5-1.1-1.1 0-.6.5-1.1 1.1-1.1zm1.6 12c-.9 0-1.7 0-2.6-.1.8.1 1.7.1 2.6.1zm0-22.7c-.6-.6-1.1-1-1.5-1.5-3.3 3.2-6.1 7.2-8.2 11.2.3.9.8 2 1.2 2.8 2.1-4.2 5.2-8.9 8.5-12.5zm-11.5 4.6c.2.8.3 1.4.6 2.1.7-.2 1.5-.3 2.2-.4.6-.9 1.2-1.8 1.7-2.6-1.4.2-3.1.5-4.5.9zm10-6c-3.3 3.2-6.1 7.2-8.2 11.2.3.9.8 2 1.2 2.8 2.1-4.3 5.2-9 8.6-12.6-.7-.6-1.2-1-1.6-1.4zm14.3-3.7c-2.9-4.2-9-.9-12.9 2.4l1.5 1.5c3-2.8 8-6.3 10.6-3.2 3 3.7.6 12.5-1.3 17 0 0 0 .1.1.1 2-4.8 5-13.5 2-17.8zm-14.3 34.7c-2.5 2-6.8 4.6-9.4 2.9-3.7-2.4-1.4-10.7.3-15.1-.5-.9-.9-1.8-1.4-2.8-3.3 8-3.9 16.6.4 19 3.3 1.7 7.5-1.1 10.3-3.6 0-.1-.2-.3-.2-.4zm7.7-8.7c-1.4 2.1-3.1 4.3-5 6.3l.2.2c1.7-2.1 3.4-4.2 4.8-6.5.6-.9 1.2-1.8 1.7-2.7-.6.9-1.1 1.8-1.7 2.7zm3.6-6.4c-.6 1.2-1.2 2.4-1.9 3.6.7-1.2 1.4-2.4 1.9-3.6 0 .1 0 .1 0 0zm-4.4-11c.8 1.1 1.5 2.2 1.7 2.6 1.5.2 3.2.4 4.7.9.2-.7.3-1.4.4-2.1-2.2-.8-4.5-1.1-6.8-1.4zm-2.2 19.1c-1.1.1-2.1.1-3.3.1 1.2 0 2.3 0 3.3-.1h.8-.8zm-5.8.1c.9.1 1.7.1 2.6.1-.9-.1-1.8-.1-2.6-.1zm-19.3-9.1c.2-3 4.5-5.1 7.4-5.9-.2-.6-.3-1.3-.4-2-3.6 1.4-8.3 4-8.1 7.9.1 3.7 4.7 6 8.3 7.1 0-.1.1-.3.1-.4-3-1.2-7.4-3.6-7.3-6.7zm33.9 7.6c-2.1.6-4.5 1-5.7 1.1 0 0 0 .1-.1.1 1.6-.2 3.9-.5 5.8-.9v-.3zm-19.9.9c-1.1-.2-2.2-.4-3.3-.7 0 .1-.1.2-.1.3 1.1.3 2.3.4 3.4.6.1-.2 0-.2 0-.2zm-3.6-17.5c.2.8.3 1.4.6 2.1.7-.2 1.5-.3 2.2-.4.6-.9 1.2-1.8 1.7-2.6-1.4.2-3.1.5-4.5.9zm14.5-1.3c-1.5-.1-3.1-.1-4.7-.1-.7.9-1.4 1.8-1.9 2.5 2.9-.2 5.8-.1 8.4.1-.6-.9-1.2-1.8-1.8-2.5zm11.1 2.1c-.2.7-.3 1.3-.5 2 3.2.9 8.1 3 8.2 6.3.2 3.3-4.8 5.9-8.1 7 0 .1.1.3.1.3 3.8-1.1 9-3.4 9.2-7.4.2-4.1-5-6.9-8.9-8.2z" fill="#e5e6e6"/><g class="st9"><path class="st13" d="M163.7 83.5c.9-2.1 2.2-4.2 3.9-5.9-1-1.6-2.6-3.1-4.8-4.3-.9 2.7-1.8 5.3-2.7 8 1.4.5 2.6 1.3 3.6 2.2zm-15.5-6.3c1.9 1.9 3.3 4.1 4.1 6.6.9-1.1 2.1-2.1 3.3-2.6-.9-2.6-1.7-5.1-2.5-7.7-.9.4-1.8.7-2.7 1.1-1 .5-2.8 2.2-1.5 3.3l-.7-.7c1.8 1.8 0-.1 0 0zm4.8-7.1c1.5 2.1 2.9 4.1 4.3 6-.1 1.7-.3 3.3-.3 4.8.6-.1 1.2-.1 1.8 0-.1-1.5-.3-3.2-.3-4.7 1.5-2.2 3-4.4 4.5-6.5 2-3.1 1.6-7.5-.8-10.1-1.9-2-4.8-2.5-7.1-1.2-2.7 1.6-4.2 5.6-3.2 9.1.2.9.6 1.8 1.1 2.6z"/><g id="_x37_9w1gW_00000026872019165825231230000007459902624769824925_"><path class="st13" d="M153.1 98.6c1.1 3.3 2.1 6.6 3.2 9.8.2 0 .3-.1.4-.1.2-2.3.3-4.5.5-7.1-1.3-1.9-2.8-3.9-4.3-6-.5-.8-.9-1.6-1.2-2.6-1-3.5.4-7.5 3.2-9.1 2.2-1.3 5.2-.9 7.1 1.2 2.4 2.6 2.8 7.1.8 10.1-1.5 2.2-2.9 4.4-4.5 6.5.2 2.3.3 4.7.5 7.1h.6c1.1-3.3 2.1-6.6 3.3-10 6.3 3.3 7.5 14.9 7.5 14.9l-12.3 4-12.2-4c.2.1 1.6-13.8 7.4-14.7z"/><path class="st13" d="M172.1 96.8c.2 2.2.3 4.5.4 6.9.2.1.4.1.6.2 1.1-3.3 2.1-6.4 3.3-9.6 5 .9 7.4 14.6 7.4 14.6l-12.3 4s-1.8-13.8-9.3-15.6c1.6-1.3 2.8-2.3 4.5-3.6 1.2 3.6 2.2 6.8 3.3 10 .2 0 .3 0 .5-.1.2-2.2.3-4.5.5-7-1.4-1.9-2.9-4-4.5-6.2-2.3-3.3-1.7-8.2 1.1-10.8 2.2-2 5.3-2 7.5 0 2.7 2.5 3.4 7.3 1.3 10.6-1.2 2.1-2.8 4.3-4.3 6.6z"/><path class="st8" d="M152.9 97.8c.1-.1.1-1.1.2-1.1-1-.8-2.4-1.8-3.9-3-1.2 3.7-2.3 6.9-3.3 10.2-.2 0-.3-.1-.5-.1-.2-2.4-.4-4.8-.6-7 1.6-2.4 3.3-4.5 4.6-6.9 2.1-3.3 1.2-8.1-1.6-10.5-2.3-1.9-5.3-1.7-7.5.3-2.7 2.6-3.3 7.3-1 10.6 1.5 2.1 3.1 4.3 4.5 6.3-.3 2.4-.4 4.7-.6 7h-.5c-1-3.2-2.1-6.4-3.2-9.8-6.3 3.3-7 8.9-7.5 15l12.5 4c.1 0 1.7-15.3 8.4-15z"/></g></g><path class="st8" d="M225 149.8H3.7l5.5-11.4-5.5-11.5H225l-5.6 11.5z"/><path d="M226.1 150.6H2.6l5.9-12.2-5.9-12.2h223.5l-5.9 12.2 5.9 12.2zM4.8 149.1h219.1l-5.2-10.7 5.2-10.7H4.8l5.2 10.7-5.2 10.7z" fill="#f1f1f1"/><path class="st6" d="M33.8 141.7v-2.4L32 136h.9l.8 1.5c.3.4.3.8.5 1.1.2-.3.3-.8.6-1.1l.8-1.5h.9l-1.9 3.3v2.4h-.8zm8.7-3c0 2-1.2 2.9-2.6 2.9-1.5 0-2.5-1.1-2.5-2.8 0-1.8 1.1-2.9 2.6-2.9 1.6 0 2.5 1.2 2.5 2.8zm-4.3.2c0 1.2.7 2.2 1.8 2.2s1.8-1 1.8-2.3c0-1.1-.6-2.3-1.8-2.3-1.2 0-1.8 1.1-1.8 2.4zm7.1-2.9v3.3c0 1.3.5 1.8 1.3 1.8.9 0 1.4-.5 1.4-1.8V136h.8v3.3c0 1.7-.9 2.4-2.1 2.4-1.1 0-2-.7-2-2.4V136h.6zm5.6 5.7v-5.6h.8l1.8 2.8c.4.7.8 1.3 1 1.8-.1-.8-.1-1.5-.1-2.3v-2.3h.7v5.6h-.8l-1.8-2.8c-.4-.6-.8-1.3-1-1.9 0 .7.1 1.4.1 2.3v2.4h-.7zm10.9-.3c-.3.1-.9.3-1.7.3-.9 0-1.5-.3-2.1-.8-.5-.4-.8-1.2-.8-2.1 0-1.6 1.1-2.9 3-2.9.7 0 1.1.2 1.4.3l-.2.6c-.3-.2-.7-.3-1.2-.3-1.4 0-2.2.9-2.2 2.2 0 1.5.9 2.2 2.1 2.2.5 0 .8-.1.9-.2v-1.6h-1v-.5h1.9l-.1 2.8zm9.6-2.2c0-.8-.1-1.7-.1-2.4-.2.7-.4 1.4-.7 2.1l-1 2.7h-.5l-.9-2.7c-.3-.8-.5-1.5-.7-2.1 0 .7-.1 1.6-.1 2.5l-.2 2.4h-.7l.4-5.6h.9l.9 2.7c.3.7.4 1.3.6 1.9.2-.6.3-1.2.6-1.9l1-2.7H72l.3 5.6h-.7l-.2-2.5zm6-.2h-2.1v2.1h2.4v.6h-3.2v-5.6h3v.6h-2.3v1.8h2.1l.1.5zm2.2 2.7v-5.6h.8l1.8 2.8c.4.7.8 1.3 1 1.8-.1-.8-.1-1.5-.1-2.3v-2.3h.7v5.6H83l-1.8-2.8c-.4-.6-.8-1.3-1-1.9 0 .7.1 1.4.1 2.3v2.4h-.7zm7.4-5.8c-.2.7-.5 1.6-.8 2l-.4.1c.2-.5.4-1.4.5-2l.7-.1zm1.7 4.9c.3.2.8.3 1.3.3.8 0 1.2-.4 1.2-.9s-.3-.9-1-1.1c-.9-.3-1.5-.8-1.5-1.6s.7-1.5 1.8-1.5c.6 0 1 .2 1.2.3l-.2.6c-.2-.1-.5-.3-1-.3-.8 0-1 .4-1 .9s.3.8 1.1 1.1c.9.3 1.5.9 1.5 1.6 0 .9-.6 1.6-2 1.6-.5 0-1.1-.2-1.5-.3l.1-.7zm8-4.8h.7v5h2.4v.6h-3.1V136zm7.9 3h-2.1v2.1h2.4v.6h-3.2v-5.6h3v.6h-2.3v1.8h2.1l.1.5zm3.1.9-.6 1.8h-.8l1.9-5.6h.9l1.9 5.6h-.8l-.6-1.8h-1.9zm1.8-.5-.5-1.6c-.1-.3-.2-.7-.3-1-.1.3-.2.7-.3 1l-.5 1.6h1.6zm3.5-3.3c.4-.1.9-.1 1.5-.1 1 0 1.8.3 2.2.7.5.4.8 1.1.8 2 0 .9-.3 1.6-.8 2.1s-1.4.8-2.5.8c-.5 0-.9 0-1.3-.1l.1-5.4zm.7 5h.8c1.5 0 2.4-.9 2.4-2.4 0-1.3-.8-2.1-2.2-2.1-.3 0-.7 0-.9.1l-.1 4.4zm8.7-2.1h-2.1v2.1h2.4v.6h-3.2v-5.6h3v.6h-2.2v1.8h2.1v.5zm2.3-2.9c.3-.1.9-.1 1.4-.1.8 0 1.3.2 1.6.4.3.3.4.6.4 1 0 .8-.4 1.2-1 1.5.4.2.7.5.9 1.1.2.8.3 1.3.4 1.5h-.8c-.1-.2-.3-.6-.3-1.4-.2-.8-.4-1-1.1-1.1h-.8v2.4h-.7v-5.3zm.7 2.6h.8c.8 0 1.3-.4 1.3-1 0-.7-.5-1-1.3-1-.3 0-.6 0-.7.1l-.1 1.9zm4.7 2.1c.3.2.8.3 1.3.3.8 0 1.2-.4 1.2-.9s-.3-.9-1-1.1c-.9-.3-1.5-.8-1.5-1.6s.7-1.5 1.8-1.5c.6 0 1 .2 1.2.3l-.2.6c-.2-.1-.5-.3-1-.3-.8 0-1 .4-1 .9s.3.8 1.1 1.1c.9.3 1.5.9 1.5 1.6 0 .9-.6 1.6-2 1.6-.5 0-1.1-.2-1.5-.3l.1-.7zm5.9-4.8v2.3h2.7V136h.8v5.6h-.8v-2.7H136v2.7h-.7V136h.7zm6.6 0v5.6h-.7V136h.7zm2.3.1c.3-.1.8-.1 1.4-.1.7 0 1.2.2 1.5.4.3.3.5.7.5 1.2s-.2.9-.4 1.2c-.3.4-1 .6-1.7.6-.3 0-.4 0-.6-.1v2.2h-.7v-5.4zm.7 2.7c.2 0 .3.1.6.1.9 0 1.4-.4 1.4-1.2s-.5-1.1-1.3-1.1c-.3 0-.6 0-.7.1v2.1zm8.5 1.1-.6 1.8h-.8l1.9-5.6h.9l1.9 5.6h-.8l-.6-1.8h-1.9zm1.8-.5-.5-1.6c-.1-.3-.2-.7-.3-1-.1.3-.2.7-.3 1l-.5 1.6h1.6zm7.2 2.1c-.3.2-.8.3-1.5.3-1.5 0-2.7-1-2.7-2.8 0-1.7 1.2-2.9 2.9-2.9.7 0 1.1.2 1.4.3l-.2.6c-.3-.2-.7-.3-1.1-.3-1.3 0-2.2.9-2.2 2.3s.8 2.2 2.1 2.2c.4 0 .9-.1 1.2-.3l.1.6zm2.9-1.6-.6 1.8h-.8l1.9-5.6h.9l1.9 5.6h-.8l-.6-1.8H166zm1.8-.5-.5-1.6c-.1-.3-.2-.7-.3-1-.1.3-.2.7-.3 1l-.5 1.6h1.6zm3.3-3.3c.4-.1.9-.1 1.5-.1 1 0 1.8.3 2.2.7.5.4.8 1.1.8 2 0 .9-.3 1.6-.8 2.1s-1.4.8-2.5.8c-.5 0-.9 0-1.3-.1v-5.4zm.8 5h.8c1.5 0 2.4-.9 2.4-2.4 0-1.3-.8-2.1-2.2-2.1-.3 0-.7 0-.9.1l-.1 4.4zm8.7-2.1h-2.1v2.1h2.4v.6h-3.2v-5.6h3v.6h-2.3v1.8h2.1l.1.5zm7 .2c0-.8-.1-1.7-.1-2.4-.2.7-.4 1.4-.7 2.1l-1 2.7h-.5l-.9-2.7c-.3-.8-.5-1.5-.7-2.1 0 .7-.1 1.6-.1 2.5l-.2 2.4h-.7l.4-5.6h.9l.9 2.7c.3.7.4 1.3.6 1.9.2-.6.3-1.2.6-1.9l1-2.7h.9l.3 5.6h-.7v-2.5zm4.3 2.5v-2.4l-1.8-3.3h.9l.8 1.5c.3.4.3.8.6 1.1.2-.3.3-.8.6-1.1l.8-1.5h.9l-1.9 3.3v2.4h-.9z"/></svg>