<svg version="1.1" id="base" xmlns="http://www.w3.org/2000/svg" x="0" y="0" viewBox="0 0 1260 260" xml:space="preserve"><style>.st1{fill:#404041}.st3{fill:#732b7c}.st6{fill:#130802}.st7{fill:#fff}.st8{fill:#eb1b24}.st9{fill:#7f8084}</style><g id="text"><path class="st1" d="M836.9 199.8v3.9H834v1.6h2.9v9.3c0 2.5 1.3 4 3.7 4 2 0 3.4-1.1 4.3-3.9l-1.2-.5c-.6 1.8-1.4 2.6-2.5 2.6-1.3 0-1.9-.8-1.9-2.3v-9.2h4.8v-1.6h-4.8v-4.2l-2.4.3zm-10.5 18.9c3.1 0 5.5-1.8 6.4-5.1h-1.4c-.8 2.2-2.3 3.3-4.3 3.3-2.9 0-4.7-2.3-4.7-6 0-3.8 1.9-6.2 4.6-6.2 1.7 0 2.7.7 3.2 1.5-.7.3-1.3 1-1.3 1.8 0 1 .7 1.8 1.8 1.8 1.2 0 1.9-1 1.9-2.3 0-1.9-2.4-4.1-5.6-4.1-4.4 0-7.4 3.2-7.4 7.9-.1 4.2 2.6 7.4 6.8 7.4m-16.8-.3h8v-1.7h-2.7v-13h-5.3v1.7h2.7v11.3h-2.7v1.7zm3.9-18.1c1 0 1.8-.8 1.8-1.9 0-1.1-.8-1.9-1.8-1.9-1.1 0-1.9.8-1.9 1.9 0 1.2.8 1.9 1.9 1.9m-17.2 18.1h7.9v-1.7h-2.8v-7.9c.4-1.6 1.8-3.6 3.3-3.4-.1.2-.1.4-.1.6 0 1.1.8 1.7 1.8 1.7s1.8-.9 1.8-1.9c0-1.3-.9-2.3-2.4-2.3-1.7 0-3.5 1.2-4.4 3.6v-3.4h-4.9v1.7h2.5v11.3h-2.5l-.2 1.7zm-9.3-18.6v3.9h-2.9v1.6h2.9v9.3c0 2.5 1.3 4 3.7 4 2 0 3.4-1.1 4.3-3.9l-1.2-.5c-.6 1.8-1.4 2.6-2.5 2.6-1.3 0-1.9-.8-1.9-2.3v-9.2h4.8v-1.6h-4.8v-4.2l-2.4.3zm-15.9 18.9h1.5l.4-2.1c1 1.3 2.6 2.1 4.6 2.1 3.1 0 5.1-2.3 5.1-4.5 0-2.5-1.5-3.4-5.1-4.4-2.6-.8-3.8-1.5-3.8-2.8s1.3-2.2 2.6-2.2c2.2 0 3.2 1.3 4.2 3.7h1.5v-5h-1.5l-.4 1.8c-.8-1.2-2.2-1.8-3.8-1.8-2.9 0-4.9 2-4.9 4.2s1.4 3.4 5 4.4c2.9.8 4 1.5 4 2.9s-1.1 2.3-2.8 2.3c-2.4 0-4.1-1.7-4.9-4.2h-1.5v5.6h-.2zm-10-.3h8v-1.7h-2.7v-13h-5.3v1.7h2.7v11.3h-2.7v1.7zm3.8-18.1c1 0 1.8-.8 1.8-1.9 0-1.1-.8-1.9-1.8-1.9-1.1 0-1.9.8-1.9 1.9.1 1.2.9 1.9 1.9 1.9m-20.6 16.3v-18h2.5c6 0 8.5 3 8.5 8.6 0 6.4-2.6 9.2-8.2 9.2l-2.8.2zm-6.4 1.8h9c7.9 0 11.5-4.9 11.5-11 0-6.2-3.8-10.3-11.7-10.3h-8.8v1.7h3.6v18h-3.6v1.6zm-15.5 0h8v-1.7h-2.7V196h-5.3v1.8h2.7v18.9h-2.7v1.7zm-8.8-1.2c-2.5 0-4.5-2-4.5-6.2s1.8-6.2 4.2-6.2 4.4 1.9 4.4 6.2c.1 4.3-1.6 6.2-4.1 6.2m-.1 1.5c4 0 7.1-3.1 7.1-7.8 0-4.5-2.9-7.5-7.1-7.5-4 0-7.1 3.1-7.1 7.8-.1 4.4 2.9 7.5 7.1 7.5m-16.6-1.5c-2.5 0-4.5-2-4.5-6.2s1.8-6.2 4.2-6.2 4.4 1.9 4.4 6.2c0 4.3-1.7 6.2-4.1 6.2m-.2 1.5c4 0 7.1-3.1 7.1-7.8 0-4.5-2.9-7.5-7.1-7.5-4 0-7.1 3.1-7.1 7.8.1 4.4 3 7.5 7.1 7.5m-25.7-.3h7.2v-1.7h-2.3v-6.4c0-2.4 2.1-4.8 4.2-4.8.8 0 1.4.2 1.9.7.6.6.9 1.7.9 3v7.5h-2.3v1.7h7.2v-1.7h-2.5v-8.5c0-3-1.5-4.6-4-4.6-1.9 0-3.8 1-5.5 3.9V196h-5v1.8h2.5v18.9h-2.5v1.7h.2zm-8 .3c3.1 0 5.5-1.8 6.4-5.1h-1.5c-.8 2.2-2.3 3.3-4.3 3.3-2.9 0-4.7-2.3-4.7-6 0-3.8 1.9-6.2 4.6-6.2 1.7 0 2.7.7 3.2 1.5-.7.3-1.3 1-1.3 1.8 0 1 .7 1.8 1.8 1.8 1.2 0 1.9-1 1.9-2.3 0-1.9-2.4-4.1-5.6-4.1-4.4 0-7.4 3.2-7.4 7.9 0 4.2 2.7 7.4 6.9 7.4m-25.1.1h1.6l.7-2.6c1.6 1.7 3.7 2.6 6.4 2.6 4 0 6.9-2.7 6.9-6.5 0-4.2-3.3-5.1-7.1-6.1-3-.8-5.6-1.5-5.6-4.5 0-2.4 1.7-3.7 3.8-3.7 2.5 0 4.7 1.5 6.4 5.6h1.5v-7h-1.6l-.7 2.3c-1.3-1.5-3.3-2.4-5.5-2.4-4 0-6.5 2.7-6.5 6.1 0 4.2 3.4 5.3 6.9 6.2 3.4.9 5.8 1.7 5.8 4.5 0 2.6-1.8 3.9-4.2 3.9-3.1 0-5.2-1.8-7.3-6h-1.5v7.6zm-15.8-19v3.9h-2.9v1.6h2.9v9.3c0 2.5 1.3 4 3.7 4 2 0 3.4-1.1 4.3-3.9l-1.2-.5c-.6 1.8-1.4 2.6-2.5 2.6-1.3 0-1.9-.8-1.9-2.3v-9.2h4.8v-1.6h-4.8v-4.2l-2.4.3zm-20.5 18.6h7.2v-1.7h-2.3v-6.4c0-2.4 2.1-4.8 4.2-4.8.8 0 1.4.2 1.9.7.6.6.9 1.7.9 3v7.5h-2.3v1.7h7.2v-1.7H616v-8.5c0-3-1.5-4.6-4-4.6-1.9 0-3.8 1-5.6 4v-3.8h-4.9v1.7h2.5v11.3h-2.5v1.7h.1zm-8.5-13.6c2.3 0 3.4 1.9 3.6 4.9H589c.4-3.2 1.9-4.9 4.1-4.9m6.3 6.3c.1-3.9-1.8-7.8-6.1-7.8-3.9 0-7 3.3-7 7.8 0 4.4 2.6 7.5 6.9 7.5 3 0 5.2-1.6 6.1-4.6h-1.4c-.9 2.2-2.4 2.8-4.2 2.8-2.7 0-4.6-2-4.7-5.8l10.4.1zm-23.9 5.8c-2.2 0-3.8-2.2-3.8-5.9s1.5-6 3.9-6 4 2.3 4 5.7c0 3.8-1.8 6.2-4.1 6.2m-.9 1.7c2 0 3.8-1.2 4.9-3.4v3.2h4.8v-1.7H582V196h-5v1.8h2.5v8.5c-.9-1.8-2.6-2.8-4.6-2.8-1.6 0-2.8.6-3.8 1.6-1.4 1.4-2.3 3.7-2.3 6.3 0 2.5.7 4.6 2.2 6 .9.7 2.2 1.2 3.6 1.2m-24.5-.2h7.2v-1.7H555v-6.4c0-2.4 2.1-4.8 4.2-4.8.8 0 1.4.2 1.9.7.6.6.9 1.7.9 3v7.5h-2.3v1.7h7.2v-1.7h-2.5v-8.5c0-3-1.5-4.6-4-4.6-1.9 0-3.8 1-5.6 4v-3.8h-4.9v1.7h2.5v11.3h-2.3v1.6zm-8.5-13.6c2.3 0 3.4 1.9 3.6 4.9h-7.7c.3-3.2 1.9-4.9 4.1-4.9m6.2 6.3c.1-3.9-1.8-7.8-6.1-7.8-3.9 0-7 3.3-7 7.8 0 4.4 2.6 7.5 6.9 7.5 3 0 5.2-1.6 6.1-4.6h-1.4c-.9 2.2-2.4 2.8-4.2 2.8-2.7 0-4.6-2-4.7-5.8l10.4.1zm-31.2 12.2h8.1v-1.7h-3.2v-6.2c.9 1.7 2.5 3 4.6 3 1.5 0 2.7-.6 3.7-1.6 1.4-1.4 2.2-3.6 2.2-6.1s-.7-4.5-2-5.9c-1-1-2.1-1.5-3.6-1.5-2.1 0-3.9 1.1-5 3.7v-3.4h-4.9v1.7h2.5v16.2h-2.5l.1 1.8zm9-6.7c-2.5 0-4-2.4-4-5.5 0-3.4 2-6.1 4.2-6.1 2 0 3.6 1.6 3.6 5.6-.1 4.1-1.6 6-3.8 6m-17.2-11.8c2.3 0 3.4 1.9 3.6 4.9h-7.7c.4-3.2 1.9-4.9 4.1-4.9m6.3 6.3c.1-3.9-1.8-7.8-6.1-7.8-3.9 0-7 3.3-7 7.8 0 4.4 2.6 7.5 6.9 7.5 3 0 5.2-1.6 6.1-4.6h-1.4c-.9 2.2-2.4 2.8-4.2 2.8-2.7 0-4.6-2-4.7-5.8l10.4.1zm-23.9 5.8c-2.2 0-3.8-2.2-3.8-5.9s1.5-6 3.9-6c2.5 0 4 2.3 4 5.7 0 3.8-1.8 6.2-4.1 6.2m-.9 1.7c2 0 3.8-1.2 4.9-3.4v3.2h4.8v-1.7h-2.4V196h-5v1.8h2.5v8.5c-.9-1.8-2.6-2.8-4.6-2.8-1.6 0-2.8.6-3.8 1.6-1.4 1.4-2.3 3.7-2.3 6.3 0 2.5.7 4.6 2.2 6 1.1.7 2.3 1.2 3.7 1.2m-24.5-.2h7.2v-1.7h-2.3v-6.4c0-2.4 2.1-4.8 4.2-4.8.8 0 1.4.2 1.9.7.6.6.9 1.7.9 3v7.5H475v1.7h7.2v-1.7h-2.5v-8.5c0-3-1.5-4.6-4-4.6-1.9 0-3.8 1-5.6 4v-3.8h-4.9v1.7h2.5v11.3h-2.5v1.7h.2zm-12.4 0h10v-1.7h-3.6v-18h3.6V197h-10v1.7h3.6v18H453v1.7zm-15.7.3h5.4v-18.9h2.8V197h-8.6v2.8h2.9V212h-.3l-9.1-15h-9.1v2.8h2.8v15.8h-2.8v2.8h8.6v-2.8H427V202h.3l10 16.7zm-29.5-.3h11.3v-2.8h-3v-15.8h3V197h-11.3v2.8h3v15.8h-3v2.8zm-18.7 0h12.1v-2.8h-3.3v-16.2h.8c2.6 0 3.2.9 4.4 6.2h2.6V197h-20.9v8.6h2.6c1.2-5.3 1.8-6.2 4.4-6.2h.8v16.2h-3.3v2.8zm-23.6.4h2.8l.8-2.6c1.2 1.5 3.5 2.6 6.3 2.6 4.7 0 7.9-2.9 7.9-7 0-4.7-3.8-5.8-7.4-6.7-3.2-.8-5.6-1.3-5.6-3.4 0-1.5 1.2-2.7 3.3-2.7 2.7 0 4.4 1.5 5.8 5h2.8v-7.7h-2.8l-.7 2.4c-1.1-1.5-3.1-2.4-5.5-2.4-4.2 0-7.6 2.8-7.6 6.8 0 4.8 4 6 7.5 6.9 3.2.8 5.5 1.3 5.5 3.3 0 1.7-1.3 2.8-3.6 2.8-3.4 0-5.3-1.7-6.7-5.3h-2.8v8zm-13.4.1c6.1 0 8.7-3.7 8.7-8v-11.1h2.6V197H355v2.8h2.8v9.8c0 2.4-.4 3.8-1.4 4.8-.9.9-2 1.3-3.4 1.3-3.2 0-5-1.4-5-5.4v-10.5h3V197h-11v2.8h2.7V211c.1 4.8 3.2 7.9 9.4 7.9m-24.9-18 2.8 8h-5.7l2.9-8zm5 14.6h-2.9v2.8h11.3v-2.8H338l-6.9-18.7h-5.4l-6.9 18.7h-2.4v2.8h8.2v-2.8H322l1.4-4h7.4l1.4 4z"/><path class="st3" d="M320.7 46.6h16.5v59.9H366v14h-45.2l-.1-73.9zm53.9 1c4.3-.9 13.1-1.6 21.2-1.6 10 0 16.1 1 21.4 4.1 5 2.7 8.7 7.8 8.7 14.5 0 6.6-3.7 12.8-12 15.8v.2c8.2 2.3 14.4 8.6 14.4 18.2 0 6.7-3 12-7.6 15.7-5.3 4.3-14 6.7-28.5 6.7-8 0-14-.6-17.8-1.1l.2-72.5zm16.2 28.3h5.4c8.6 0 13.2-3.6 13.2-9.1 0-5.6-4.2-8.5-11.6-8.5-3.5 0-5.6.2-7 .4v17.2zm0 32.9c1.6.2 3.5.2 6.4.2 7.5 0 13.9-2.8 13.9-10.6 0-7.5-6.6-10.4-14.7-10.4h-5.6v20.8zm61.8-62.2h16.3v46.7c0 21.1-9.9 28.4-25.8 28.4-3.7 0-8.7-.7-12-1.8l1.9-13.4c2.3.8 5.2 1.3 8.3 1.3 6.9 0 11.2-3.1 11.2-14.7l.1-46.5zm92.7 42.7h-26.7v17.6h29.7v13.7h-46.2v-74h44.8v13.7h-28.3v15.3h26.7v13.7zm30 12.3-5.2 18.9h-17l22.2-73.9h21.5l22.5 73.9h-17.7l-5.6-18.9h-20.7zm18.5-12.5-4.5-15.7c-1.3-4.4-2.6-9.9-3.6-14.2h-.2c-1.1 4.4-2.2 10-3.3 14.2l-4.3 15.7h15.9zm34.1-41.5c5.3-.9 13.2-1.6 21.8-1.6 10.8 0 18.3 1.7 23.5 5.8 4.3 3.5 6.7 8.6 6.7 15.5 0 9.4-6.6 15.9-12.8 18.2v.3c5 2.1 7.9 7.1 9.7 13.8 2.3 8.3 4.5 18 5.9 20.8h-16.8c-1.2-2.1-2.9-8.1-5-17.2-2-9.2-5-11.8-11.7-11.9h-4.9v29.1h-16.2V47.6h-.2zm16.2 31.8h6.5c8.1 0 13.1-4.1 13.1-10.6 0-6.8-4.5-10.2-12.1-10.3-4 0-6.3.3-7.5.6v20.3zm46.4-32.8H707v59.9h28.8v14h-45.2V46.6zm70.7 73.9V90.3l-22.9-43.7H757l7.5 17.8c2.3 5.4 3.7 9.3 5.6 14.1h.2c1.6-4.6 3.3-8.9 5.5-14.1l7.3-17.8h18.3l-23.8 43.1v30.8h-16.4zm120.8-2c-3 1.6-9.8 3.1-18.5 3.1-25 0-38-15.9-38-37 0-25.2 17.7-39.3 39.6-39.3 8.5 0 14.9 1.8 17.9 3.3L879.6 62c-3.3-1.5-7.9-2.7-13.7-2.7-13.1 0-23.1 8-23.1 24.4 0 14.8 8.6 24.1 23.3 24.1 4.9 0 10.4-1.1 13.6-2.5l2.3 13.2zm76-35.6c0 24.2-14.4 39-35.5 39-21.5 0-34.1-16.6-34.1-37.6 0-22.2 13.8-38.7 35.2-38.7 22.2-.1 34.4 16.8 34.4 37.3zm-52.3.9c0 14.5 6.7 24.6 17.7 24.6 11.1 0 17.4-10.8 17.4-25.1 0-13.2-6.3-24.6-17.6-24.6-11.2 0-17.5 10.8-17.5 25.1zm61.9-37.2h16.5v59.9h28.8v14h-45.2V46.6zm53.9 0h16.5v59.9h28.8v14h-45.2l-.1-73.9zm96.9 42.7h-26.7v17.6h29.7v13.7h-46.2v-74h44.8v13.7h-28.3v15.3h26.7v13.7zm73.7 27.9c-5 1.8-14.6 4.1-24.1 4.1-13.2 0-22.8-3.4-29.4-10-6.7-6.4-10.3-16-10.2-26.9.1-24.5 17.7-38.6 41.4-38.6 9.3 0 16.6 1.9 20.1 3.6l-3.4 13.3c-4-1.8-8.9-3.1-16.9-3.1-13.6 0-23.9 7.9-23.9 23.9 0 15.2 9.3 24.2 22.8 24.2 3.7 0 6.8-.4 8-1.1V91.3h-11.2V78.2h27l-.2 39zm54.8-27.9h-26.7v17.6h29.7v13.7h-46.2v-74h44.8v13.7h-28.3v15.3h26.7v13.7z"/><path class="st1" d="M321.5 140.5v15.2h17.3v-15.2h4.7v36.4h-4.7v-17.1h-17.3v17.1h-4.6v-36.4h4.6zm34.5 0v36.4h-4.6v-36.4h4.6zm35.1 34.8c-2.1.8-6.2 2-11 2-5.4 0-9.8-1.4-13.3-4.8-3-3-5-7.9-5-13.5.1-10.9 7.4-18.8 19.3-18.8 4.1 0 7.4.9 8.9 1.7l-1.1 3.8c-1.9-.9-4.3-1.6-7.9-1.6-8.7 0-14.3 5.5-14.3 14.6 0 9.2 5.5 14.7 13.7 14.7 3 0 5.1-.4 6.2-1v-10.9h-7.4v-3.8H391v17.6zm11.5-34.8v15.2h17.3v-15.2h4.7v36.4h-4.7v-17.1h-17.3v17.1H398v-36.4h4.6zm40.3 30.7c2.1 1.3 5.1 2.4 8.2 2.4 4.7 0 7.5-2.6 7.5-6.2 0-3.4-1.9-5.4-6.8-7.3-5.8-2.1-9.4-5.2-9.4-10.3 0-5.7 4.6-9.9 11.6-9.9 3.6 0 6.3.9 7.9 1.8l-1.3 3.8c-1.2-.7-3.5-1.8-6.8-1.8-4.9 0-6.8 2.9-6.8 5.5 0 3.4 2.2 5.1 7.1 7.1 6.1 2.4 9.1 5.4 9.1 10.7 0 5.6-4.1 10.5-12.5 10.5-3.4 0-7.2-1-9.1-2.4l1.3-3.9zm51.7 4.5c-1.7.9-5.1 1.8-9.4 1.8-10.1 0-17.7-6.5-17.7-18.5 0-11.4 7.6-19.1 18.6-19.1 4.4 0 7.3 1 8.4 1.7l-1.1 3.8c-1.8-.9-4.2-1.5-7.2-1.5-8.3 0-13.9 5.5-13.9 15 0 8.9 5 14.6 13.7 14.6 2.8 0 5.7-.6 7.6-1.5l1 3.7zm10.3-35.2v15.2h17.3v-15.2h4.7v36.4h-4.7v-17.1h-17.3v17.1h-4.6v-36.4h4.6zm60.3 17.8c0 12.6-7.5 19.2-16.6 19.2-9.4 0-16.1-7.5-16.1-18.5 0-11.6 7.1-19.1 16.6-19.1 9.8 0 16.1 7.5 16.1 18.4zm-27.7.6c0 7.8 4.1 14.7 11.4 14.7 7.4 0 11.5-6.9 11.5-15.1 0-7.3-3.7-14.8-11.4-14.8s-11.5 7.2-11.5 15.2zm64.1-.6c0 12.6-7.5 19.2-16.6 19.2-9.4 0-16.1-7.5-16.1-18.5 0-11.6 7.1-19.1 16.6-19.1 9.8 0 16.1 7.5 16.1 18.4zm-27.7.6c0 7.8 4.1 14.7 11.4 14.7 7.4 0 11.5-6.9 11.5-15.1 0-7.3-3.7-14.8-11.4-14.8s-11.5 7.2-11.5 15.2zm33.6-18.4h4.6V173h15.3v3.9h-19.8l-.1-36.4z"/></g><g id="Mascot_1_"><path d="M213.7 165.5zm-17.8-14.9c.1 0 .2 0 .2.1-.1 0-.2 0-.2-.1zm.9.2c-.2 0-.5 0-.7-.1.3 0 .5 0 .7.1zm5.8 23.7c0-.1 0-.1 0 0zM109 122.3c-.1-.1-.1-.2-.2-.2.1.1.2.1.2.2zm136-.2zm-136.2 0c-.6-.7-1-1.6-.8-2.6-.1-1.1.2-2.1.6-2.9-.4 1-.7 2-.6 2.9-.2 1 .3 1.9.8 2.6zM125 39.3c.1 0 .1 0 0 0zm109.5 137.8s-.1 0 0 0c-.1 0 0 0 0 0zm-109.2-138c.1-.1.2-.1.2-.2-.2.1-.2.2-.2.2zm-16.1 83.5-.2-.2c.2.1.2.2.2.2zM234.5 177c.1-.3.2-.7.2-.9-.1.4-.1.6-.2.9z" fill="none"/><path d="M292 105.5c-2.1-3.3-4.9-6.1-7.9-8.7-2.5-2.1-5.2-3.8-7.9-5.6-.6-.3-1-.7-1.3-1.3-1.3-1.7-2.5-3.3-3.8-4.9-3.7-4-7.9-7.5-12.4-10.4-.9-.6-1.8-1.1-2.7-1.8 1.1-1.1 1.6-2.4 1.8-3.8.2-2.1.2-3.8-1.1-5.6-2-2.6-4.3-4.7-7-6.4-4.8-3.1-10.2-5.2-15.8-6.9-1.5-.4-2.9-.9-4.3-1.6-3.8-1.9-7.5-3.8-11.2-5.6-3.4-1.7-7-3.2-10.6-4.7-6.2-2.6-12.6-4.9-18.9-7-.3-.1-.7-.3-1-.6-.5-.4-1-.9-1.5-1.3-3.1-2.7-6.8-4.9-10.6-6.8-3.6-1.7-7.5-3-11.3-4.2-3.8-1.1-7.6-2.1-11.5-2.7-2.9-.6-6-1.1-9-1.6-2.6-.4-5.4-.7-8.1-1.1-1.8-.2-3.6-.4-5.4-.7-1.9-.2-3.7-.5-5.6-.7-2.3-.3-4.5-.6-6.8-.9-3.4-.6-7-1.3-10.4-2.1-1-.2-2-.6-2.9-.8h-.4c.1 1.2.2 2.5.2 3.7.2 2.1.2 3.9.4 6 .1.9.2 1.8.2 2.7-.4 0-.7 0-1.1-.1-5.4-1.2-10.8-2.5-16.2-3.6-4.5-1.1-9.1-2.1-13.6-3-.4-.1-.8-.1-1.2-.1-.7 2.6-1.5 5.2-2.1 7.8-.6 2.1-1 4.3-1.1 6.5-.1 2.4-.1 4.7-.1 7 0 .6-.1.9-.7 1.1-1.3.6-2.6 1.1-3.8 1.8-4 2.1-7.9 4.3-11.8 6.8-5.2 3.3-10.4 7-15.1 11-3.2 2.7-6.5 5.5-9.5 8.3-2.6 2.5-5.2 5.1-7.7 7.6-1.1 1.1-2.2 2.3-3.2 3.4-3.3 3.7-6.5 7.4-9.8 11-.7.7-1.3 1.5-2.1 2.4.7.1 1.1.2 1.6.2.7.1 1.6 0 2.3.1 2.9.2 5.9.4 8.7.6 1.7.1 3.3.2 5 .2.1 0 .2.1.2.2 0 .2-.1.3-.1.5-1 4.4-1.5 8.9-1.9 13.4-.2 1.9-.3 3.8-.4 5.6-.2 3.1-.3 6.3-.4 9.4-.1 1.8.1 3.6.2 5.4.1 2.8.2 5.6.4 8.3.2 2.7.5 5.5.8 8.1.4 2.9.8 5.9 1.3 8.7 1.1 5.9 2.5 11.7 4.2 17.5 2.2 7.3 4.8 14.3 7.9 21.2 2.5 5.4 5.3 10.6 8.4 15.6 5.3 8.4 11.5 16.2 18.8 23.2 3.7 3.5 7.6 6.9 11.6 9.9 4.6 3.5 9.4 6.9 14.5 9.7 3.9 2.4 7.9 4.4 11.9 6.6 1.5.8 2.8 1.6 4.3 2.5h.2c.2-2.9.2-6.1.4-9 .1-2.1.2-4.2.4-6.2.2-2.9.7-5.9 1.3-8.7 1.4-6.5 3.8-12.4 7.9-17.6 2.8-3.6 6.3-6.5 10.3-8.7 5.6-3 11.7-4.6 18.1-5 4.3-.2 8.6.1 12.9 1.1.8.2 1.6.3 2.3 1 1.3 1.4 2.6 2.6 3.8 4 3.9 5.2 4.9 11.1 3.8 17.4-.4 2.3-1.1 4.5-1.6 6.8-.1.3-.2.7-.2 1.1 1.1.1 2.2.2 3.2.3 2.2.2 4.3.5 6.5.6 4.5.2 8.9.2 13.4-.3 1.8-.2 3.5-.2 5.3-.5 3.3-.5 6.6-1.1 9.9-1.8 5.6-1.1 11-3 16.2-5.5 4.5-2.2 8.7-4.8 12.5-8 4.6-4 8.3-8.7 11.2-14.1 2.7-5.3 4.4-11 5.3-16.9.1-.5.2-.9.6-1.2.8-.9 1.7-1.8 2.5-2.8 2.2-2.9 3.6-6.3 4.4-9.8.3-1.6.4-3.1.7-4.7.2-1.6.2-3.1 0-4.7-.1-.9-.2-1.9-.2-2.8.4-.2.8-.2 1.2-.4 6-2 11.1-5.1 15.2-9.9 1.6-2 3-4 4-6.5.3-.7.8-1.3 1.5-1.8 3.8-2.5 6.6-6 8.5-10 1.6-3.3 2.6-6.9 2.9-10.6 0-.2.2-.6.3-.8.2-.3.5-.6.7-.9 1.6-2.2 2.7-4.5 2.9-7.3 0-.2.2-.4.2-.7v-1.2c-.2-.4-.5-.8-.7-1.2-.2-.3-.6-1.2-1.2-2.1zm-3 7.6c-.7 1.6-1.6 2.9-2.9 4-.4.3-.6.7-.6 1.2-.1 6.1-2.2 11.5-6.3 16.1-1.4 1.6-2.9 2.6-4.7 3.6-.4.2-.7.5-.9 1-2.5 6.6-7.1 11-13.2 14.1-2.8 1.4-5.8 2.4-8.9 2.6-.1 0-.2.1-.3.1.2 1.1.6 2.3.7 3.3 1.1 5.7.6 11.2-2 16.4-1.1 2.5-2.7 4.6-4.8 6.3-.5.4-.6.9-.7 1.5-.4 3.6-1.2 7.3-2.5 10.7-3.2 9.3-9 16.8-17.2 22.3-6.1 4.1-12.7 6.8-19.6 8.6-5.3 1.4-10.7 2.3-16.2 2.7-4.9.4-9.7.5-14.6.3-1.1 0-2.4-.2-3.6-.2.2-.7.2-1.2.3-1.8 1.1-5.2 1.1-10.3-.7-15.4-1.8-5.2-5.1-9.2-9.2-12.6-.3-.2-.7-.4-1.1-.5-3.2-1-6.5-1.5-9.8-1.7-6.4-.4-12.5.3-18.5 2.3-13 4.2-21.5 12.9-26 25.5-1.7 4.7-2.6 9.5-3.1 14.4-.3 3.3-.5 6.6-.7 10-.2-.1-.3-.1-.5-.2-8.7-4.6-17.2-9.7-24.9-15.9-14.2-11-25.4-24.6-33.7-40.7-6.4-12.5-10.9-25.5-13.6-39.3-1.2-5.8-2.1-11.6-2.6-17.5-.7-7.5-.9-15-.4-22.6.2-4.3.6-8.5 1.1-12.9.5-4.4 1.2-8.8 2.7-13.2.1-.2.1-.2.1-.4 0-.1 0-.2-.1-.2-4.7-.2-9.4-.6-14.1-.8.1-.2.2-.3.2-.4C20.8 78.4 25.6 73 30.8 68c9.6-9.2 20-17.3 31.6-23.8 3.6-2.1 7.5-3.9 11.4-5.6.3-.2.7-.3 1.1-.5-1.2-6.7-.7-13.1 1.5-19.5 1.2.2 2.5.5 3.7.7 8.6 2 17.3 3.8 25.9 5.8 2 .4 3.8.7 5.7 1.1h.6c-2.7-3.8-3-8-3.3-12.5 1.4.2 2.5.5 3.7.7 4 .7 8 1.3 12.1 1.8 9.3 1.2 18.6 2.3 28 4.1 7 1.4 13.7 3.2 20.3 6.2 4.4 2.1 8.5 4.6 12 8 .3.3.7.5 1.1.7 9.8 3.2 19.5 7 28.9 11.3 3.5 1.6 7 3.3 10.4 5.2 2.1 1.1 4.2 2 6.4 2.6 6.1 2.1 11.7 4.8 16.8 8.7 1.3 1 2.5 2.2 3.6 3.1.6.5.7 1.1.5 1.7-.5 2.1-1.4 3.9-2.7 5.6-.2.2-.4.5-.7.9.4.2.7.3 1.1.5 7.2 3.7 13.4 8.5 18.7 14.6 1 1.1 1.8 2.5 2.6 3.6.3.5.7.9 1.2 1.2 3.7 2.2 7.3 4.6 10.4 7.5 1.9 1.7 3.5 3.5 4.8 5.7.2.3.3.7.6 1 .9 1.7.8 3.2.2 4.7z" fill="#c2b49b"/><path class="st6" d="M234.5 177.1zm53.7-69.3c-1.4-2.2-3-3.9-4.8-5.7-3.1-2.9-6.7-5.3-10.4-7.5-.5-.3-.9-.7-1.2-1.2-.8-1.3-1.7-2.5-2.6-3.6-5.2-6.1-11.5-11-18.7-14.6-.3-.2-.7-.3-1.1-.5.3-.3.5-.7.7-.9 1.4-1.6 2.3-3.4 2.7-5.6.2-.7.1-1.2-.5-1.7-1.2-1.1-2.5-2.2-3.6-3.1-5-3.9-10.6-6.8-16.8-8.7-2.2-.7-4.3-1.6-6.4-2.6-3.4-1.8-7-3.5-10.4-5.2-9.3-4.3-19-8-28.9-11.3-.4-.2-.9-.3-1.1-.7-3.4-3.4-7.6-6-12-8-6.5-2.9-13.2-4.7-20.3-6.2-9.2-1.9-18.6-2.9-28-4.1-4-.6-8-1.2-12.1-1.8-1.2-.2-2.5-.5-3.7-.7.2 4.4.6 8.7 3.3 12.5h-.6c-2-.3-3.8-.7-5.7-1.1-8.6-2-17.3-3.8-25.9-5.8-1.2-.2-2.5-.5-3.7-.7-2.3 6.5-2.7 13-1.6 19.5-.4.2-.7.3-1.1.5-3.8 1.6-7.7 3.4-11.4 5.6-11.5 6.5-22 14.5-31.5 23.8-5.2 5-10 10.4-14.7 15.8-.1.1-.1.2-.2.4 4.8.3 9.5.6 14.1.8 0 .2.1.2.1.2 0 .2-.1.2-.1.4-1.6 4.3-2.4 8.7-2.7 13.2-.4 4.3-.7 8.5-1.1 12.9-.5 7.6-.2 15 .4 22.6.6 5.9 1.5 11.7 2.6 17.5 2.8 13.7 7.3 26.8 13.6 39.3 8.2 16.1 19.4 29.7 33.7 40.8 7.9 6.1 16.2 11.3 24.9 15.9.2.1.3.1.5.2.2-3.3.4-6.7.7-10 .4-4.9 1.5-9.7 3.1-14.4 4.6-12.8 13.2-21.4 26-25.5 6.1-2 12.3-2.6 18.5-2.3 3.3.2 6.6.7 9.8 1.7.4.1.8.2 1.1.5 4.3 3.3 7.5 7.5 9.2 12.6 1.8 5.1 1.8 10.2.7 15.4-.1.6-.2 1.1-.3 1.8 1.3.1 2.5.2 3.6.2 4.9.2 9.8.1 14.6-.3 5.5-.5 10.9-1.4 16.2-2.7 7-1.9 13.6-4.5 19.6-8.6 8.2-5.6 14-12.9 17.2-22.3 1.2-3.4 2.1-7 2.5-10.7.1-.6.2-1.1.7-1.5 2.1-1.7 3.7-3.8 4.8-6.3 2.5-5.2 2.9-10.8 2-16.4-.2-1.1-.5-2.3-.7-3.3.2-.1.2-.1.3-.1 3.1-.2 6.1-1.2 8.9-2.6 6.1-3 10.8-7.6 13.2-14.1.2-.5.5-.7.9-1 1.8-1 3.3-2.1 4.7-3.6 4.1-4.6 6.2-10 6.3-16.1 0-.5.1-.9.6-1.2 1.4-1.1 2.3-2.5 2.9-4 .7-1.6.7-2.9-.3-4.3-.1-.7-.3-1.1-.5-1.5zm-183.8 54.8c-4.4-2.4-9.2-3.4-13.9-4.9-2.1-.7-4.2-1.4-6.4-2.1-1.1 1.2-2.2 2.5-3.1 3.7-3.8 5-6.7 10.5-8.5 16.5-1 3.2-1.6 6.5-1.8 9.7-.1 2.2-.2 4.3-.2 6.5.2 3.3.8 6.8 1.8 10.1 1.5 4.8 3.6 9.2 6.5 13.3.1.2.2.3.5.7.2-1.1.3-2.1.5-3.1 1.1-6.7 3.1-13 6.4-18.8 1.1-2.1 2.5-3.8 4.1-5.5.2-.2.6-.4.8-.6l.1-.1-.1.1c-.3 1.2-.6 2.5-.9 3.5-1.1 3.8-1.9 7.7-2.4 11.5-.2 2.1-.3 4.1-.5 6.1-.1 1.6-.2 3-.2 4.6.1 2.6.3 5.3.7 7.9.6 3.8 1.6 7.5 2.8 11.1.1.2.1.2.1.4 0 0 0 .1-.1.2-.7-.4-1.3-.8-1.9-1.2-3.6-2.6-7.3-5.3-10.6-8.3-2.6-2.4-5.1-4.7-7.5-7.2-4.1-4.3-7.9-8.8-11.2-13.7-4.4-6.3-8.2-13-11.5-19.9-1.7-3.7-3.2-7.6-4.7-11.4-2-5.1-3.3-10.2-4.7-15.5-1.1-4.5-2.1-9-2.6-13.7-.4-2.8-.7-5.7-1.1-8.5-.2-1.9-.3-3.7-.4-5.5-.1-2-.2-3.8-.2-5.7 0-1-.2-2.1-.2-2.9 0-2.4.1-4.7.2-7.1.3-5 .8-10 1.9-14.9.9-4.2 2-8.3 3.8-12.1 1.1-2.1 2.5-3.9 3.6-5.9.2-.4.6-.9.9-1.5H33.8c.9-1.9 12.4-12.4 19.9-17.9 7.2-5.2 14.7-9.9 22.8-13.8.3.7.7 1.4.9 2.1 2.6 6.1 6.1 11.4 11.1 15.7 2.5 2.2 5.1 4.3 7.7 6.4 2.6 2.1 5 4.3 6.6 7.3.9 1.6 1.5 3.3 1.7 5.2.4 2.6.2 5.3-.4 7.9-.1.5-.3 1-.6 1.5-1.7 3.2-3.4 6.5-5 9.7-2.7 5.7-5.2 11.5-7.4 17.5-2.2 6.1-4 12.3-5.5 18.5-.9 4-1.8 8-2.2 12.2-.1.6-.2 1.1-.2 1.8 7.5 2.8 14.6 6.1 21.4 10.3.2-.2 0-.2-.2-.2zm131.9 21.9c-.2.7-.3 1.6-.5 2.3-.1.2-.2.5-.2.7-1.9 5.2-4.4 10.1-7.9 14.4-2.9 3.6-6.5 6.5-10.6 8.8-6.1 3.3-12.6 5.6-19.5 6.9-2.6.5-5.3.8-8 .9-1.8.1-3.6.2-5.4.2H183c-.1-.4-.2-.7-.3-1.1-.9-4.2-2.5-8.1-4.6-11.9-2.5-4.4-5.6-8.3-9.3-11.8-2.6-2.4-5.3-4.3-8.3-6-4.8-2.7-10-4.6-15.5-5.6-2.5-.5-4.8-.9-7.4-1-.7 0-1.5-.2-2.1-.2-1.8-2.3-2.6-4.9-3.4-7.6-.9-2.8-1.6-5.7-1.7-8.7-.2-2.2-.3-4.3-.3-6.5 0-2.9.3-5.9.7-8.7.4-2.9 1-5.9 1.7-8.7.9-3.7 2.1-7.4 3.4-11 .1-.2.2-.5.3-1-.3.2-.5.2-.7.4-4.2 5.2-7.3 11.1-8.9 17.7-.8 3.1-1.5 6.3-1.6 9.6-.1 2.9-.2 5.8-.2 8.7 0 1.1.2 2.2.3 3.2.1.4.1.9.1 1.6-.4-.4-.7-.7-1-.9-7.3-7-14.9-13.4-23.4-18.8-1.3-.8-2.6-1.6-3.8-2.4-.7-.4-1-.9-1-1.7-.2-5.7.9-11.2 2.5-16.7 1.6-5.6 3.8-11 6.1-16.4 2.5-5.8 5-11.5 7.5-17.4 1.9-4.5 3.6-9.2 4.6-14 0-.1.1-.2.2-.4h1.1c2.3.1 4.5.2 6.8.2 4.6-.2 9.1-1.1 13.3-2.9 3.7-1.6 7-3.4 10.1-6.1.2-.1.2-.2.3-.5-.2.1-.4.1-.7.2-3.1 1.6-6.5 2.5-10 2.9-2.6.3-5.2.2-7.7.1-1.6-.1-3.1-.4-4.7-.6-.2 0-.5-.2-.9-.2 11.9-1.3 21.4-6.4 28.9-15.5-.6-1.1-1.5-1.8-2.3-2.5-5-4.6-11.1-7-17.6-8.7-4.2-1.1-8.3-1.9-12.7-2.5-6.4-1.1-12.9-2.1-19.1-3.7-4.5-1.2-8.9-2.7-13.2-5-.2-.2-.6-.2-.9-.4.4 3.2 1.6 6 3.2 8.6 2.7 4.2 6.4 7.5 10.5 10.3 4.6 3.2 9.6 5.7 14.7 7.9.1 0 .1.1.2.1-.1.1-.1.2-.2.2-2.5 1.1-4.9 2.1-7.6 2.1-1.6 0-3.2-.2-4.9-.5-2.5-.2-4.4-1.6-6.4-2.7-4.8-2.9-8.4-7-11-12.1-1.7-3.4-2.7-7.1-3-10.9-.1-1.9-.1-4-.1-6.1 0-1.5.3-2.8.6-4.3.4 0 .7-.1 1 0 3.7.7 7.4 1.5 11 2.1 3.7.7 7.5 1.3 11.2 2 2.5.4 4.9.8 7.5 1.1.9.2 1.8.2 2.6.2 1.4.1 2.7.2 4.1.2 2.8.2 5.7.5 8.5.8 3.4.3 6.9.9 10.2 1.7 4.6 1.1 9.1 2.6 13.2 4.7 3.8 2.1 7.4 4.3 10.6 7.2 1.6 1.4 3 2.8 4.6 4.3.1.1.2.2.6.4.1-3.7-.7-7-2.4-10.1-1.6-3.1-4-5.6-6.8-7.8 17.2 2.8 33.5 8.3 49.1 16.1-2.5.5-5 .9-7.5 1.9.7.1 1.5.2 2.2.2 3.8.2 7.7.9 11.5 1.7 4.3 1 8.6 2.2 12.9 3.7 4.4 1.7 8.7 3.6 12.7 6.5.7.5 1.4 1.1 2.1 1.7.5.4.7.9.6 1.5-.2 1.6-1.2 2.6-2.5 3.4-1.8-4.1-4.9-6.3-9.4-7 .3.3.5.6.7.8 2 1.7 2.9 3.9 2.9 6.5.1 1.1-.3 2.3-.5 3.3-.1.4-.2.7-.4 1.1.2 0 .3.1.4 0 1-.4 2-.2 2.9.1 4.3 1.2 8.2 3.2 12 5.5 3.6 2.2 7.1 4.7 10.3 7.5l.7.7c.1.1.1.2.2.4-2.2-.1-4.3-.2-6.3-.2 0 .1 0 .2-.1.2 8.3 3.6 16 8.2 21.5 16-.7.2-1.3.6-2 .7-2.7.7-5.5.8-8.3.3-3.9-.7-7.6-2.1-11-3.9-.5-.2-.8-.2-1.2.1-3.3 2.9-5.5 6.5-6.2 10.8-.3 2-.2 3.8 0 5.7 0 .2.1.2.2.5.2-.2.5-.2.7-.3 2.3-1.2 4.5-2.3 7.1-2.6 2.1-.3 4-.3 5.9.5 1.8.7 2.9 2.1 3.7 3.8.2.3.1.8 0 1.1-1.5 3.6-3.5 6.8-7 8.9-1.8 1.1-3.7 1.9-5.7 2.2-1.4.2-2.7.4-4 .4-2.1-.1-4.2-.3-6.3-.7-5.7-1-11.1-2.9-16.5-5.2l-14.4-6c-3.6-1.5-7.4-2.6-11.2-3.3-2.8-.5-5.6-.7-8.4-.4-3.9.3-7.8 1.5-11.4 3-5 2.4-9.5 5.4-13.6 9.1-3 2.6-6.1 5.5-8.9 8.3-2.6 2.6-5.1 5.5-7.7 8.1-.1.1-.2.2-.3.4.3.1.6.2.9.2 2.9.7 5.7 1.9 8 3.9.7.7 1.4 1.5 2.1 2.3.2.2.2.5.5.9-.6-.1-1-.1-1.3-.2-2.9-.7-5.7-1.3-8.6-2h-.4c.2.3.4.7.7.9 1.7 2 3.4 3.8 5.2 5.6 1.3 1.4 2.6 2.8 4 4.1 5.6 5.4 11.4 10.4 17.7 14.9 4.4 3.1 9 5.9 13.8 8.2 4.7 2.3 9.7 3.9 15 4.8 2.8.5 5.7.7 8.6.4 4.2-.4 8.3-1.1 12.4-2.6 3.3-1.1 6.3-2.8 8.7-5.6-.2 0-.1 0 0 0 0-.1 0-.2.1-.2l.1.1c-.1-.1-.1 0-.2.1zm-41.2-36.3c-1.3-2.1-2.3-4.3-2.7-6.7-.3-1.7-.5-3.4.1-5.2.1-.4.3-.7.5-1.2 2.3 1.4 4.3 2.7 6.5 4 .5-.5.9-.8 1.4-1.3.6.9.7 1.8.8 2.7.3 2.1.5 4.2 1 6.3.7 3.3 2.5 6.1 4.9 8.5 2.6 2.6 5.6 5 8.6 7.2.2.2.6.4.9.7-1.1 1-2.1 1.9-3.3 2.5-.1 0-.1.1-.2.1 0-.1 0-.2.1-.2.2-.5.5-.9.7-1.4-1.9-1.4-8.8-2.5-13.2-2.2.1-1.8.2-3.6-.2-5.4-1.6.2-3.1.4-4.6.6-1.5.2-2.9.4-4.4.7.2-2 .5-3.7.7-5.6-1.1-.2-2.2-.4-3.1-.6-4.1-.8-8.2-1.6-12.2-2.8-1.2-.3-2-1-2.4-2.2-.7-2.1-1.5-4.1-2.3-6.2-.5-1.4-1.2-2.6-2.2-3.8-.2-.3-.3-.6-.2-1 .7-2.5 3.8-5.2 6.4-5.2 1.6-.1 2.6.7 3.7 1.6 1.2 1.1 2.1 2.4 2.7 3.7.9 1.6 1.6 3.3 2.5 5 1 2 2.1 3.8 3.3 5.5 1.8 2.2 3.9 3.7 6.7 4.5h.2c.1 0 .2 0 .2.1.2 0 .5 0 .7.1-.4-1.1-1-2-1.6-2.8zm-8.1 22.2c-2.4.2-4.7.1-6.9-.7-.7-.2-1.3-.6-1.8-1-1.6-1.1-2.1-2.6-1.2-4.4.2-.7.7-1.2 1.1-2-4.7.2-8.3-1.9-11.3-5.4-1.3-1.6-2.4-3.2-2.6-5.5 3.9.7 7.9 1.5 11.7 2.1 3.8.6 7.8 1.2 11.7 1.8-.5 2-1.4 3.8-2.1 6 3.7 1.4 7.5 1 11.2.1.3 2-.8 3.3-1.6 5 4-.2 8-.6 12.1.8-.3.7-.6 1.3-.9 1.9-1.1 1.6-2.2 3-3.2 4.7-.2.2-.4.6-.6.8.1 0 .1 0 .2.1.1 0 .2.1.2 0 4.5-1.1 8.8-2.5 12.9-4.7 2.4-1.3 4.5-2.8 6.2-5.1.1.2.2.3.2.4 2.2 5.2 2.3 10.5.2 15.7-.3.8-.8 1.6-1.2 2.3-1.1 1.6-2.5 2.8-4.3 3.4-3.8 1.5-7.6 2-11.5.8-3.8-1.1-6.1-3.6-6.6-7.6-.1-.6-.2-1.1-.3-1.7l-.2-.2c-.2 0-.6.1-1 .1-2.1.2-3.9.2-5.9-.3-.8-.2-1.6-.6-2.3-1-1.7-1-2.4-2.6-2-4.5.2-.7.3-1.2.6-2-.1 0-.4 0-.8.1zm52.6 6.4zm6.2-13.1c-.3 3.8-1.6 7.3-3.8 10.3-.6.7-1.2 1.5-1.8 2.1-.1.2-.3.2-.6.2.7-1.7 1.4-3.3 1.7-5.2-1.6-.5-3-.3-4.7-.3.2.7.9.8 1.2 1.5-.8 1.7-1.9 3.3-3.3 4.7h-.1s.1 0 .1-.1c.1-.3.2-.7.2-.9 0-.1.1-.2.1-.3.3-1 .6-2 .9-2.9-1.7-.4-3.2-.4-4.9-.2.6.5 1 .9 1.4 1.3-1 2.3-2.5 4-4.2 5.7.7-3.4 1-7 .3-10.5.8-.7 1.8-1 2.7-1.1 1-.1 2.1 0 2.9 0-.2-.7-.4-1.3-.6-2 4.7-2.2 8-5.8 10.8-10.2.2.6.5.9.7 1.3 1 2.2 1.2 4.5 1 6.6zm4.3-14c-.1-1.2.6-2.2.7-3.3-1.2-.1-2.5-.2-3.5-.3-.9-.1-1.9-.2-2.7-.2-.6-.1-1.1.1-1.6.4-2.3 1.5-4.5 2.8-7 3.8-2.8 1.2-5.8 2-8.9 2.1h-.7c1.3-3.7 2.6-7.5 3.9-11.1-1.3-.1-2.6-.2-3.8-.3-1-.1-2-.1-2.9-.1-.5 0-.8-.2-1.1-.6-.8-1-1.4-2.1-1.9-3.1-.2-.4-.3-.9-.6-1.4-2.3 1-4.4 2-6.8 2.9-1.6-1.1-2.9-2.5-4.1-3.9-1.2-1.5-2.3-3-3.4-4.7-2.3 1-4.7 2.1-6.9 3.5-2.7-1.7-5.3-3.6-7.7-6.3 2.7-.4 5.2-.6 7.9-.4 6 .3 11.6 2.1 17.2 4.3 4.9 2 9.8 3.9 14.8 5.7 4.2 1.6 8.5 2.6 13 3.1 4.8.6 9.7.2 14.1-1.8.2-.1.6-.2.9-.2 1.8.2 3.5.3 5.3.6.1 0 .1.1.2.2-3.3 5.5-8.4 8.7-14.4 11.1zm24.7-20.8c-2.8 3.2-6.5 4.7-10.8 4.8.4-.5.7-1 1.1-1.4 2-2.4 3.3-4.9 4.3-7.8.2-.6.6-1 1.1-1.4 2.5-1.8 5.1-3 7.9-4.2.2-.1.3-.1.7-.2-.5 4.2-1.8 7.4-4.3 10.2zM234.5 177c0 .1 0 .1 0 0 0 .1 0 .1 0 0zm0 .1z"/><path class="st3" d="M236.3 184.5c-.1 0-.2 0-.2.1-.1 0-.1.1-.2.2-2.3 2.7-5.3 4.3-8.6 5.6-3.9 1.5-8.1 2.2-12.4 2.6-2.9.2-5.7.1-8.6-.4-5.2-.9-10.2-2.5-15-4.8s-9.4-5.1-13.8-8.2c-6.3-4.4-12.1-9.5-17.7-14.9-1.4-1.4-2.6-2.7-4-4.1-1.8-1.9-3.4-3.8-5.2-5.6-.2-.2-.4-.6-.7-.9h.4c2.9.7 5.7 1.3 8.6 2 .4.1.8.1 1.3.2-.2-.4-.3-.7-.5-.9-.7-.7-1.2-1.6-2.1-2.3-2.4-2.1-5.1-3.2-8-3.9-.2-.1-.6-.2-.9-.2.2-.2.2-.3.3-.4 2.5-2.7 5-5.6 7.7-8.1 2.9-2.9 5.9-5.6 8.9-8.3 4.1-3.6 8.6-6.8 13.6-9.1 3.6-1.7 7.4-2.7 11.4-3 2.8-.2 5.7-.1 8.4.4 3.8.7 7.6 1.8 11.2 3.3l14.4 6c5.4 2.2 10.8 4.2 16.5 5.2 2.1.3 4.2.6 6.3.7 1.4.1 2.7-.2 4-.4 2.1-.3 3.9-1.1 5.7-2.2 3.3-2.2 5.5-5.3 7-8.9.2-.3.2-.8 0-1.1-.7-1.7-2-3-3.7-3.8-2-.8-3.8-.8-5.9-.5-2.5.4-4.8 1.5-7.1 2.6-.2.1-.5.2-.7.3-.1-.2-.2-.3-.2-.5-.3-2-.3-3.8 0-5.7.7-4.3 2.8-7.9 6.2-10.8.4-.3.7-.4 1.2-.1 3.4 2 7.1 3.3 11 3.9 2.8.5 5.6.4 8.3-.3.7-.2 1.2-.5 2-.7-5.5-7.8-13.2-12.4-21.5-16 0-.1 0-.2.1-.2 2.1.1 4.1.2 6.3.2-.1-.2-.2-.3-.2-.4l-.7-.7c-3.2-2.8-6.7-5.2-10.3-7.5-3.8-2.3-7.8-4.3-12-5.5-1-.2-2-.5-2.9-.1-.1.1-.2 0-.4 0 .2-.4.3-.7.4-1.1.2-1.1.6-2.3.5-3.3-.1-2.5-1.1-4.7-2.9-6.5-.2-.2-.4-.4-.7-.8 4.5.7 7.7 2.8 9.4 7 1.4-.9 2.5-1.9 2.5-3.4.1-.6-.1-1.1-.6-1.5-.7-.6-1.4-1.1-2.1-1.7-3.8-2.8-8.2-4.7-12.7-6.5-4.2-1.6-8.4-2.7-12.9-3.7-3.8-.8-7.6-1.5-11.5-1.7-.7-.1-1.5-.2-2.2-.2 2.4-1 4.8-1.4 7.5-1.9-15.5-7.8-31.8-13.2-49.1-16.1 2.7 2.2 5.2 4.6 6.8 7.8 1.6 3.1 2.5 6.4 2.4 10.1-.2-.2-.4-.3-.6-.4-1.6-1.5-3-2.9-4.6-4.3-3.2-2.8-6.8-5.2-10.6-7.2-4.2-2.2-8.6-3.7-13.2-4.7-3.3-.7-6.8-1.4-10.2-1.7-2.8-.2-5.7-.6-8.5-.8-1.4-.1-2.7-.2-4.1-.2-.9-.1-1.8-.2-2.6-.2-2.5-.4-4.9-.7-7.5-1.1-3.7-.7-7.5-1.3-11.2-2-3.7-.7-7.5-1.5-11-2.1-.3-.1-.6 0-1 0-.2 1.5-.5 2.9-.6 4.3-.1 2.1 0 4.2.2 6.3.3 3.8 1.4 7.5 3 10.9 2.5 5.1 6.1 9.1 11 12.1 2 1.2 3.9 2.5 6.4 2.7 1.6.2 3.2.5 4.9.5 2.6 0 5.2-1 7.6-2.1.1 0 .1-.2.2-.2-.1-.1-.2-.1-.2-.1-5.2-2.2-10.1-4.6-14.7-7.9-4.1-2.8-7.8-6.1-10.5-10.3-1.7-2.6-2.8-5.4-3.2-8.6.4.2.7.2.9.4 4.2 2.2 8.5 3.8 13.2 5 6.3 1.7 12.8 2.6 19.1 3.7 4.3.7 8.4 1.5 12.7 2.5 6.5 1.7 12.6 4.1 17.6 8.7.8.7 1.7 1.5 2.3 2.5-7.5 9.1-17.1 14.1-28.9 15.5.5.2.7.2.9.2 1.6.2 3.1.6 4.7.6 2.6.1 5.2.2 7.7-.1 3.5-.4 6.9-1.4 10-2.9.2-.1.4-.2.7-.2-.1.2-.2.3-.3.5-3 2.5-6.5 4.5-10.1 6.1-4.3 1.8-8.7 2.6-13.3 2.9-2.3.2-4.5-.1-6.8-.2h-1.1c-.1.2-.2.3-.2.4-1.1 4.8-2.7 9.4-4.6 14l-7.5 17.4c-2.3 5.4-4.4 10.8-6.1 16.4-1.6 5.4-2.6 11-2.5 16.7 0 .8.2 1.3 1 1.7 1.4.7 2.6 1.6 3.8 2.4 8.4 5.4 16.1 11.9 23.4 18.8.2.2.6.5 1 .9 0-.7 0-1.1-.1-1.6-.1-1.1-.3-2.2-.3-3.2 0-2.9 0-5.8.2-8.7.2-3.2.8-6.5 1.6-9.6 1.7-6.5 4.7-12.4 8.9-17.7.1-.2.3-.2.7-.4-.2.5-.2.7-.3 1-1.4 3.5-2.6 7.3-3.4 11-.7 2.9-1.3 5.8-1.7 8.7-.4 2.9-.7 5.8-.7 8.7 0 2.2.2 4.3.3 6.5.2 2.9.8 5.9 1.7 8.7.8 2.6 1.7 5.3 3.4 7.6.7.1 1.4.2 2.1.2 2.5.1 4.9.5 7.4 1 5.5 1.1 10.6 2.9 15.5 5.6 2.9 1.7 5.8 3.6 8.3 6 3.8 3.3 6.9 7.4 9.3 11.8 2.1 3.8 3.7 7.8 4.6 11.9.1.3.2.7.3 1.1h1.2c1.8-.1 3.6-.2 5.4-.2 2.7-.1 5.4-.4 8-.9 6.9-1.2 13.3-3.4 19.5-6.9 4.1-2.3 7.6-5.2 10.6-8.8 3.5-4.3 6.1-9.1 7.9-14.4.1-.2.2-.5.2-.7.3-1.3.5-2.1.7-2.8zm-51-73c-1.7.2-3.4.5-5.1.8-4 1-7.7 2.8-11 5.2-2.1 1.5-3.8 3-5.6 4.7-3.8 3.5-7.1 7.7-10.1 11.9-2.6 3.8-5.2 7.7-7.3 11.8-.2.4-.5.7-.7 1.1-.1 0-.2-.1-.2-.1.3-1.6.5-3.3.9-4.9 1-4.3 2.5-8.3 4.3-12.4 2-4.2 4.3-8 7.5-11.5 2.2-2.5 4.5-4.6 7.4-6.2 2.8-1.6 5.8-2.6 9.1-2.9 3.8-.3 7.5.7 10.9 2.3-.2.1-.2.1-.1.2zm-42.9 32.9c-.1.7-.3.9-.9.8-.2 0-.4-.1-.6-.2-1.2-.7-2.5-1.5-3.5-2.3-1-.7-1.3-1.7-.8-2.8.5-1.1 1-2.3 1.6-3.3.8-1.4 1.9-1.2 2.5.2.3.8.6 1.6.8 2.5.4 1.6.7 3 1.1 4.6h-.1c-.1.2-.1.3-.1.5zm-.5-19.8c.1-.5.1-.9.1-1.4.1-.7.6-1 1.1-.6 1.4 1 2.6 2.2 3.3 3.7.2.4.3 1 .2 1.5-.2 1.8-.9 3.3-1.8 4.8-.2.3-.4.8-.9.7-.6-.1-.7-.5-.9-.9-.2-.5-.3-1-.3-1.5-.2-2-.4-4.2-.8-6.3zM145 100c.1-.8.1-1.6.2-2.5.3-1.6 1.5-1.9 2.6-.9 2.1 1.7 4.1 3.4 5.6 5.7.7 1.1.9 2.1.6 3.3-.5 2-1.6 3.4-2.6 5.1-.5.7-1.1 1.4-1.7 2.1-.2.2-.4.4-.7.6-1.1.7-2.1.6-2.6-.6-.5-.9-.7-1.9-.8-2.8-.2-2.5-.3-4.9-.5-7.4 0-.7 0-1.6-.1-2.6zm19.8 1.5c.9-1.1 2.1-1.4 3.4-1.1 1.6.2 3.1.8 4.6 1.5.5.2 1 .5 1 1.1 0 .6-.6.9-1 1.1-.6.2-1.1.5-1.8.6-2.4.6-4.7 1.1-7 1.6-.2.1-.6.1-.7.1-.3 0-.6 0-.8-.1-.6-.2-.7-.6-.6-1.1.1-.2.2-.3.2-.5 1-1 1.8-2.1 2.7-3.2zm-1.7-14.8c-1.6-.7-3.1-1.7-4.4-2.9-.7-.7-.8-1.4-.7-2.3.4-1.7 1.2-3.1 2.2-4.5.2-.3.7-.5 1-.7.4.2.7.2.9.5.3.5.7 1 .9 1.5.7 2.4 1.2 4.7 1.7 7.1.2 1.1-.6 1.7-1.6 1.3zm2.7 5.6c1.8-.8 3.5-1.6 5.8-1.6.4-.1 1 .2 1.5.7 1.2 1.4 1.9 2.9 2.3 4.7.2 1.2-.2 1.6-1.4 1.6-.5 0-1.1-.2-1.5-.3-2-.9-3.8-1.9-5.7-2.7-.4-.2-.8-.5-1.1-.8-.7-.6-.6-1.3.1-1.6zm20.1 14.6c-.6.3-1.1.5-1.7.6-2.5.3-4.8-.3-6.9-1.9-.5-.4-.8-.8-.9-1.6.2-.1.4-.2.7-.2 1.1-.2 2.2-.2 3.2-.4.7-.1 1.6 0 2.2.3 1.1.6 2.3 1.2 3.3 1.9.7.3.7 1 .1 1.3zm24.9 3.5c-.5.2-1.1.2-1.6.2h-3.8v-.1h-4.1c-.6 0-1.2-.2-1.8-.3-.7-.2-.8-.8-.2-1.3 1.5-1.2 2.9-2.3 4.6-2.9.7-.2 1.4-.3 2.1-.2 2.1.6 3.7 1.6 5.2 2.9.9.8.8 1.3-.4 1.7zm3.8-5c-.5-.6-.3-1.1.2-1.5.6-.3 1.1-.6 1.7-.7 1.2-.4 2.5-.7 3.7-1.1.7.1 1.3.3 1.8.9 1.3 1.5 2 3.2 2.4 5.1.2.7-.4 1.3-1.1 1.3-.5 0-1.1-.1-1.6-.2-2.2-1.1-4.3-2.1-6.5-3.1-.3-.3-.4-.5-.6-.7zm13.9 12.5c-.5-.2-1-.2-1.5-.4-2.1-.9-3.9-1.9-5.9-2.8-.3-.2-.7-.4-1-.7-.5-.5-.4-1.2.2-1.5 1.9-.8 3.7-1.7 5.7-1.6.5 0 1 .2 1.3.6.2.2.5.5.7.8.9 1.2 1.4 2.6 1.8 4 .4.9-.1 1.6-1.3 1.6zm27.5-16c-1 .2-2 .2-2.9.2-.3 0-.7-.2-1-.3-1.3-1-2-2.3-2.5-3.8.7-.4 1.1-.3 1.6-.1 1.6.9 3.1 1.8 4.7 2.7.1.1.2.2.3.2.5.6.4 1.1-.2 1.1zm7.4 3.5c-1.7-.2-3.3-.7-4.3-2.5 1.2-.6 2.5-.5 3.4-.6 1.6 0 2.6 1.2 4.1 1.9-.9 1.2-2 1.3-3.2 1.2zm7.4-2.6c.7.7 1.2 1.5 1.6 2.4-.1.1-.1.2-.2.2-.2 0-.6 0-.8-.1-1.5-.8-2.8-1.6-4.3-2.5l-.7-.7c1.7-.7 3.3-.4 4.4.7zm-10.7-4.9c2.1-.7 3.9-.4 5.7.7.4.2.8.5.5 1.1-1 .2-2 .5-2.9.7-.3.1-.8.1-1.1 0-1.1-.4-2.1-.8-3-1.3-.1-.1-.2-.2-.2-.3.1-.5.5-.8 1-.9zm-5-4.1c.4 0 .8.1 1.2.2.9.5 1.8 1.1 2.6 1.6 0 .6-.3.7-.7.9-1 .4-2 .3-2.9.2-1.1-.2-2.2-.7-3-1.4-.4-.3-.4-.4-.4-1.1 1.1-.3 2.1-.4 3.2-.4zm-8.2-10.3c.2-.1.5-.2.7-.1.5.2 1.1.4 1.5.7 1.4.8 2.6 1.6 4 2.5.3.2.7.4.6 1.1-1.3 0-2.6.2-3.9-.2-.5-.2-1-.4-1.3-.8-.7-.8-1.1-1.6-1.6-2.5-.1-.3-.1-.7 0-.7zm-2.3 3.9c1.5.1 2.8.3 3.9 1.2.7.6.8 1.6 1.1 2.5.1.6.2 1.1.2 1.6 0 .2-.1.7-.2.7-.2.1-.7 0-.8-.2-.6-.5-1.1-1-1.6-1.6-.7-.9-1.5-1.9-2.1-2.7-.2-.4-.6-.8-.5-1.5zm1.9 8.3c.3.8 0 1.2-.9 1.1-.4 0-.7-.2-1.1-.3-2.1-1.1-3.9-2.1-6-3.1-.2-.2-.5-.3-.7-.6-.5-.6-.3-1.1.3-1.2 1.2-.3 2.5-.5 3.7-.8.8.1 1.6.4 2.1.9 1.3 1.2 2 2.5 2.6 4zm-12.6-15.2c.1-.6.7-.7 1.1-.7l3.3-.6c1 .1 1.6.5 2.3 1.1 1 1.1 1.6 2.4 2.1 3.6.3.8 0 1.3-.9 1.2-.4 0-.8-.2-1.1-.3-2-1.1-3.8-2.1-5.8-3 0 0-.1 0-.1-.1-.5-.4-1.1-.6-.9-1.2zm2.3 5.3c.7.5 1.6.9 2.1 1.8-.3.7-1.1.8-1.7.8-2.3 0-4.5-.1-6.8-.2-.4 0-.8-.2-1-.7.3-.7 1.1-1.1 1.6-1.6 1.9-1.4 3.9-1.5 5.8-.1zm-8.6-13.1c.3-1.1.5-2.3.7-3.3.2-.8.6-1 1.2-.4.3.2.7.7.8 1.1.7 1.3 1.1 2.6 1.1 4.2-.2 1-.4 2-.6 2.9-.1.3-.2.7-.4 1-.2.3-.6.7-.9.7-.5.1-.5-.5-.6-.8-.4-.9-.7-1.8-1.1-2.6-.3-1.3-.4-2-.2-2.8zm-10.1-13.9c1.1.2 2.4.5 3.4.8 1.2.3 2.5.7 3.7 1.2.4.2.8.3 1.1.7.6.4.6 1.1 0 1.5-1.6 1.1-3.3 2.1-5.2 2.6-.7.2-1.4-.1-2.1-.7-1.1-1.1-2-2.4-2.6-3.7-.5-1.3-.1-2.4 1.7-2.4zM215 74.6c.3.7.2 1.3-.7 1.5-.8.2-1.6.3-2.5.5-1.2.1-2-.5-2.4-1.6-.6-1.5-1.1-2.9-1.1-4.4 0-.9.4-1.1 1.2-.7.5.2.9.6 1.4 1 1.1 1.1 2.3 2.1 3.4 3 .5.2.5.5.7.7zM204.1 57c.3-.1.7-.2 1.1-.2 1-.1 2.1-.1 2.9 0 .7 0 1.3.3 1.9.8 1.1 1.1 1.7 2.3 2.2 3.5.1.2.1.5.1.7-.7.3-1.3.2-1.9-.2-2-1.1-3.8-2.3-5.7-3.4-.4-.3-.7-.6-.6-1.2zm-5.4 4.6c.1-.7.3-1 1-1 .6 0 1.2.1 1.7.3 2.1 1.1 3.9 2.2 5.9 3.3.3.2.6.5.8.7.5.6.4 1.3-.3 1.6-1.7.7-3.4 1.2-5.6 1.3-.6.1-1.2-.3-1.7-1.1-1-1.4-1.5-2.8-1.8-4.4v-.7zM189 50c.7-.1 1.5.2 2.1.6 1.9 1.1 3.7 2.1 5.6 3.1.2.1.4.2.6.4.8.8.7 1.6-.4 2-1.6.6-3.1 1.1-5.2 1.2-.7.1-1.5-.3-2.1-1.2-1-1.5-1.4-3-1.7-4.7-.1-.8.4-1.4 1.1-1.4zm-19.1-9.3c.8-.2 1.6 0 2.4.2 4 1.2 7.9 2.6 11.9 4.3.4.2.8.4 1.1.7 1 .8.9 1.5-.3 1.9-1.4.5-2.7 1-4.1 1.3-.9.2-1.9.3-2.8.5-1.1 0-2-.3-2.8-.9-1.8-1.1-3-2.6-4.3-4.3-.4-.5-.8-1.1-1.1-1.6-.2-.2-.4-.6-.5-.9-.5-.8-.3-1 .5-1.2zm-.7 18.9c.7-.7 1.3-1.4 2.1-2 1.4-1.1 2.8-2.1 4.3-2.9 1.6-1 3-1.1 4.7-.1 1.8 1 3.2 2.4 4.6 3.8.3.3.6.7.9 1.1.2.3.6.7.7 1 .7 1.1.4 2.1-.8 2.5-.5.2-1.1.3-1.7.4-.7.1-1.2 0-1.9 0v.1c-2.5-.2-4.8-.5-7.3-.7-1.2-.2-2.5-.2-3.6-.5-.7-.1-1.4-.3-1.9-.8-.5-.8-.7-1.3-.1-1.9zm2.5 8.1c1.9-.5 3.8-.9 5.7-1 1.1-.1 2.3-.2 3.3-.2 2.4 0 4.6.3 7 .7 3.7.7 7.4 1.3 11 2 .5.1.7.3 1 .7 1.2 1.6 2.5 3 3.7 4.5 1.9 2.3 3.8 4.3 6.4 5.9 1.1.7 2.2 1.2 3.3 1.5 1.6.3 3-.4 3.8-1.9.7-1.2 1-2.5 1-3.8 0-1.1-.1-2.2-.2-3.3v-1.5c.6.2 1.1.5 1.6.7 3.7 2.1 6.5 5 7.9 9.1.4 1.2.6 2.5.3 3.7-.2 1.2-.8 2.3-1.8 3l-.6.6c2.3 1.1 4.5 2.2 6.7 3.3s4.3 2.6 6.5 3.9c2.1 1.4 4.1 2.8 6.1 4.4-.5.7-.9 1.4-1.4 2.1-1.2 2.1-2 4.3-2.1 6.7-.4 4.7.8 8.8 3.7 12.6.1.2.2.3.2.5h.1v.1l-.1-.1c-1 0-1.9-.3-2.7-.7l-.4-.2c-2.6-1-5.2-2.3-7.1-4.3-1.7-1.7-2.7-3.8-3.7-6-.9-2.1-1.8-4.2-3.3-6.1-1.5-1.8-3.1-3.1-5.2-4-1.1-.5-2.5-.7-3.7-.7-2.7-.2-5.3.4-7.9 1.4-2.5 1-4.9 2.1-7.4 2.9-2.6 1-5.3 1.2-8 1-2.8-.2-5.6-1-8.2-2.2-2.5-1.1-4.7-2.4-7.2-3.5-.1-.1-.2-.2-.5-.4h1.1c2.7.4 5.6.6 8.3.3 3.4-.2 6.9-.7 10.1-2.2 1-.5 1.9-1.1 2.6-1.9.5-.6.8-1.2.7-2.1-.7-.2-1.5.1-2.1.4-1.6.8-3.2 1.4-4.9 1.8-4.6 1.1-8.8.2-12.9-2.3-2.2-1.5-4.2-3.1-5.9-5.1-2.1-2.3-3.9-4.7-5.9-7-.1-.1-.1-.2-.2-.5.5.1.8.2 1.1.2 2.6.7 5.4 1.4 8.1 1.6 2.8.2 5.6-.1 8.4-.5 3.1-.5 6.2-1.1 9.3-1 .1 0 .2 0 .6-.1-.4-.2-.6-.4-.7-.5-4.9-2.5-10-4.2-15.3-5.2-3.3-.7-6.9-1.2-10.3-1.5-2-.2-3.8-.3-5.8-.4-2.3-.2-4.5-.2-7-.3.6-.3 1-.7 1.5-.9 3.7-1.4 7.4-3.1 11.4-4.2zm-7.1-8.3c.7 0 1.1.5.8 1.2-.2.4-.3.9-.6 1.2-2 2.5-3.8 4.7-5.9 7.2-.7.8-1.5 1.4-2.6 1.2-.2-.1-.7-.2-.7-.4-.8-1.4-1.6-2.8-1.6-4.7-.2-.8.3-1.5 1.1-2.1 1.5-1.1 3.1-1.8 4.8-2.5.9-.4 1.9-.7 2.8-.9.8-.1 1.4-.2 1.9-.2zm-70-22.1c-1.1-.5-2.2-1-3.2-1.6-1.3-.7-2.6-1.5-3.8-2.2-.5-.3-1.1-.6-1.2-1.4 1.5-.3 2.7-.3 4.1-.2 2.1.1 3.3 1.5 4.3 3 .4.7.7 1.4 1.1 2.1-.4.6-.9.5-1.3.3zm12.8-.2c-.4.3-1 .6-1.4.8-.9.6-1.9.6-2.7.4-1.3-.2-2.5-.7-3.6-1.5-.7-.5-.7-.9.1-1.2.4-.2.9-.3 1.4-.4 2-.2 3.9-.3 5.9-.5.7-.1 1.4-.3 2.1 0 .2.1.4.2.7.3-.8 1.2-1.7 1.6-2.5 2.1zm14.3 5.2c-2.5-.7-4.9-1.5-7.4-2.3-.2 0-.2-.1-.3-.2-.7-.5-.7-1 .1-1.3 1.4-.7 2.7-1.2 4.3-1.1.4 0 .9.1 1.3.3 1.6.9 2.6 2.2 3.5 3.6.1.2.1.3.2.5-.4.6-1.1.7-1.7.5zm10.2-1.2c-.9.6-1.9.7-2.8.3-1.1-.4-2.3-.8-3.3-1.3-.2-.1-.3-.2-.4-.4-.1-.1-.2-.2-.2-.3l.1-.1.1-.1c.1-.1.2-.1.2-.2.2-.1.2-.2.4-.2.6-.2 1.2-.3 1.8-.4 2.2-.2 4.3-.3 6.5-.5.5 0 1.1-.1 1.6.5-.2.2-.4.6-.7.7-1.3.6-2.3 1.3-3.3 2zm12.2 7.3c-.8-.2-1.6-.5-2.4-.7-2.1-.8-4.3-1.7-6.4-2.6-.4-.2-.9-.5-1.2-.8-.6-.5-.5-1 .2-1.3 1.6-.8 3.3-1.4 5.2-1.5.7-.1 1.3.2 2 .6 1.6 1.2 2.7 2.8 3.6 4.5.7 1.3.4 1.8-1 1.8zm9.1 4.9c-1.6.3-2.5-.9-3.1-2.2-1.1-1.8-1.6-3.7-2.1-5.7-.2-1 .3-2.2 1.8-2.1.7.1 1.4.2 2 .5 2.7 1.6 5.5 3 8.2 4.6.5.3 1 .7 1.3 1.1.6.7.3 1.6-.6 2-2.2.9-4.5 1.8-7.5 1.8zm3.9 35.3c1.2-.2 2.2.4 2.9 1.3 1.5 1.7 2.5 3.6 3.2 5.8.4 1.3-.1 2-1.5 2h-.3v.1c-.6-.2-1.1-.2-1.7-.4-2.8-1.2-5.6-2.5-8.3-3.6-.5-.2-1-.6-1.4-.9-.7-.7-.6-1.6.3-2.1 2.1-1.1 4.4-1.9 6.8-2.2zm-18.3-5.8c.4-.6.9-1.2 1.5-1.6 2.5-1.4 5-2.6 7.5-3.9.5-.2 1-.4 1.5-.5 1.1-.2 1.8.5 1.6 1.6-.4 2.4-1.1 4.6-2.1 6.8-.7 1.4-1.6 2.1-2.8 2-2.1-.1-3.8-.6-5.3-1.3-.5-.2-1.1-.4-1.5-.7-.8-.8-.9-1.6-.4-2.4zm-21.5 15.1c.9-1.8 1.9-3.4 2.9-5.1.9-1.4 2-2.6 2.9-3.9l.7-.7c.8-.8 1.8-1.4 2.8-1.1 1.4-.1 2.5.4 3.5.9 2.4 1.1 4.4 2.6 6.4 4.3.3.3.7.7.9 1 .9 1.4.9 2.5-.6 3.8-.7.7-1.7 1.1-2.7 1.4-4.2 1.1-8.3 2-12.7 2.6-.5.1-1 .2-1.5.2s-1 0-1.5-.1c-1.4-.6-1.8-2-1.1-3.3zm-8.7 18.6c.2-.4.3-.8.6-1.3.9-2 2.1-3.8 3.3-5.5.3-.4.7-.7 1-1.1 1.1-1 2.4-1 3.4-.1 1 .8 1.6 1.8 2 2.9.9 3.3 1.9 6.6 2.7 10 .4 1.6.6 3.2.8 4.8v.5c-.2 1.5-1.2 2.2-2.6 2-.2-.1-.6-.2-.8-.2-3.3-1.6-6.6-3.2-9.4-5.6-.2-.2-.3-.2-.4-.4l-.2-.2-.1-.1c-.1-.1-.1-.2-.2-.2-.6-.7-1-1.6-.8-2.6 0-1 .4-2 .7-2.9zm3.1 32.6c-1.1 1.3-2.4 1.7-3.6 1.1-.7-.4-1.4-1-1.7-1.8-.6-1.3-1.1-2.5-1.5-3.8-1.1-3.8-2.2-7.9-2.8-11.8-.1-.5-.1-1.1 0-1.6.2-1.6 1.6-2.2 2.9-1.6.8.3 1.6.7 2.3 1.1 2.3 1.2 4.5 2.4 6.5 3.9.7.6 1.3 1.1 1.9 1.8.7.7.9 1.6.9 2.6-.1 1.6-.7 2.9-1.3 4.3-.8 2.1-2.1 4-3.6 5.8zm8.5 8.8c-.4.9-1.2 1-1.8.1-.4-.6-.7-1.3-.9-2-.7-2.4-1.3-4.7-1.9-7-.1-.5-.2-1-.1-1.5.1-.7.6-1.1 1.1-.7 1.6.9 3.1 1.9 4.3 3.3.5.6.7 1.3.7 2.1 0 2.1-.6 4-1.4 5.7zm7.2-23.8c-1 2.5-1.9 4.7-2.8 7.2-.2.4-.5.8-.8 1.2-.5.6-1 .5-1.3-.2-.4-.8-.7-1.6-.9-2.5-.2-.7-.3-1.5-.5-2.2-.2-.8-.1-1.6.4-2.3 1.3-1.9 3-3 5.1-4 .7-.3 1.1 0 1.2.7v.5h.1c-.2.6-.3 1.1-.5 1.6zm2-15.1c-.7.6-1.4 1.2-2.4 1-.9-.2-1.2-1.1-1.5-1.9-.7-2.7-1.4-5.4-1.4-8.3v-1.6c.1-1.1.5-1.9 1.4-2.5 1.3-1 2.8-1.4 4.3-1.7 1.7-.3 3.4-.6 5.2-.5 2.1.1 2.9 1.3 2.5 3.2-.2.7-.5 1.6-.9 2.2-2 3.4-4.5 6.7-7.2 10.1.1-.1 0-.1 0 0zm5.9-.5c-.2-.9.5-1.7 1.2-2.5 1.1-1.1 2.5-2.1 3.8-2.8.2-.1.4-.2.6-.2.6-.2 1 .1 1 .7s0 1.1-.2 1.6c-1 2.6-2.1 5.3-3.1 7.9-.2.4-.4.7-.7 1-.5.5-1 .4-1.2-.2-.8-1.8-1.3-3.5-1.4-5.5zm.9 10.2zm-2.6 22.4c.2-.7.7-1 1.3-.7 1.5.8 2.7 1.8 3.9 2.9.7.7 1 1.6.9 2.5-.2 2-.7 3.8-1.6 5.5-.4.9-1.1.9-1.6.1-.3-.4-.6-.9-.7-1.4-.7-2.7-1.5-5.5-2.2-8.2-.1-.1-.1-.4 0-.7zm8.3 23.9c-.4 0-.9 0-1.2-.2-2.3-1.1-4.5-2.2-6.8-3.2-.2-.1-.3-.2-.5-.4-.5-.6-.5-1.4.2-1.6 1.9-.8 3.7-1.7 5.8-1.6.4 0 .8.2 1.1.5 1 .7 1.5 1.8 1.9 2.9.3.7.5 1.6.7 2.1.1 1.1-.2 1.5-1.2 1.5zm1.1-16.9c-.6-1.4-.7-2.8-.7-4.3.1-1.2 1-1.7 2.1-1.1.6.3 1.1.7 1.6 1.1 1.3 1.2 2.6 2.4 3.8 3.5.2.2.3.3.4.6.4.8.2 1.5-.8 1.6-.9.1-1.8.2-2.7.2-.6-.1-1.1-.2-1.8-.2-1 0-1.6-.5-1.9-1.4zm1.8 7.1c-.3-.6-.2-1 .3-1.2.2-.1.2-.1.4-.1h.7c1.2-.1 2.3.5 3.3.9l5.4 2.1c.4.2.8.5 1.2.8.4.4.4.7-.1 1.1l-.1.1c-1.8.9-3.6 1.6-5.6 1.6-.6 0-1.2-.3-1.7-.7-1.7-1.4-2.9-2.8-3.8-4.6zm11.7 14.1c-.2.3-.7.5-1 .6-.3.1-.7.1-1.1.1v.1c-2.5-.3-4.9-.7-7.5-1h-.1c-.5-.2-1.2-.2-1.3-.8-.2-.7.5-.9.9-1.1 1-.6 1.9-1.1 2.8-1.6 1-.5 2-.4 2.9 0 1.5.7 2.7 1.7 3.9 2.7.4.2.7.6.5 1zm7.8 2.8c0 .2-.1.4-.2.6-.3.6-.7.7-1.1.2-.4-.3-.7-.7-1-1.2-1.1-2.3-2.1-4.6-3-7-.2-.3-.2-.8-.2-1.2 0-.6.3-.7.8-.6 1.5.6 2.8 1.3 3.9 2.3 1.1.9 1.1 2.1 1.2 3.3-.1 1.2-.3 2.5-.4 3.6zm11.6 13.1c-.1.5-.4.7-.9.5-.3-.2-.7-.3-1-.7-1.6-2-3.2-3.9-4.7-5.9-.2-.2-.2-.5-.3-.7-.1-.4.1-.7.5-.7h.4c1.2.3 2.5.7 3.5 1.1 1 .3 1.6 1.1 1.9 2.1.2 1.1.5 2.3.7 3.3h-.2c.1.3.1.7.1 1zm.6-9.7c-1.4 0-2.7 0-4.1-.1-1.1-.1-2-.7-2.6-1.6-.7-.9-1.3-1.9-1.9-2.8-.2-.2-.2-.7-.2-1 1-.4 1.7.1 2.5.5 1.3.7 2.6 1.6 3.8 2.3.7.4 1.4.8 2.1 1.3.4.2.7.7 1.2 1.1-.4.1-.6.3-.8.3zm8.9 10.8c-.4-.1-.7-.1-1.1-.2-1-.4-2.1-.9-2.9-1.4-1.1-.6-1.6-1.5-1.6-2.6-.1-1.2 0-2.5 0-3.7 0-.2.1-.4.2-.6.2-.5.6-.7 1-.3.3.2.7.6.9 1 .8 1.3 1.6 2.5 2.3 3.8.4.7.8 1.5 1.1 2.2.2.4.4.9.1 1.8z"/><path class="st3" d="M236.3 184.4c-.1 0-.1.1-.2.1 0 0 .1 0 .2-.1zm0 .1c-.2.7-.3 1.6-.5 2.3.1-.8.3-1.6.5-2.3zM83.9 150.6c.4-4.1 1.3-8.1 2.2-12.2 1.5-6.3 3.3-12.4 5.5-18.5 2.1-6 4.6-11.9 7.4-17.5 1.6-3.3 3.3-6.5 5-9.7.2-.5.5-.9.6-1.5.6-2.6.8-5.2.4-7.9-.2-1.8-.8-3.5-1.7-5.2-1.6-2.9-4-5.2-6.6-7.3-2.6-2.1-5.2-4.2-7.7-6.4-4.9-4.3-8.5-9.7-11.1-15.7-.2-.7-.6-1.3-.9-2.1-8 3.9-15.6 8.6-22.8 13.8-7.7 5.6-19.3 16.1-20.1 18h10.6c-.3.6-.7 1-.9 1.5-1.2 2-2.5 3.8-3.6 5.9-2.1 3.8-3 7.9-3.8 12.1-1.1 4.9-1.6 9.9-1.9 14.9-.2 2.4-.2 4.7-.2 7.1 0 1 .1 2.1.2 2.9.1 2 .1 3.8.2 5.7.1 1.9.2 3.7.4 5.5.3 2.8.7 5.7 1.1 8.5.6 4.6 1.6 9.2 2.6 13.7 1.3 5.2 2.7 10.5 4.7 15.5 1.5 3.8 2.9 7.7 4.7 11.4 3.2 7 7 13.6 11.5 19.9 3.3 4.8 7.2 9.4 11.2 13.7 2.5 2.5 4.9 4.8 7.5 7.2 3.3 3 6.9 5.7 10.6 8.3.7.4 1.2.8 1.9 1.2-.1-.1-.1-.2-.1-.2 0-.2 0-.2-.1-.4-1.3-3.6-2.3-7.4-2.8-11.1-.4-2.6-.6-5.3-.7-7.9-.1-1.6.1-3 .2-4.6.2-2.1.2-4.1.5-6.1.5-3.8 1.3-7.8 2.4-11.5.3-1.2.6-2.5.9-3.5-.2.2-.6.3-.8.6-1.7 1.6-2.9 3.4-4.1 5.5-3.2 5.9-5.4 12.2-6.4 18.8-.2 1-.3 2-.5 3.1-.2-.3-.3-.5-.5-.7-2.9-4.1-5.1-8.5-6.5-13.3-1-3.3-1.6-6.7-1.8-10.1-.1-2.2.1-4.3.2-6.5.2-3.3.8-6.6 1.8-9.7 1.8-6.1 4.7-11.5 8.5-16.5 1-1.3 2.1-2.5 3.1-3.7 2.2.7 4.3 1.4 6.4 2.1 4.7 1.5 9.5 2.6 13.9 4.9.2.1.4.1.6.1-6.8-4.2-13.8-7.6-21.4-10.3 0-.6.1-1.2.2-1.8zm10.7-49.2c-.1 1.1-.3 2.1-.6 2.9-.4 1.3-.8 2.6-1.4 3.8-.6 1.5-1.6 2.2-2.6 2.1-2.7-.2-4.7-.8-6.7-1.8-1.3-.7-1.5-1.9-.5-2.9.4-.4.8-.9 1.3-1.1 2.5-1.4 4.9-2.6 7.5-3.9.4-.2.9-.3 1.4-.4 1-.2 1.7.3 1.6 1.3zm-10-18.3c.4-2 1.4-3.6 2.4-5.3.7-1.1 1.4-2.1 2.2-3.1.2-.4.7-.7 1-1.1 1.2-1 2.5-1 3.8.2.7.7 1.3 1.6 1.6 2.5 1.5 4.4 2.6 9 3.4 13.6V91c0 2.5-1.3 3.2-3.4 2.3-3.3-1.5-6.5-3.2-9.2-5.5-1.7-1.2-2.2-2.8-1.8-4.7zm-.9 13.6c-1 2.4-2.5 4.3-4.1 6.2-.2.2-.3.3-.6.5-.9.7-2 .6-2.5-.4-.4-.7-.8-1.6-.9-2.5-.2-2.1-.3-4.3-.5-6.5-.1-1.6-.2-3.2-.2-4.8 0-.7 0-1.5.2-2.1.4-1.3 1.4-1.6 2.5-.8 2 1.5 3.7 3.1 5.2 5.1.7.9 1.3 1.8 1.4 3.2 0 .6-.2 1.4-.5 2.1zm-24.9 27.7c2.1.7 4.1 1.3 6.1 2.1.7.2 1.2.5 1.7.9.9.7.8 1.6-.1 2.3-1.6 1.3-3.3 2.4-5.3 3.1-1.5.7-2.8.4-3.9-.7-.5-.5-1-1-1.4-1.6-.8-1.1-1.6-2.4-2.4-3.4-.2-.2-.3-.6-.4-.8-.7-1.6 0-2.5 1.6-2.5h.3v-.2c1.4.2 2.6.4 3.8.8zm-1.7-28.1c.1-1.6.7-2.5 2-3.2 1.6-.9 3.4-1.3 5.2-1.6.9-.2 1.9-.2 2.7-.3v.1h1.5c1.5.1 2.5 1.3 2.2 2.8-.2 1-.6 2-1.1 2.7-2.2 3.3-4.6 6.7-7.1 9.7-.1.2-.2.2-.3.4-1.6 1.4-3 1-3.6-1.1-1-3-1.6-6.2-1.5-9.5zm7.5 24.5c-.7.1-1.4 0-2.1-.2-1.1-.3-1.6-1.4-1.3-2.5.3-1.1.8-2.1 1.5-2.9 1.2-2 2.5-3.8 3.7-5.6.5-.7 1.1-1.4 1.8-2 .7-.7 1.6-1.2 2.6-1 1.6-.1 2.9.6 4.3 1.2 2.1 1.1 3.9 2.4 5.6 3.8.7.7 1.4 1.4 1.6 2.4.2 1.5-.8 2.3-1.9 2.9-.6.4-1.3.7-2 .9-4.4 1.5-9.1 2.4-13.8 3zm16.2-52.2c1.4 1.6 2.4 3.4 2.9 5.5.4 1.3-.1 2.1-1.5 2.1-.7 0-1.3-.1-2-.3-2.9-1.2-5.7-2.5-8.5-3.7-.5-.2-1-.7-1.4-1.1-.6-.6-.5-1.4.2-1.7 2.3-1.1 4.6-2.1 7.1-2.3 1.5-.2 2.4.6 3.2 1.5zm-15-9.8c.4-.6 1-1.1 1.6-1.3 2.6-1.4 5.2-2.7 7.8-4 .4-.2 1-.2 1.5-.2.7 0 1.1.3 1.1 1.1 0 .7-.1 1.3-.2 2-.5 1.7-1.1 3.4-1.7 5.2-.6 1.5-1.6 2.3-2.6 2.1-3-.3-5-.9-6.9-2-1.2-.7-1.5-1.7-.6-2.9zm.8 15.4c.5.1 1 .2 1.4.4 1.5.7 2 1.8 1.6 3.3-.2 1-.7 1.8-1.4 2.5-3.3 3.3-6.9 6.5-10.6 9.4-.6.4-1.2.8-1.9 1.1-1.4.5-2.5-.2-2.7-1.6-.2-1.2-.2-2.5-.2-3.5.1-2.7.2-5.5.9-8.1.4-2 1.6-3 3.4-3.4 1.8-.4 3.5-.7 5.4-.4 1.2.1 2.6.1 4.1.3zm-15.7-4.6c.7-1.1 1.6-2.1 2.4-2.9.9-1 2-1.4 3.3-1.1 1.6.2 3 .7 4.5 1.4.6.2 1.1.5 1.1 1.2s-.6 1-1.1 1.2c-1.1.4-2.3.7-3.4 1.1-1.5.3-2.9.7-4.4 1-.5.1-1 .2-1.2.2-.7-.1-1.3.2-1.6-.4-.4-.9.1-1.4.4-1.7zm-12.3 31.9c.1-.8.3-1.6.6-2.5.8-2.5 2.2-4.6 3.7-6.6.5-.7 1.1-1.3 1.8-1.9.9-.7 2.2-.6 3 .2.9.7 1.6 1.7 1.9 2.7 1.6 4.6 2.6 9.2 3.6 13.9.1.3.1.7.1.8v.4c0 1.9-1.5 2.9-3.2 2.1-2.1-1-4.1-2.1-6.1-3.2-1.6-.8-2.9-1.9-4.1-3-1-.7-1.5-1.7-1.3-2.9zm-.5 22.8c-.2-1.3-.3-2.6-.5-3.8.1-.7.2-1.5.3-2.1.3-1.2 1.3-1.9 2.4-2.4 1.6-.7 3-1.1 4.7-1.3 1.3-.2 2.6-.2 3.8-.2 1.8 0 2.6 1.1 2.5 2.8-.1.7-.3 1.6-.7 2.1-2.3 3.6-4.7 7.1-7.5 10.4-.2.2-.5.6-.8.7-1.2.8-2.6.4-2.9-1-.6-1.6-.9-3.4-1.3-5.2zm3.4 23.9c-1-.3-1.6-1-1.7-2.1.2-.5.2-.9.5-1.4 1.5-2.7 2.9-5.5 5-7.9.4-.5.9-1 1.3-1.5 1.3-1.4 2.9-1.9 4.7-1.2 1.5.6 2.9 1.1 4.2 2 1.6.9 2.9 2.1 4.3 3.1.4.3.7.7 1 1.1.7 1.1.4 2.5-.7 3.3-.8.7-1.8 1.2-2.9 1.6-4.2 1.1-8.5 2.1-12.9 2.6-.9.5-1.8.8-2.8.4zm12.3 28.2c-.2.2-.7.2-.9.3-1.1 0-1.8-.5-2.5-1.1-.8-.7-1.2-1.6-1.6-2.6-1.8-4.3-3.2-8.6-4.4-13.2-.2-.7-.3-1.5-.2-2.2.3-1.2 1.3-1.9 2.5-1.6 1.1.3 2.1.7 2.9 1.1 2.3.9 4.4 2 6.5 3.3.6.4 1.1.8 1.7 1.3 1.1.9 1.5 2.2 1.3 3.4-.2 2.4-1.1 4.5-2.3 6.5-.6 1.1-1.1 2.1-1.8 2.9 0 1-.6 1.5-1.2 1.9zm3.1 7c-.3-.2-.6-.3-.8-.6-.5-.5-.7-1.1-.4-1.7.3-.8.9-1.5 1.7-1.9 1.8-1 3.6-2.1 5.4-2.9.8-.5 1.7-.8 2.6-1.2.2-.1.3-.2.5-.2 1.1-.3 2.2 0 2.2 1.6-.4 1.4-.7 2.7-1.1 4.1-.2.9-.7 1.7-1.1 2.6-.7 1.5-1.5 2.1-3.3 1.9-2-.3-3.9-.9-5.7-1.7zm10.2 16.1c-1.6-.3-3-.8-4.5-1.6-.9-.5-1.5-1.1-1.7-2.1-.4-1.4-.5-2.6-.4-4 0-.7.1-1.3.2-2 .2-.8.7-1 1.4-.6.4.2.8.5 1.1.8 1.6 2.5 3.1 4.8 4.7 7.4.2.3.3.7.3.9-.1 1.2-.4 1.4-1.1 1.2zm6.7-37.9c-.7 2.1-2 3.8-3.3 5.4-.4.6-.9 1.1-1.4 1.6-1 .9-2.1.8-2.6-.3-.4-.7-.7-1.6-.8-2.3-.2-1.6-.3-3.2-.5-4.9-.1-1.7-.2-3.3-.2-5 0-.8-.1-1.6 0-2.4 0-.5.2-1.1.3-1.5.5-1 1.3-1.1 2.1-.5.7.6 1.5 1.1 2.2 1.8 1.4 1.3 2.7 2.6 3.8 4.2.9 1 1 2.4.4 3.9zm7-21.6c-.4 2.3-1.1 4.5-2.1 6.6-.7 1.5-1.6 2.1-3.2 2.1-1.6-.2-3.1-.6-4.7-1.2-.6-.2-1.1-.5-1.6-.7-.9-.6-1.1-1.6-.6-2.5.3-.5.7-.9 1.1-1.2 2.7-1.8 5.6-3.2 8.6-4.5 1.1-.5 1.9-.2 2.2.7.3.3.3.5.3.7zm1.6-8.2c-.7 0-1.3-.1-2-.3-2.1-.8-4.2-1.7-6.2-2.6-.9-.3-1.7-.7-2.5-1.2-.4-.2-.8-.4-1.1-.7-.8-.7-.7-1.7.3-2.2 1-.5 2-.8 2.9-1.2 1.3-.5 2.6-.8 4.5-.9.7-.1 1.6.7 2.4 1.5 1.1 1.3 2 2.8 2.6 4.3.2.4.3.8.5 1.2.3 1.4-.2 2.1-1.4 2.1z"/><path class="st3" d="M91.2 188.2c-.3 1.2-.6 2.5-.9 3.5.3-1.2.5-2.4.9-3.5z"/><path class="st7" d="M189.3 176.7c.7.4 1.5.7 2.3 1 2 .6 3.9.6 5.9.3.3 0 .7-.1 1-.1l.2.2c.1.6.2 1.1.3 1.7.7 3.9 2.8 6.5 6.6 7.6 3.8 1.1 7.8.7 11.5-.8 1.9-.7 3.2-1.9 4.3-3.4.5-.7.9-1.5 1.2-2.3 2.1-5.2 2.1-10.5-.2-15.7-.1-.2-.2-.2-.2-.4-1.7 2.3-3.8 3.8-6.2 5.1-4 2.2-8.3 3.6-12.9 4.7h-.2c-.1 0-.1 0-.2-.1v.1h-.2l.1-.1c.2-.2.3-.6.6-.8 1.1-1.6 2.2-3 3.2-4.7.3-.6.6-1.1.9-1.9-4-1.4-7.9-1.1-12.1-.8.8-1.6 2-3 1.6-5-3.8.9-7.5 1.3-11.2-.1.7-2.1 1.6-4 2.1-6-3.9-.7-7.9-1.2-11.7-1.8-3.8-.7-7.8-1.4-11.7-2.1.2 2.3 1.3 3.9 2.6 5.5 2.9 3.5 6.5 5.5 11.3 5.4-.4.7-.8 1.3-1.1 2-.7 1.8-.3 3.3 1.2 4.4.6.4 1.2.7 1.8 1 2.3.8 4.5 1.1 6.9.7.3 0 .7-.1 1.1-.1-.2.7-.4 1.4-.6 2-.4 1.9.3 3.5 1.8 4.5zm13.3-2.4z"/><path class="st7" d="M202.7 174.4c-.1 0-.1 0-.2-.1.2 0 .2.1.2.1zm-.1-.1zm0 0z"/><path class="st8" d="M196.8 150.8zm0 0s.1 0 0 0c.1 0 0 0 0 0-.2 0-.5 0-.7-.1-.1 0-.2 0-.2-.1h-.2c-2.7-.8-4.9-2.4-6.7-4.5-1.4-1.7-2.5-3.5-3.3-5.5-.8-1.7-1.6-3.3-2.5-5-.7-1.4-1.6-2.6-2.7-3.7-1.1-.9-2.2-1.6-3.7-1.6-2.6.2-5.7 2.7-6.4 5.2-.1.4 0 .7.2 1 .9 1.2 1.6 2.5 2.2 3.8.8 2.1 1.6 4.1 2.3 6.2.4 1.2 1.1 1.8 2.4 2.2 4 1.2 8 2.1 12.2 2.8 1.1.2 2.1.4 3.1.6-.2 2-.5 3.7-.7 5.6 1.6-.2 2.9-.5 4.4-.7 1.5-.2 2.9-.4 4.6-.6.3 1.9.2 3.6.2 5.4 4.3-.3 11.3.8 13.2 2.2-.2.5-.5.9-.7 1.4l.1.1c1.3-.6 2.4-1.5 3.3-2.5-.3-.2-.6-.5-.9-.7-3-2.1-6-4.5-8.6-7.2-2.5-2.5-4.3-5.2-4.9-8.5-.4-2.1-.7-4.2-1-6.3-.2-1-.2-1.9-.8-2.7-.5.4-.9.8-1.4 1.3-2.2-1.4-4.3-2.6-6.5-4-.2.4-.3.8-.5 1.2-.5 1.7-.4 3.4-.1 5.2.5 2.5 1.5 4.6 2.7 6.7.5 1 1.1 1.9 1.6 2.8zm0 0z"/><path class="st8" d="M213.7 165.5c.2-.5.5-.9.7-1.4-.3.5-.5.9-.7 1.4zm-16.9-14.7z"/><path class="st7" d="M258.9 137.8c-.3 0-.7 0-.9.2-4.5 2.1-9.3 2.4-14.1 1.8-4.4-.5-8.7-1.6-13-3.1-5-1.9-9.9-3.8-14.8-5.7-5.6-2.2-11.1-4-17.2-4.3-2.6-.2-5.1 0-7.9.4 2.4 2.6 4.9 4.5 7.7 6.3 2.2-1.6 4.6-2.6 6.9-3.5 1.2 1.7 2.3 3.2 3.4 4.7 1.2 1.6 2.6 2.8 4.1 3.9 2.4-1 4.5-2 6.8-2.9.2.5.4 1 .6 1.4.5 1.1 1.1 2.3 1.9 3.1.3.3.7.6 1.1.6 1 0 2 0 2.9.1 1.3.1 2.6.2 3.8.3-1.4 3.8-2.6 7.5-3.9 11.1h.7c3.1-.2 6.1-.9 8.9-2.1 2.5-1.1 4.7-2.4 7-3.8.5-.3 1-.5 1.6-.4.9.1 1.9.2 2.7.2 1.2.1 2.4.2 3.5.3-.2 1.1-.8 2.1-.7 3.3 6-2.5 11.1-5.6 14.3-11.2-.2-.1-.2-.1-.2-.2-1.7-.1-3.4-.3-5.2-.5z"/><path class="st9" d="M244.3 155.9c-2.7 4.4-6.1 8-10.8 10.2.2.7.4 1.2.6 2-1.1 0-2.1-.1-2.9 0-1 .1-2 .3-2.7 1.1.7 3.5.4 7-.3 10.5 1.8-1.7 3.2-3.4 4.2-5.7-.5-.4-.9-.8-1.4-1.3 1.8-.2 3.3-.2 4.9.2-.3 1.1-.7 2.1-.9 2.9 0 .1-.1.2-.1.3-.1.3-.2.7-.2.9 1.5-1.4 2.5-2.9 3.3-4.7-.3-.7-1.1-.8-1.2-1.5 1.6 0 3.1-.2 4.7.3-.3 1.9-1.1 3.4-1.7 5.2.2-.1.4-.2.6-.2.7-.7 1.2-1.4 1.8-2.1 2.3-3 3.3-6.5 3.8-10.3.2-2.3 0-4.4-.8-6.6-.4-.3-.6-.7-.9-1.2zm-9.8 21.1s0 .1 0 0c0 .1 0 0 0 0zm0 .1s0-.1 0 0c0-.1 0-.1 0 0 0-.1 0 0 0 0z"/><path class="st3" d="M270.5 123.4c-.5.4-.8.8-1.1 1.4-1.1 2.8-2.5 5.4-4.3 7.8-.3.4-.7.8-1.1 1.4 4.4-.2 8-1.7 10.8-4.8 2.5-2.8 3.8-6.1 4.1-9.9-.3.1-.5.1-.7.2-2.7.8-5.3 2.1-7.7 3.9zm-34.2 61.1c.1-.1.1-.2.2-.2 0 0-.1 0-.1-.1 0 0-.1.1-.1.3z"/><path class="st3" d="M236.3 184.5c.1-.1.1-.2.2-.2-.1 0-.1.1-.2.2zm.1-.4c0 .1-.1.2-.1.2s.1-.1.1-.2zm-.1.3v.1zm0 .1zm0-.1z"/><path class="st9" d="M239.6 176.8v-.1h-.1zm-5.2.4s.1 0 0 0c.1-.1.1-.1 0 0 .1-.1.1-.1 0 0 .1-.1 0-.1 0 0zm.1-.1zm0-.1c0 .1 0 .1 0 0 0 .1 0 .1 0 0 0 .1 0 .1 0 0zm0 .1zm0-.1c0 .1 0 0 0 0z"/><path class="st8" d="M213.7 165.5c0 .1 0 .2-.1.2.1 0 .1-.1.1-.2z"/><path class="st8" d="M213.7 165.5c0 .1 0 .2-.1.2 0-.1 0-.1.1-.2z"/><path class="st3" d="M91.2 188.1c0 .1 0 .1 0 0zm0 .1zm0 0zm0 0z"/><path class="st6" d="M159 73.2c2.5.1 4.7.2 7 .3 2 .1 3.8.2 5.8.4 3.4.2 7 .8 10.3 1.5 5.3 1.1 10.4 2.8 15.3 5.2.2.1.4.2.7.5-.3 0-.5.1-.6.1-3.1-.1-6.3.5-9.3 1-2.8.4-5.6.7-8.4.5-2.7-.2-5.5-.9-8.1-1.6-.3-.1-.7-.2-1.1-.2.2.3.2.4.2.5 2 2.4 3.8 4.7 5.9 7 1.8 2 3.7 3.7 5.9 5.1 3.9 2.5 8.2 3.3 12.9 2.3 1.7-.4 3.3-1 4.9-1.8.7-.3 1.3-.7 2.1-.4.2.8-.2 1.5-.7 2.1-.7.8-1.6 1.4-2.6 1.9-3.2 1.5-6.6 2-10.1 2.2-2.7.2-5.6.1-8.3-.3-.2-.1-.6 0-1.1 0 .2.2.3.3.5.4 2.5 1.2 4.7 2.5 7.2 3.5 2.6 1.2 5.4 1.9 8.2 2.2 2.7.2 5.5-.1 8-1s4.9-2 7.4-2.9c2.5-1 5.1-1.6 7.9-1.4 1.2.1 2.6.2 3.7.7 2.1.9 3.8 2.3 5.2 4s2.4 3.9 3.3 6.1c1 2.2 2.1 4.3 3.7 6 2.1 2.1 4.4 3.3 7.1 4.3l.4.2c.9.3 1.8.7 2.7.7-.1-.2-.2-.3-.2-.5-2.8-3.7-4.1-7.9-3.7-12.6.2-2.5.9-4.6 2.1-6.7.4-.7.9-1.4 1.4-2.1-2.1-1.6-4-3-6.1-4.4-2.2-1.4-4.3-2.6-6.5-3.9-2.2-1.2-4.4-2.3-6.7-3.3l.6-.6c1-.8 1.6-1.8 1.8-3 .2-1.3.1-2.5-.3-3.7-1.4-4.1-4.1-7-7.9-9.1-.5-.2-1-.5-1.6-.7v1.5c.1 1.1.2 2.2.2 3.3 0 1.4-.3 2.6-1 3.8-.7 1.5-2.3 2.2-3.8 1.9-1.2-.2-2.4-.7-3.3-1.5-2.5-1.6-4.5-3.6-6.4-5.9-1.2-1.6-2.5-3-3.7-4.5-.2-.3-.6-.6-1-.7-3.7-.7-7.4-1.3-11-2-2.3-.4-4.6-.7-7-.7-1.1 0-2.3.1-3.3.2-2 .1-3.8.5-5.7 1-3.9 1.1-7.7 2.6-11.3 4.6-.6 0-1.1.2-1.6.5zm36 12.1c.5-.5 1.1-.6 1.6-.4.2.1.5.2.5.5 0 .2-.1.6-.2.7-.3.2-.7.3-1 .4-.2-.1-.5-.1-.7-.2-.5-.2-.6-.6-.2-1zm-5.3 6c-1.8-1.1-3.2-2.6-4.2-4.7 2.5-1 5.2-1.5 7.9-1.5-.1.2-.2.3-.2.4-.8 1.6-.5 3.1 1 4.3 1 .7 2.1 1.1 3.2 1.1-1.9 1.6-5.2 1.8-7.7.4z"/><path class="st6" d="M245 121.9c-1 0-1.9-.3-2.7-.7.8.4 1.7.8 2.7.7zm-59.9-10.6c-3.4-1.6-7-2.5-10.9-2.3-3.3.2-6.3 1.3-9.1 2.9-2.8 1.7-5.2 3.8-7.4 6.2-3 3.4-5.5 7.4-7.5 11.5-1.9 3.9-3.3 8-4.3 12.4-.3 1.6-.6 3.3-.9 4.9.1 0 .2.1.2.1.2-.4.5-.7.7-1.1 2.2-4.1 4.6-8 7.3-11.8 3-4.3 6.3-8.3 10.1-11.9 1.8-1.7 3.6-3.3 5.6-4.7 3.3-2.5 7-4.3 11-5.2 1.7-.4 3.3-.6 5.1-.8.1 0 .1 0 .1-.2.1.1.1.1 0 0zm-69.3 25.1c-.6-.7-1.2-1.2-1.9-1.8-2.1-1.6-4.3-2.7-6.5-3.9-.7-.4-1.5-.7-2.3-1.1-1.6-.6-2.8.1-2.9 1.6-.1.5-.1 1.1 0 1.6.7 3.9 1.7 7.9 2.8 11.8.4 1.3.9 2.6 1.5 3.8.3.8 1 1.4 1.7 1.8 1.2.7 2.6.2 3.6-1.1 1.5-1.8 2.7-3.7 3.7-5.8.7-1.4 1.2-2.7 1.3-4.3-.1-1-.4-1.9-1-2.6zm3-35.4c.5.1 1 .1 1.5.1s1-.1 1.5-.2c4.3-.7 8.4-1.6 12.7-2.6 1-.2 2-.7 2.7-1.4 1.5-1.4 1.5-2.5.6-3.8-.2-.4-.6-.7-.9-1-2-1.7-4-3.1-6.4-4.3-1.1-.5-2.2-1-3.5-.9-1.1-.2-2.1.3-2.8 1.1l-.7.7c-1 1.3-2.1 2.6-2.9 3.9-1.1 1.6-2.1 3.3-2.9 5.1-1.1 1.5-.7 2.9 1.1 3.3zM108 119.4c-.2 1.1.2 2.1.8 2.6.1.1.1.2.2.2l.1.1.2.2c.2.2.3.2.4.4 2.8 2.5 6.1 4 9.4 5.6.2.1.5.2.8.2 1.4.3 2.5-.5 2.6-2v-.5c-.2-1.6-.5-3.2-.8-4.8-.8-3.3-1.8-6.7-2.7-10-.3-1.2-1-2.2-2-2.9-1.1-.9-2.4-.9-3.4.1-.3.3-.7.7-1 1.1-1.3 1.7-2.5 3.5-3.3 5.5-.2.4-.4.8-.6 1.3-.4.9-.8 1.9-.7 2.9zm29.6-12.7c.5-2.1-.5-3.2-2.5-3.2-1.8-.1-3.4.2-5.2.5-1.6.3-3 .7-4.3 1.7-.9.7-1.3 1.5-1.4 2.5v1.6c0 2.8.7 5.6 1.4 8.3.2.8.6 1.6 1.5 1.9 1 .2 1.7-.3 2.4-1l.2-.2c2.6-3.1 5.1-6.5 7.3-10 .1-.6.5-1.4.6-2.1zm8.8 6.3c.7 1.1 1.6 1.3 2.6.6.2-.2.4-.3.7-.6.6-.7 1.1-1.4 1.7-2.1 1.1-1.6 2.2-3.1 2.6-5.1.3-1.2.2-2.3-.6-3.3-1.6-2.3-3.5-4-5.6-5.7-1.2-1-2.4-.7-2.6.9-.2.8-.2 1.6-.2 2.5.1.9.2 1.8.2 2.6.2 2.5.3 4.9.5 7.4 0 .9.3 1.9.7 2.8zm24.8-50.8c1.2.2 2.5.3 3.6.5 2.5.2 4.8.5 7.3.7v-.1c.7 0 1.2.1 1.9 0 .6-.1 1.1-.2 1.7-.4 1.2-.5 1.5-1.4.8-2.5-.2-.3-.5-.7-.7-1-.2-.3-.6-.7-.9-1.1-1.4-1.5-2.8-2.7-4.6-3.8-1.6-.9-3.1-.9-4.7.1-1.5 1-2.9 2-4.3 2.9-.7.6-1.5 1.3-2.1 2s-.4 1.1.2 1.7c.4.7 1.1.8 1.8 1zm-9.8-12.5c-.3-.5-.8-.9-1.3-1.1-2.7-1.6-5.5-3.1-8.2-4.6-.6-.3-1.3-.4-2-.5-1.4-.2-2 1.1-1.8 2.1.4 2 1 3.9 2.1 5.7.7 1.3 1.7 2.5 3.1 2.2 2.8-.1 5.2-.9 7.6-1.8.9-.4 1.1-1.3.5-2zm8.2-6.8c.4.6.7 1.1 1.1 1.6 1.3 1.6 2.6 3.1 4.3 4.3.9.6 1.8.9 2.8.9 1-.2 2-.2 2.8-.5 1.4-.4 2.7-.8 4.1-1.3 1.1-.4 1.2-1.1.3-1.9-.3-.3-.7-.6-1.1-.7-3.8-1.7-7.9-3.1-11.9-4.3-.7-.2-1.6-.5-2.4-.2-.8.2-1.1.6-.8 1.3.4.2.6.5.8.8zM139.3 85c.4.3 1 .6 1.5.7 1.6.7 3.2 1.2 5.3 1.3 1.1.2 2.2-.6 2.8-2 1.1-2.2 1.6-4.4 2.1-6.8.2-1.1-.6-1.7-1.6-1.6-.5.1-1.1.2-1.5.5-2.5 1.3-5.1 2.6-7.5 3.9-.6.3-1.1 1-1.5 1.6-.6 1-.5 1.8.4 2.4zm10.7 7.9c.4.4.9.7 1.4.9 2.7 1.2 5.6 2.5 8.3 3.6.5.2 1.1.3 1.7.4v-.1h.3c1.4 0 2-.7 1.5-2-.7-2.2-1.8-4.1-3.2-5.8-.7-.9-1.7-1.5-2.9-1.3-2.5.3-4.7 1.1-6.8 2.2-.9.5-1.1 1.3-.3 2.1zm5.4-30c-.8.6-1.2 1.3-1.1 2.1 0 1.9.7 3.3 1.6 4.7.2.2.5.4.7.4 1.1.2 2-.4 2.6-1.2 2.1-2.4 3.9-4.7 5.9-7.2.2-.3.4-.8.6-1.2.2-.7-.1-1.1-.8-1.2-.6 0-1.1 0-1.6.2-1 .2-2 .6-2.8.9-2 .8-3.7 1.5-5.1 2.5zm67.9 46.5c.7 0 1.3-.7 1.1-1.3-.4-1.9-1.1-3.6-2.4-5.1-.5-.5-1.1-.7-1.8-.9-1.2.3-2.5.7-3.7 1.1-.6.2-1.1.4-1.7.7-.7.3-.7 1-.2 1.5.2.2.4.4.7.5 2.2 1.1 4.3 2.2 6.5 3.1.4.3.9.4 1.5.4zM127.7 132c-.1-.7-.6-1.1-1.2-.7-2.1 1-3.8 2.2-5.1 4-.5.7-.7 1.5-.4 2.3.2.7.3 1.5.5 2.2.2.8.6 1.6.9 2.5.3.7.8.7 1.3.2.3-.3.7-.7.8-1.2 1-2.4 2-4.7 2.8-7.2.2-.5.2-1 .4-1.5h-.1c.1-.2.2-.4.1-.6zm61.9-76c.6.8 1.3 1.3 2.1 1.2 2.1-.1 3.5-.7 5.2-1.2 1.1-.4 1.2-1.2.4-2-.2-.2-.4-.3-.6-.4-1.9-1.1-3.7-2.1-5.6-3.1-.7-.3-1.3-.6-2.1-.6-.8.1-1.3.7-1.1 1.4.4 1.6.7 3.3 1.7 4.7zm-72.8 90.9c-.7-.3-1.1-.1-1.1.7-.1.5 0 1 .1 1.5.6 2.4 1.2 4.7 1.9 7 .2.7.5 1.4.9 2 .6.8 1.3.8 1.8-.1.9-1.8 1.4-3.6 1.6-5.6 0-.7-.2-1.5-.7-2.1-1.4-1.5-2.9-2.5-4.5-3.4zm47.8-61.6c-.6-2.4-1.1-4.7-1.7-7.1-.2-.6-.5-1.1-.9-1.5-.2-.2-.5-.2-.9-.5-.3.2-.7.4-1 .7-1 1.4-1.9 2.8-2.2 4.5-.2.9 0 1.6.7 2.3 1.3 1.3 2.8 2.2 4.4 2.9 1.1.5 1.9-.1 1.6-1.3zM218.7 65c.6.5 1.2.8 2.1.7 2-.5 3.6-1.5 5.2-2.6.6-.4.6-1.1 0-1.5-.3-.2-.7-.5-1.1-.7-1.2-.4-2.5-.8-3.7-1.2-1.1-.3-2.4-.6-3.4-.8-1.7 0-2.1 1-1.5 2.4.3 1.2 1.2 2.6 2.4 3.7zM162 105.1c-.2.5 0 1 .6 1.1.2.1.5 0 .8.1.2 0 .5 0 .7-.1 2.4-.5 4.7-1.1 7-1.6.6-.2 1.2-.3 1.8-.6.5-.2 1-.5 1-1.1 0-.6-.6-.8-1-1.1-1.5-.7-2.9-1.2-4.6-1.5-1.4-.2-2.6.1-3.4 1.1-.9 1.1-1.7 2.1-2.6 3.2-.2.2-.3.4-.3.5zm10.4-7.7c.5.2 1 .3 1.5.3 1.2.1 1.6-.4 1.4-1.6-.4-1.8-1-3.3-2.3-4.7-.5-.5-1-.8-1.5-.7-2.3.2-4 .9-5.8 1.6-.7.3-.7 1-.2 1.6.3.3.7.6 1.1.8 1.9.8 3.8 1.8 5.8 2.7zm-30.9-55.2c-.6-.4-1.2-.7-2-.6-1.9.2-3.5.7-5.2 1.5-.7.3-.7.8-.2 1.3.3.3.7.6 1.2.8 2.1.9 4.2 1.7 6.4 2.6.7.3 1.6.5 2.4.7 1.4-.1 1.7-.6 1.1-1.8-1-1.7-2.1-3.3-3.7-4.5zm86.6 69.9c-.2-.2-.4-.5-.7-.8-.3-.4-.8-.6-1.3-.6-2.1 0-3.9.8-5.7 1.6-.7.3-.7 1-.2 1.5.2.3.7.6 1 .7 2 1 3.9 2 5.9 2.8.5.2 1 .3 1.5.4 1.1-.1 1.7-.7 1.4-1.8-.5-1.1-1-2.6-1.9-3.8zm-79.5 57.7c.5.4 1.1.7 1.7.7 2.1 0 3.8-.7 5.6-1.6l.1-.1c.4-.4.5-.7.1-1.1-.3-.3-.7-.7-1.2-.8-1.8-.7-3.5-1.5-5.4-2.1-1.1-.4-2.2-.9-3.3-.9h-.7c-.2 0-.2 0-.4.1-.5.2-.6.7-.3 1.2.9 1.8 2.1 3.2 3.8 4.6zm-7.9-1.4c-.3-.2-.7-.4-1.1-.5-2.1-.2-3.9.7-5.8 1.6-.7.3-.7 1.1-.2 1.6.2.2.3.2.5.4 2.3 1.1 4.5 2.2 6.8 3.2.3.2.8.2 1.2.2.9 0 1.2-.4 1.2-1.7-.2-.5-.4-1.2-.7-2.1-.6-.9-1.1-1.9-1.9-2.7zm59.7-101.6c.5.7 1.1 1.1 1.7 1.1 2.2-.1 3.8-.7 5.6-1.3.7-.2.9-1 .3-1.6-.2-.2-.6-.6-.8-.7-2-1.1-3.9-2.3-5.9-3.3-.5-.2-1.1-.3-1.7-.3-.7 0-1 .3-1 1v.8c.4 1.5.9 3 1.8 4.3zm-64.7 93.4c.2.5.4 1 .7 1.4.6.8 1.2.7 1.6-.1.9-1.7 1.4-3.5 1.6-5.5.1-1-.2-1.8-.9-2.5-1.1-1.2-2.5-2.2-3.9-2.9-.7-.4-1.1-.1-1.3.7-.1.3-.1.7 0 .9.8 2.5 1.6 5.2 2.2 8zm2.2-36c.3-.2.6-.7.7-1 1.1-2.6 2.1-5.2 3.1-7.9.2-.5.2-1.1.2-1.6s-.4-.8-1-.7c-.2.1-.4.2-.6.2-1.5.7-2.7 1.7-3.8 2.8-.7.7-1.4 1.6-1.2 2.5.1 2.1.7 3.8 1.5 5.5.2.5.7.6 1.1.2zm73.3-15.5c-1.6-1.3-3.3-2.4-5.2-2.9-.7-.2-1.5-.2-2.1.2-1.7.7-3.2 1.9-4.6 2.9-.6.5-.5 1.1.2 1.3.6.2 1.2.3 1.8.3 1.4.1 2.7 0 4.1 0v.1h3.8c.6 0 1.1-.1 1.6-.2 1.2-.4 1.3-.9.4-1.7zm-64.5 51.1c1-.1 1.9-.2 2.7-.2s1.2-.7.8-1.6c-.1-.2-.2-.4-.4-.6-1.3-1.2-2.5-2.5-3.8-3.5-.5-.4-1-.9-1.6-1.1-1.1-.6-2-.1-2.1 1.1-.1 1.5.1 2.9.7 4.3.3.8.9 1.5 2 1.5.6-.1 1.2.1 1.7.1zm-5.3-20.6c-.2-.8-.4-1.7-.8-2.5-.7-1.5-1.7-1.6-2.5-.2-.7 1.1-1.1 2.2-1.6 3.3s-.2 2.1.8 2.8c1.1.8 2.4 1.6 3.5 2.3.2.1.4.2.6.2.7.1.9-.2.9-.8v-.5h.1c-.3-1.5-.6-3-1-4.6zm22.1 36.1c-1.2-1-2.6-1.7-3.9-2.3-.5-.2-.8 0-.8.6 0 .4 0 .8.2 1.2 1 2.4 2.1 4.6 3 7 .2.5.6.9 1 1.2.5.4.9.3 1.1-.2.1-.2.2-.4.2-.6.2-1.2.3-2.4.5-3.4-.2-1.4-.2-2.6-1.3-3.5zm-7.4 3c-1.2-1.1-2.5-2.1-3.9-2.7-1-.4-2-.5-2.9 0-1 .5-2 1.1-2.8 1.6-.4.2-1.1.5-.9 1.1.2.7.8.7 1.3.8h.1c2.5.3 4.9.7 7.5 1v-.1c.4 0 .8 0 1.1-.1.3-.1.8-.3 1-.6.1-.4-.2-.8-.5-1zm-12.8-45.8c.2.4.3.9.9.9.5.1.7-.4.9-.7.9-1.6 1.6-3.1 1.8-4.8.1-.5 0-1.1-.2-1.5-.8-1.6-2.1-2.6-3.3-3.7-.6-.4-1-.2-1.1.6-.1.4 0 .9 0 1.4h-.1c.3 2.2.6 4.3.9 6.5-.2.3 0 .8.2 1.3zm95-41c-.7.2-.8.7-.3 1.2.2.2.4.4.7.6 2.1 1.1 3.9 2.2 6 3.1.3.2.7.2 1.1.3.8.1 1.2-.3.9-1.1-.6-1.5-1.3-2.8-2.5-3.9-.6-.6-1.2-.9-2.1-.9-1.3.3-2.5.5-3.8.7zm-3.6-9.8s.1 0 0 0c2.1 1.1 3.9 2.2 5.9 3.1.3.2.7.3 1.1.3.9.1 1.2-.3.9-1.2-.6-1.3-1.2-2.5-2.1-3.6-.6-.7-1.3-1.1-2.3-1.1l-3.3.6c-.5.1-1.1.1-1.1.7s.5.8.9 1.2zm-59.5 109.2c-.2-1-.9-1.7-1.9-2.1-1.1-.4-2.4-.7-3.5-1.1-.2 0-.2-.1-.4 0-.4.1-.7.3-.5.7.1.2.2.6.3.7 1.6 2.1 3.1 3.9 4.7 5.9.2.2.6.5 1 .7.5.2.8 0 .9-.5v-.9h.2c-.3-1.1-.4-2.3-.8-3.4zM119.7 37.7c-.4-.2-.8-.3-1.3-.3-1.6-.1-2.9.5-4.3 1.1-.8.4-.8.8-.1 1.3.1.1.2.2.3.2 2.5.7 4.9 1.6 7.4 2.3.6.2 1.1.1 1.6-.5-.1-.2-.1-.3-.2-.5-.8-1.4-1.9-2.7-3.4-3.6zM184 192.3c-.7-1.3-1.5-2.6-2.3-3.8-.2-.4-.6-.7-.9-1-.4-.3-.7-.2-1 .3-.1.2-.2.4-.2.6 0 1.2-.1 2.5 0 3.7.1 1.1.6 2.1 1.6 2.6s2 1 2.9 1.4c.3.2.7.2 1.1.2.3-.8.1-1.3-.2-1.9-.2-.7-.5-1.4-1-2.1zm45-114.6c.2.3.2.9.6.8.3-.1.7-.4.9-.7.2-.2.3-.6.4-1 .2-1 .4-2 .6-2.9-.1-1.6-.4-2.9-1.1-4.2-.2-.4-.5-.7-.8-1.1-.7-.6-1.1-.4-1.2.4-.2 1.1-.5 2.3-.7 3.3-.2.9-.1 1.6.2 2.5.4 1.1.7 2 1.1 2.9zm-43.1 27.9c-1.1-.7-2.2-1.2-3.3-1.9-.7-.4-1.5-.4-2.2-.3-1.1.1-2.2.2-3.2.4-.2 0-.4.2-.7.2.1.7.4 1.1.9 1.6 2.1 1.6 4.3 2.2 6.9 1.9.6-.1 1.2-.3 1.7-.6s.5-1-.1-1.3zm23.8-35.7c-.8-.4-1.1-.2-1.2.7 0 1.6.5 3 1.1 4.4.4 1.1 1.2 1.6 2.4 1.6.8-.2 1.6-.3 2.5-.5.9-.2 1-.7.7-1.5-.1-.2-.3-.5-.6-.7-1.1-1.1-2.3-2.1-3.4-3-.6-.5-1-.8-1.5-1zm-119.2-38c-1.4-.1-2.6-.1-4.1.2.2.8.7 1.1 1.2 1.4 1.3.7 2.5 1.6 3.8 2.2 1.1.6 2.2 1.1 3.2 1.6.4.2.9.2 1.3-.3-.3-.7-.7-1.4-1.1-2.1-1-1.5-2.2-2.9-4.3-3zm45.1 6.4c-.5-.6-1-.5-1.6-.5-2.2.2-4.3.3-6.5.5-.7.1-1.2.2-1.8.4-.2.1-.2.2-.4.2-.1.1-.2.1-.2.2l-.1.1-.1.1c.1.1.2.2.2.3.1.2.2.3.4.4 1.1.5 2.2.9 3.3 1.3 1 .4 2.1.2 2.8-.3 1.1-.7 2.1-1.3 2.9-2.1.7 0 .8-.4 1.1-.6z"/><path class="st6" d="M125 39.3c.1.1.2.2.2.3 0-.1-.1-.2-.2-.3zm-18-4.4c-2 .2-3.9.3-5.9.5-.5.1-1 .2-1.4.4-.8.3-.8.7-.1 1.2 1.1.7 2.4 1.2 3.6 1.5 1 .2 2 .2 2.7-.4.5-.3 1-.5 1.4-.8.7-.6 1.6-1 2.3-1.9-.2-.2-.4-.2-.7-.3-.5-.5-1.2-.2-1.9-.2zm67.1 147.9c-1.3-.8-2.6-1.6-3.8-2.3-.7-.4-1.5-.8-2.5-.5.1.3.1.7.2 1 .6 1 1.1 2 1.9 2.8.7.9 1.6 1.5 2.6 1.6 1.4.1 2.7.1 4.1.1.2 0 .3-.2.8-.3-.5-.5-.8-.8-1.2-1.1-.8-.4-1.4-.8-2.1-1.3zM229 87.6c.2.5.6.7 1 .7 2.3.1 4.5.2 6.8.2.7 0 1.3-.1 1.7-.8-.5-.8-1.3-1.3-2.1-1.8-2.1-1.4-3.8-1.3-5.7.2-.6.5-1.4.8-1.7 1.5zm-24.4-29.4c2 1.1 3.8 2.4 5.7 3.4.6.3 1.1.5 1.9.2 0-.2 0-.5-.1-.7-.6-1.3-1.2-2.6-2.2-3.5-.5-.5-1.1-.8-1.9-.8h-2.9c-.3 0-.7.2-1.1.2 0 .6.3.9.6 1.2zm51.3 42.5c-1.6-.9-3.1-1.9-4.7-2.7-.4-.2-1-.4-1.6.1.5 1.5 1.1 2.8 2.5 3.8.2.2.7.3 1 .3 1 0 2-.1 2.9-.2.6-.1.7-.5.2-1 0-.1-.1-.2-.3-.3zm-8.7-9.1c.5.6 1 1.1 1.6 1.6.2.2.6.2.8.2.2-.1.2-.5.2-.7 0-.6-.1-1.1-.2-1.6-.2-.9-.2-1.9-1.1-2.5-1.1-.8-2.5-1.1-3.9-1.2-.1.7.2 1.1.5 1.5.8.8 1.4 1.8 2.1 2.7zm12.1 7.5c1 .4 2.1.9 3 1.3.3.1.7.1 1.1 0 1-.2 2-.5 2.9-.7.2-.6-.2-.9-.5-1.1-1.8-1.1-3.7-1.4-5.7-.7-.5.2-.8.4-1.1.9.1.1.1.2.3.3zm-.2 3.9c1.1 1.7 2.7 2.2 4.3 2.5 1.1.2 2.3.1 3.2-1.1-1.6-.7-2.5-2-4.1-1.9-.9 0-2.2-.1-3.4.5zm-6.9-7.9c.9.7 1.9 1.3 3 1.4 1 .2 2.1.2 2.9-.2.4-.2.7-.3.7-.9-.9-.5-1.7-1.1-2.6-1.6-.3-.2-.8-.2-1.2-.2-1.1.1-2.2.2-3.3.2.1 1 .1 1 .5 1.3zm-3.7-8.5c.3.4.8.7 1.3.8 1.3.4 2.6.2 3.9.2.1-.7-.2-.9-.6-1.1-1.4-.8-2.6-1.6-4-2.5-.5-.2-1-.5-1.5-.7-.2-.1-.6-.1-.7.1-.1.1-.1.5 0 .7.5.9 1 1.8 1.6 2.5zm18.7 16.2c1.4.9 2.8 1.7 4.3 2.5.2.1.5.1.8.1.1-.1.1-.2.2-.2-.4-.8-1-1.6-1.6-2.4-1.1-1.1-2.6-1.4-4.2-.7.1.2.3.5.5.7zM245 122.1c0-.1 0-.1 0 0 0-.1 0-.1 0 0 0-.1 0-.1 0 0 0-.1 0-.1 0 0zm0 0c0-.1 0-.1 0 0 0-.1 0-.1 0 0zm0-.2c0 .1 0 .1 0 0zm0 0zm-.1 0zm-108.7 6.7v.1zm-79.1 16.9c1.1-.3 2.1-.8 2.9-1.6 1.1-.9 1.3-2.3.7-3.3-.2-.4-.6-.9-1-1.1-1.4-1.1-2.8-2.2-4.3-3.1-1.3-.8-2.7-1.4-4.2-2-1.8-.7-3.3-.2-4.7 1.2-.5.5-.9 1-1.3 1.5-2 2.5-3.5 5.2-5 7.9-.2.4-.3.9-.5 1.4.1 1.1.7 1.7 1.7 2.1 1 .2 2 .1 2.8-.1 4.4-.9 8.7-1.7 12.9-2.9zm2.3 19.9c.2-1.4-.2-2.6-1.3-3.4-.6-.5-1.1-.9-1.7-1.3-2.1-1.4-4.3-2.4-6.5-3.3-1-.4-2-.8-2.9-1.1-1.2-.3-2.1.3-2.5 1.6-.2.8-.1 1.6.2 2.2 1.2 4.4 2.6 8.8 4.4 13.2.4 1 .9 1.9 1.6 2.6.7.6 1.3 1 2.5 1.1.2-.1.6-.1.9-.3.6-.4 1.1-.9 1.6-1.5.7-1 1.3-2 1.8-2.9.8-2.5 1.7-4.5 1.9-6.9zM86.3 88c2.8 2.3 6 4 9.2 5.5 2.2 1 3.4.1 3.4-2.3 0-.4 0-.8-.1-1.2-.9-4.6-2.1-9.1-3.4-13.6-.3-1-.8-1.9-1.6-2.5-1.3-1.2-2.5-1.2-3.8-.2-.4.3-.7.7-1 1.1-.7 1.1-1.6 2.1-2.2 3.1-1 1.7-2 3.3-2.4 5.3-.2 1.8.3 3.4 1.9 4.8zm-42.5 19.7c2.1 1.1 4 2.3 6.1 3.2 1.9.8 3.2-.2 3.2-2.1v-.4c0-.2 0-.5-.1-.8-1-4.7-2.1-9.4-3.6-13.9-.4-1.1-1-2.1-1.9-2.7-.9-.7-2.2-.8-3-.2-.7.5-1.3 1.1-1.8 1.9-1.6 2.1-2.8 4.2-3.7 6.6-.2.8-.5 1.6-.6 2.5-.2 1.2.3 2.3 1.1 3 1.3 1 2.7 2 4.3 2.9zm36.7 9.5c1.1-.7 2.1-1.6 1.9-2.9-.1-1.1-.7-1.8-1.6-2.4-1.8-1.5-3.6-2.8-5.6-3.8-1.3-.7-2.6-1.4-4.3-1.2-1-.2-1.9.3-2.6 1s-1.3 1.2-1.8 2c-1.3 1.9-2.6 3.7-3.7 5.6-.6.9-1.1 2-1.5 2.9-.4 1.1.2 2.1 1.3 2.5.7.2 1.4.2 2.1.2 4.7-.7 9.3-1.6 13.9-2.8.6-.5 1.3-.7 1.9-1.1zM56.9 74.1c-2 .4-2.9 1.6-3.4 3.4-.7 2.6-.8 5.4-.9 8.1.1 1.2.1 2.5.2 3.5.2 1.5 1.4 2.1 2.7 1.6.7-.2 1.3-.7 1.9-1.1 3.7-2.9 7.3-6.1 10.6-9.4.7-.7 1.1-1.6 1.4-2.5.4-1.6-.1-2.6-1.6-3.3-.4-.2-.9-.3-1.4-.4-1.5-.2-2.8-.2-4.3-.5-1.6 0-3.4.2-5.2.6zm-14.7 56.6c.3-.2.6-.5.8-.7 2.8-3.2 5.2-6.8 7.5-10.4.4-.7.6-1.4.7-2.1.2-1.8-.6-2.8-2.5-2.8-1.3 0-2.6.1-3.8.2-1.6.2-3.2.6-4.7 1.3-1.1.5-2.1 1.1-2.4 2.4-.2.7-.2 1.4-.3 2.1.2 1.2.2 2.5.5 3.8.3 1.8.7 3.6 1.2 5.4.5 1.1 1.8 1.5 3 .8zM62.1 107c.2-.1.2-.2.3-.4 2.6-3.1 4.9-6.4 7.1-9.7.6-.8 1-1.8 1.1-2.7.2-1.5-.7-2.6-2.2-2.8h-1.5v-.1c-.9.1-1.9.2-2.7.3-1.9.2-3.6.7-5.2 1.6-1.3.7-2 1.7-2 3.2-.1 3.3.5 6.5 1.4 9.6.7 2 2.2 2.4 3.7 1zm15.6-20.5c-1.1-.8-2.1-.6-2.5.8-.2.7-.2 1.5-.2 2.1 0 1.6.1 3.2.2 4.8.2 2.2.2 4.3.5 6.5.1.8.5 1.6.9 2.5.6 1 1.6 1.1 2.5.4.2-.2.4-.3.6-.5 1.7-1.9 3.1-3.8 4.1-6.2.3-.7.4-1.6.6-2.1-.1-1.5-.7-2.4-1.4-3.2-1.5-2-3.3-3.6-5.3-5.1zm-8.1 66.7c-.7-.7-1.4-1.2-2.2-1.8-.9-.7-1.7-.4-2.1.5-.2.5-.3 1-.3 1.5-.1.8 0 1.6 0 2.4.1 1.7.2 3.3.2 5s.2 3.3.5 4.9c.1.8.4 1.6.8 2.3.7 1.1 1.7 1.2 2.6.3.5-.5 1-1 1.4-1.6 1.3-1.7 2.6-3.3 3.3-5.4.6-1.5.5-2.7-.4-4.1-1.1-1.3-2.4-2.7-3.8-4zm-14.4-29.6h-.3c-1.6 0-2.3.9-1.6 2.5.1.3.2.6.4.8.7 1.2 1.6 2.4 2.4 3.4.4.6.9 1.1 1.4 1.6 1.1 1.1 2.5 1.4 3.9.7 2-.8 3.6-1.9 5.3-3.1.9-.7.9-1.6.1-2.3-.5-.4-1.1-.7-1.7-.9-2.1-.7-4.1-1.4-6.1-2.1-1.2-.3-2.4-.6-3.5-.9-.3.2-.3.2-.3.3zm23.3 15c-2.9 1.3-5.9 2.7-8.6 4.5-.4.2-.8.7-1.1 1.2-.6.9-.3 2 .6 2.5.5.3 1.1.6 1.6.7 1.6.7 3.1 1.1 4.7 1.2 1.6 0 2.6-.7 3.2-2.1 1-2.1 1.6-4.3 2.1-6.6.1-.2 0-.5-.1-.7-.5-.9-1.4-1.2-2.4-.7zm-12.6 44.6c.4-.8.8-1.7 1.1-2.6.4-1.4.7-2.7 1.1-4.1.1-1.6-1.1-1.9-2.2-1.6-.2.1-.3.2-.5.2-.9.4-1.8.7-2.6 1.2-1.8 1-3.6 2-5.4 2.9-.7.4-1.4 1.1-1.7 1.9-.2.7-.1 1.2.4 1.7.2.2.6.4.8.6 1.8.9 3.6 1.5 5.6 1.6 2 .2 2.7-.4 3.4-1.8zM93.1 100c-.5.1-1 .2-1.4.4l-7.5 3.9c-.5.2-1 .7-1.3 1.1-1 1.1-.8 2.3.5 2.9 1.9 1 3.8 1.6 6.7 1.8 1 .2 2.1-.7 2.6-2.1.5-1.3 1-2.6 1.4-3.8.2-1 .5-2.1.6-2.9 0-.9-.7-1.4-1.6-1.3zM66.4 61.6c1.9 1.1 3.8 1.7 6.7 1.9 1.1.2 2.1-.7 2.6-2.1.7-1.7 1.2-3.3 1.7-5.2.2-.7.2-1.3.2-2s-.3-1.1-1.1-1.1c-.5 0-1.1 0-1.5.2-2.6 1.3-5.2 2.6-7.8 4-.6.3-1.1.8-1.6 1.3-.7 1.4-.4 2.4.8 3zm17.3 68.2c-.2-.4-.3-.8-.5-1.2-.7-1.6-1.6-3-2.6-4.3-.7-.9-1.6-1.6-2.4-1.5-1.9.1-3.2.5-4.5.9-1 .3-2.1.7-2.9 1.2-1 .5-1.1 1.4-.3 2.2.3.3.7.6 1.1.7.8.4 1.7.8 2.5 1.2 2.1.9 4.1 1.8 6.2 2.6.6.2 1.3.3 2 .3 1.3-.1 1.8-.8 1.4-2.1zM70.5 70.9c.4.4.9.8 1.4 1.1 2.8 1.3 5.7 2.5 8.5 3.7.6.2 1.3.3 2 .3 1.4 0 1.9-.7 1.5-2.1-.7-2.1-1.6-3.8-2.9-5.5-.7-.9-1.6-1.7-2.9-1.6-2.5.2-4.8 1.1-7.1 2.3-1 .4-1.1 1.3-.5 1.8zM63 190.3c-.2-.3-.7-.7-1.1-.8-.7-.4-1.1-.2-1.4.6-.2.7-.2 1.3-.2 2-.1 1.4 0 2.7.4 4 .2 1 .8 1.6 1.7 2.1 1.5.7 2.9 1.2 4.5 1.6.7.2 1-.1 1-1.1-.1-.2-.2-.6-.3-.9-1.3-2.7-3-5.1-4.6-7.5zM52 71.4c.2 0 .7-.1 1.2-.2 1.5-.3 2.9-.6 4.4-1 1.1-.3 2.4-.7 3.4-1.1.6-.2 1.1-.5 1.1-1.2s-.7-1-1.1-1.2c-1.5-.7-2.9-1.1-4.5-1.4-1.4-.2-2.5.2-3.3 1.1-.8 1-1.6 2-2.4 2.9-.3.4-.7.8-.5 1.4.4.9.9.6 1.7.7zm150.5 103.1h.2v-.1c-.1 0-.2 0-.2.1zm.1-.2zm0 .1c0-.1 0-.1 0 0 0-.1 0-.1 0 0zm-5.8-23.6s.1 0 0 0c.1 0 0 0 0 0zm0 0z"/><path class="st7" d="M193.3 85.6c.1-.1.1-.2.2-.4-2.8 0-5.4.5-7.9 1.5 1 2.1 2.5 3.7 4.2 4.7 2.5 1.5 5.8 1.1 7.8-.3-1.2-.1-2.4-.4-3.2-1.1-1.6-1.4-1.9-2.8-1.1-4.4zm1.8.8c.2.1.4.1.7.2.3-.1.7-.2 1-.4.2-.2.3-.5.2-.7 0-.2-.2-.4-.5-.5-.6-.2-1.1-.1-1.6.4-.3.3-.2.7.2 1z"/></g></svg>